%TF.GenerationSoftware,KiCad,Pcbnew,7.0.2-0*%
%TF.CreationDate,2024-01-28T22:05:15+09:00*%
%TF.ProjectId,cpu-bd,6370752d-6264-42e6-9b69-6361645f7063,rev?*%
%TF.SameCoordinates,Original*%
%TF.FileFunction,Legend,Bot*%
%TF.FilePolarity,Positive*%
%FSLAX46Y46*%
G04 Gerber Fmt 4.6, Leading zero omitted, Abs format (unit mm)*
G04 Created by KiCad (PCBNEW 7.0.2-0) date 2024-01-28 22:05:15*
%MOMM*%
%LPD*%
G01*
G04 APERTURE LIST*
%ADD10C,0.150000*%
G04 APERTURE END LIST*
D10*
X178831904Y-41726428D02*
X178831904Y-40226428D01*
X178831904Y-40226428D02*
X178498571Y-41297857D01*
X178498571Y-41297857D02*
X178165238Y-40226428D01*
X178165238Y-40226428D02*
X178165238Y-41726428D01*
X177117619Y-41583571D02*
X177165238Y-41655000D01*
X177165238Y-41655000D02*
X177308095Y-41726428D01*
X177308095Y-41726428D02*
X177403333Y-41726428D01*
X177403333Y-41726428D02*
X177546190Y-41655000D01*
X177546190Y-41655000D02*
X177641428Y-41512142D01*
X177641428Y-41512142D02*
X177689047Y-41369285D01*
X177689047Y-41369285D02*
X177736666Y-41083571D01*
X177736666Y-41083571D02*
X177736666Y-40869285D01*
X177736666Y-40869285D02*
X177689047Y-40583571D01*
X177689047Y-40583571D02*
X177641428Y-40440714D01*
X177641428Y-40440714D02*
X177546190Y-40297857D01*
X177546190Y-40297857D02*
X177403333Y-40226428D01*
X177403333Y-40226428D02*
X177308095Y-40226428D01*
X177308095Y-40226428D02*
X177165238Y-40297857D01*
X177165238Y-40297857D02*
X177117619Y-40369285D01*
X176165238Y-41726428D02*
X176736666Y-41726428D01*
X176450952Y-41726428D02*
X176450952Y-40226428D01*
X176450952Y-40226428D02*
X176546190Y-40440714D01*
X176546190Y-40440714D02*
X176641428Y-40583571D01*
X176641428Y-40583571D02*
X176736666Y-40655000D01*
X175308095Y-40726428D02*
X175308095Y-41726428D01*
X175546190Y-40155000D02*
X175784285Y-41226428D01*
X175784285Y-41226428D02*
X175165238Y-41226428D01*
X174308095Y-40226428D02*
X174784285Y-40226428D01*
X174784285Y-40226428D02*
X174831904Y-40940714D01*
X174831904Y-40940714D02*
X174784285Y-40869285D01*
X174784285Y-40869285D02*
X174689047Y-40797857D01*
X174689047Y-40797857D02*
X174450952Y-40797857D01*
X174450952Y-40797857D02*
X174355714Y-40869285D01*
X174355714Y-40869285D02*
X174308095Y-40940714D01*
X174308095Y-40940714D02*
X174260476Y-41083571D01*
X174260476Y-41083571D02*
X174260476Y-41440714D01*
X174260476Y-41440714D02*
X174308095Y-41583571D01*
X174308095Y-41583571D02*
X174355714Y-41655000D01*
X174355714Y-41655000D02*
X174450952Y-41726428D01*
X174450952Y-41726428D02*
X174689047Y-41726428D01*
X174689047Y-41726428D02*
X174784285Y-41655000D01*
X174784285Y-41655000D02*
X174831904Y-41583571D01*
X173641428Y-40226428D02*
X173546190Y-40226428D01*
X173546190Y-40226428D02*
X173450952Y-40297857D01*
X173450952Y-40297857D02*
X173403333Y-40369285D01*
X173403333Y-40369285D02*
X173355714Y-40512142D01*
X173355714Y-40512142D02*
X173308095Y-40797857D01*
X173308095Y-40797857D02*
X173308095Y-41155000D01*
X173308095Y-41155000D02*
X173355714Y-41440714D01*
X173355714Y-41440714D02*
X173403333Y-41583571D01*
X173403333Y-41583571D02*
X173450952Y-41655000D01*
X173450952Y-41655000D02*
X173546190Y-41726428D01*
X173546190Y-41726428D02*
X173641428Y-41726428D01*
X173641428Y-41726428D02*
X173736666Y-41655000D01*
X173736666Y-41655000D02*
X173784285Y-41583571D01*
X173784285Y-41583571D02*
X173831904Y-41440714D01*
X173831904Y-41440714D02*
X173879523Y-41155000D01*
X173879523Y-41155000D02*
X173879523Y-40797857D01*
X173879523Y-40797857D02*
X173831904Y-40512142D01*
X173831904Y-40512142D02*
X173784285Y-40369285D01*
X173784285Y-40369285D02*
X173736666Y-40297857D01*
X173736666Y-40297857D02*
X173641428Y-40226428D01*
X172689047Y-40226428D02*
X172593809Y-40226428D01*
X172593809Y-40226428D02*
X172498571Y-40297857D01*
X172498571Y-40297857D02*
X172450952Y-40369285D01*
X172450952Y-40369285D02*
X172403333Y-40512142D01*
X172403333Y-40512142D02*
X172355714Y-40797857D01*
X172355714Y-40797857D02*
X172355714Y-41155000D01*
X172355714Y-41155000D02*
X172403333Y-41440714D01*
X172403333Y-41440714D02*
X172450952Y-41583571D01*
X172450952Y-41583571D02*
X172498571Y-41655000D01*
X172498571Y-41655000D02*
X172593809Y-41726428D01*
X172593809Y-41726428D02*
X172689047Y-41726428D01*
X172689047Y-41726428D02*
X172784285Y-41655000D01*
X172784285Y-41655000D02*
X172831904Y-41583571D01*
X172831904Y-41583571D02*
X172879523Y-41440714D01*
X172879523Y-41440714D02*
X172927142Y-41155000D01*
X172927142Y-41155000D02*
X172927142Y-40797857D01*
X172927142Y-40797857D02*
X172879523Y-40512142D01*
X172879523Y-40512142D02*
X172831904Y-40369285D01*
X172831904Y-40369285D02*
X172784285Y-40297857D01*
X172784285Y-40297857D02*
X172689047Y-40226428D01*
X171593809Y-40940714D02*
X171450952Y-41012142D01*
X171450952Y-41012142D02*
X171403333Y-41083571D01*
X171403333Y-41083571D02*
X171355714Y-41226428D01*
X171355714Y-41226428D02*
X171355714Y-41440714D01*
X171355714Y-41440714D02*
X171403333Y-41583571D01*
X171403333Y-41583571D02*
X171450952Y-41655000D01*
X171450952Y-41655000D02*
X171546190Y-41726428D01*
X171546190Y-41726428D02*
X171927142Y-41726428D01*
X171927142Y-41726428D02*
X171927142Y-40226428D01*
X171927142Y-40226428D02*
X171593809Y-40226428D01*
X171593809Y-40226428D02*
X171498571Y-40297857D01*
X171498571Y-40297857D02*
X171450952Y-40369285D01*
X171450952Y-40369285D02*
X171403333Y-40512142D01*
X171403333Y-40512142D02*
X171403333Y-40655000D01*
X171403333Y-40655000D02*
X171450952Y-40797857D01*
X171450952Y-40797857D02*
X171498571Y-40869285D01*
X171498571Y-40869285D02*
X171593809Y-40940714D01*
X171593809Y-40940714D02*
X171927142Y-40940714D01*
X170165237Y-41726428D02*
X170165237Y-40226428D01*
X169689047Y-40726428D02*
X169689047Y-41726428D01*
X169689047Y-40869285D02*
X169641428Y-40797857D01*
X169641428Y-40797857D02*
X169546190Y-40726428D01*
X169546190Y-40726428D02*
X169403333Y-40726428D01*
X169403333Y-40726428D02*
X169308095Y-40797857D01*
X169308095Y-40797857D02*
X169260476Y-40940714D01*
X169260476Y-40940714D02*
X169260476Y-41726428D01*
X168831904Y-41655000D02*
X168736666Y-41726428D01*
X168736666Y-41726428D02*
X168546190Y-41726428D01*
X168546190Y-41726428D02*
X168450952Y-41655000D01*
X168450952Y-41655000D02*
X168403333Y-41512142D01*
X168403333Y-41512142D02*
X168403333Y-41440714D01*
X168403333Y-41440714D02*
X168450952Y-41297857D01*
X168450952Y-41297857D02*
X168546190Y-41226428D01*
X168546190Y-41226428D02*
X168689047Y-41226428D01*
X168689047Y-41226428D02*
X168784285Y-41155000D01*
X168784285Y-41155000D02*
X168831904Y-41012142D01*
X168831904Y-41012142D02*
X168831904Y-40940714D01*
X168831904Y-40940714D02*
X168784285Y-40797857D01*
X168784285Y-40797857D02*
X168689047Y-40726428D01*
X168689047Y-40726428D02*
X168546190Y-40726428D01*
X168546190Y-40726428D02*
X168450952Y-40797857D01*
X168117618Y-40726428D02*
X167736666Y-40726428D01*
X167974761Y-40226428D02*
X167974761Y-41512142D01*
X167974761Y-41512142D02*
X167927142Y-41655000D01*
X167927142Y-41655000D02*
X167831904Y-41726428D01*
X167831904Y-41726428D02*
X167736666Y-41726428D01*
X167403332Y-41726428D02*
X167403332Y-40726428D01*
X167403332Y-41012142D02*
X167355713Y-40869285D01*
X167355713Y-40869285D02*
X167308094Y-40797857D01*
X167308094Y-40797857D02*
X167212856Y-40726428D01*
X167212856Y-40726428D02*
X167117618Y-40726428D01*
X166355713Y-40726428D02*
X166355713Y-41726428D01*
X166784284Y-40726428D02*
X166784284Y-41512142D01*
X166784284Y-41512142D02*
X166736665Y-41655000D01*
X166736665Y-41655000D02*
X166641427Y-41726428D01*
X166641427Y-41726428D02*
X166498570Y-41726428D01*
X166498570Y-41726428D02*
X166403332Y-41655000D01*
X166403332Y-41655000D02*
X166355713Y-41583571D01*
X165450951Y-41655000D02*
X165546189Y-41726428D01*
X165546189Y-41726428D02*
X165736665Y-41726428D01*
X165736665Y-41726428D02*
X165831903Y-41655000D01*
X165831903Y-41655000D02*
X165879522Y-41583571D01*
X165879522Y-41583571D02*
X165927141Y-41440714D01*
X165927141Y-41440714D02*
X165927141Y-41012142D01*
X165927141Y-41012142D02*
X165879522Y-40869285D01*
X165879522Y-40869285D02*
X165831903Y-40797857D01*
X165831903Y-40797857D02*
X165736665Y-40726428D01*
X165736665Y-40726428D02*
X165546189Y-40726428D01*
X165546189Y-40726428D02*
X165450951Y-40797857D01*
X165165236Y-40726428D02*
X164784284Y-40726428D01*
X165022379Y-40226428D02*
X165022379Y-41512142D01*
X165022379Y-41512142D02*
X164974760Y-41655000D01*
X164974760Y-41655000D02*
X164879522Y-41726428D01*
X164879522Y-41726428D02*
X164784284Y-41726428D01*
X164450950Y-41726428D02*
X164450950Y-40726428D01*
X164450950Y-40226428D02*
X164498569Y-40297857D01*
X164498569Y-40297857D02*
X164450950Y-40369285D01*
X164450950Y-40369285D02*
X164403331Y-40297857D01*
X164403331Y-40297857D02*
X164450950Y-40226428D01*
X164450950Y-40226428D02*
X164450950Y-40369285D01*
X163831903Y-41726428D02*
X163927141Y-41655000D01*
X163927141Y-41655000D02*
X163974760Y-41583571D01*
X163974760Y-41583571D02*
X164022379Y-41440714D01*
X164022379Y-41440714D02*
X164022379Y-41012142D01*
X164022379Y-41012142D02*
X163974760Y-40869285D01*
X163974760Y-40869285D02*
X163927141Y-40797857D01*
X163927141Y-40797857D02*
X163831903Y-40726428D01*
X163831903Y-40726428D02*
X163689046Y-40726428D01*
X163689046Y-40726428D02*
X163593808Y-40797857D01*
X163593808Y-40797857D02*
X163546189Y-40869285D01*
X163546189Y-40869285D02*
X163498570Y-41012142D01*
X163498570Y-41012142D02*
X163498570Y-41440714D01*
X163498570Y-41440714D02*
X163546189Y-41583571D01*
X163546189Y-41583571D02*
X163593808Y-41655000D01*
X163593808Y-41655000D02*
X163689046Y-41726428D01*
X163689046Y-41726428D02*
X163831903Y-41726428D01*
X163069998Y-40726428D02*
X163069998Y-41726428D01*
X163069998Y-40869285D02*
X163022379Y-40797857D01*
X163022379Y-40797857D02*
X162927141Y-40726428D01*
X162927141Y-40726428D02*
X162784284Y-40726428D01*
X162784284Y-40726428D02*
X162689046Y-40797857D01*
X162689046Y-40797857D02*
X162641427Y-40940714D01*
X162641427Y-40940714D02*
X162641427Y-41726428D01*
X161450950Y-41655000D02*
X161308093Y-41726428D01*
X161308093Y-41726428D02*
X161069998Y-41726428D01*
X161069998Y-41726428D02*
X160974760Y-41655000D01*
X160974760Y-41655000D02*
X160927141Y-41583571D01*
X160927141Y-41583571D02*
X160879522Y-41440714D01*
X160879522Y-41440714D02*
X160879522Y-41297857D01*
X160879522Y-41297857D02*
X160927141Y-41155000D01*
X160927141Y-41155000D02*
X160974760Y-41083571D01*
X160974760Y-41083571D02*
X161069998Y-41012142D01*
X161069998Y-41012142D02*
X161260474Y-40940714D01*
X161260474Y-40940714D02*
X161355712Y-40869285D01*
X161355712Y-40869285D02*
X161403331Y-40797857D01*
X161403331Y-40797857D02*
X161450950Y-40655000D01*
X161450950Y-40655000D02*
X161450950Y-40512142D01*
X161450950Y-40512142D02*
X161403331Y-40369285D01*
X161403331Y-40369285D02*
X161355712Y-40297857D01*
X161355712Y-40297857D02*
X161260474Y-40226428D01*
X161260474Y-40226428D02*
X161022379Y-40226428D01*
X161022379Y-40226428D02*
X160879522Y-40297857D01*
X160069998Y-41655000D02*
X160165236Y-41726428D01*
X160165236Y-41726428D02*
X160355712Y-41726428D01*
X160355712Y-41726428D02*
X160450950Y-41655000D01*
X160450950Y-41655000D02*
X160498569Y-41512142D01*
X160498569Y-41512142D02*
X160498569Y-40940714D01*
X160498569Y-40940714D02*
X160450950Y-40797857D01*
X160450950Y-40797857D02*
X160355712Y-40726428D01*
X160355712Y-40726428D02*
X160165236Y-40726428D01*
X160165236Y-40726428D02*
X160069998Y-40797857D01*
X160069998Y-40797857D02*
X160022379Y-40940714D01*
X160022379Y-40940714D02*
X160022379Y-41083571D01*
X160022379Y-41083571D02*
X160498569Y-41226428D01*
X159736664Y-40726428D02*
X159355712Y-40726428D01*
X159593807Y-40226428D02*
X159593807Y-41512142D01*
X159593807Y-41512142D02*
X159546188Y-41655000D01*
X159546188Y-41655000D02*
X159450950Y-41726428D01*
X159450950Y-41726428D02*
X159355712Y-41726428D01*
X165830285Y-43215428D02*
X164758857Y-43215428D01*
X165401714Y-42572571D02*
X165830285Y-44501142D01*
X164901714Y-43858285D02*
X165973142Y-43858285D01*
X165330285Y-44501142D02*
X164901714Y-42572571D01*
X163616000Y-43215428D02*
X163616000Y-44215428D01*
X163973142Y-42644000D02*
X164330285Y-43715428D01*
X164330285Y-43715428D02*
X163401714Y-43715428D01*
X161758857Y-43786857D02*
X161044572Y-43786857D01*
X161901714Y-44215428D02*
X161401714Y-42715428D01*
X161401714Y-42715428D02*
X160901714Y-44215428D01*
X160401715Y-44215428D02*
X160401715Y-42715428D01*
X160401715Y-42715428D02*
X159544572Y-44215428D01*
X159544572Y-44215428D02*
X159544572Y-42715428D01*
X158830286Y-44215428D02*
X158830286Y-42715428D01*
X158830286Y-42715428D02*
X158473143Y-42715428D01*
X158473143Y-42715428D02*
X158258857Y-42786857D01*
X158258857Y-42786857D02*
X158116000Y-42929714D01*
X158116000Y-42929714D02*
X158044571Y-43072571D01*
X158044571Y-43072571D02*
X157973143Y-43358285D01*
X157973143Y-43358285D02*
X157973143Y-43572571D01*
X157973143Y-43572571D02*
X158044571Y-43858285D01*
X158044571Y-43858285D02*
X158116000Y-44001142D01*
X158116000Y-44001142D02*
X158258857Y-44144000D01*
X158258857Y-44144000D02*
X158473143Y-44215428D01*
X158473143Y-44215428D02*
X158830286Y-44215428D01*
X156473143Y-44072571D02*
X156544571Y-44144000D01*
X156544571Y-44144000D02*
X156758857Y-44215428D01*
X156758857Y-44215428D02*
X156901714Y-44215428D01*
X156901714Y-44215428D02*
X157116000Y-44144000D01*
X157116000Y-44144000D02*
X157258857Y-44001142D01*
X157258857Y-44001142D02*
X157330286Y-43858285D01*
X157330286Y-43858285D02*
X157401714Y-43572571D01*
X157401714Y-43572571D02*
X157401714Y-43358285D01*
X157401714Y-43358285D02*
X157330286Y-43072571D01*
X157330286Y-43072571D02*
X157258857Y-42929714D01*
X157258857Y-42929714D02*
X157116000Y-42786857D01*
X157116000Y-42786857D02*
X156901714Y-42715428D01*
X156901714Y-42715428D02*
X156758857Y-42715428D01*
X156758857Y-42715428D02*
X156544571Y-42786857D01*
X156544571Y-42786857D02*
X156473143Y-42858285D01*
X165830285Y-45645428D02*
X164758857Y-45645428D01*
X165401714Y-45002571D02*
X165830285Y-46931142D01*
X164901714Y-46288285D02*
X165973142Y-46288285D01*
X165330285Y-46931142D02*
X164901714Y-45002571D01*
X163544571Y-45145428D02*
X164258857Y-45145428D01*
X164258857Y-45145428D02*
X164330285Y-45859714D01*
X164330285Y-45859714D02*
X164258857Y-45788285D01*
X164258857Y-45788285D02*
X164116000Y-45716857D01*
X164116000Y-45716857D02*
X163758857Y-45716857D01*
X163758857Y-45716857D02*
X163616000Y-45788285D01*
X163616000Y-45788285D02*
X163544571Y-45859714D01*
X163544571Y-45859714D02*
X163473142Y-46002571D01*
X163473142Y-46002571D02*
X163473142Y-46359714D01*
X163473142Y-46359714D02*
X163544571Y-46502571D01*
X163544571Y-46502571D02*
X163616000Y-46574000D01*
X163616000Y-46574000D02*
X163758857Y-46645428D01*
X163758857Y-46645428D02*
X164116000Y-46645428D01*
X164116000Y-46645428D02*
X164258857Y-46574000D01*
X164258857Y-46574000D02*
X164330285Y-46502571D01*
X161401714Y-45145428D02*
X161116000Y-45145428D01*
X161116000Y-45145428D02*
X160973143Y-45216857D01*
X160973143Y-45216857D02*
X160830286Y-45359714D01*
X160830286Y-45359714D02*
X160758857Y-45645428D01*
X160758857Y-45645428D02*
X160758857Y-46145428D01*
X160758857Y-46145428D02*
X160830286Y-46431142D01*
X160830286Y-46431142D02*
X160973143Y-46574000D01*
X160973143Y-46574000D02*
X161116000Y-46645428D01*
X161116000Y-46645428D02*
X161401714Y-46645428D01*
X161401714Y-46645428D02*
X161544572Y-46574000D01*
X161544572Y-46574000D02*
X161687429Y-46431142D01*
X161687429Y-46431142D02*
X161758857Y-46145428D01*
X161758857Y-46145428D02*
X161758857Y-45645428D01*
X161758857Y-45645428D02*
X161687429Y-45359714D01*
X161687429Y-45359714D02*
X161544572Y-45216857D01*
X161544572Y-45216857D02*
X161401714Y-45145428D01*
X159258857Y-46645428D02*
X159758857Y-45931142D01*
X160116000Y-46645428D02*
X160116000Y-45145428D01*
X160116000Y-45145428D02*
X159544571Y-45145428D01*
X159544571Y-45145428D02*
X159401714Y-45216857D01*
X159401714Y-45216857D02*
X159330285Y-45288285D01*
X159330285Y-45288285D02*
X159258857Y-45431142D01*
X159258857Y-45431142D02*
X159258857Y-45645428D01*
X159258857Y-45645428D02*
X159330285Y-45788285D01*
X159330285Y-45788285D02*
X159401714Y-45859714D01*
X159401714Y-45859714D02*
X159544571Y-45931142D01*
X159544571Y-45931142D02*
X160116000Y-45931142D01*
X165830285Y-48075428D02*
X164758857Y-48075428D01*
X165401714Y-47432571D02*
X165830285Y-49361142D01*
X164901714Y-48718285D02*
X165973142Y-48718285D01*
X165330285Y-49361142D02*
X164901714Y-47432571D01*
X163616000Y-47575428D02*
X163901714Y-47575428D01*
X163901714Y-47575428D02*
X164044571Y-47646857D01*
X164044571Y-47646857D02*
X164116000Y-47718285D01*
X164116000Y-47718285D02*
X164258857Y-47932571D01*
X164258857Y-47932571D02*
X164330285Y-48218285D01*
X164330285Y-48218285D02*
X164330285Y-48789714D01*
X164330285Y-48789714D02*
X164258857Y-48932571D01*
X164258857Y-48932571D02*
X164187428Y-49004000D01*
X164187428Y-49004000D02*
X164044571Y-49075428D01*
X164044571Y-49075428D02*
X163758857Y-49075428D01*
X163758857Y-49075428D02*
X163616000Y-49004000D01*
X163616000Y-49004000D02*
X163544571Y-48932571D01*
X163544571Y-48932571D02*
X163473142Y-48789714D01*
X163473142Y-48789714D02*
X163473142Y-48432571D01*
X163473142Y-48432571D02*
X163544571Y-48289714D01*
X163544571Y-48289714D02*
X163616000Y-48218285D01*
X163616000Y-48218285D02*
X163758857Y-48146857D01*
X163758857Y-48146857D02*
X164044571Y-48146857D01*
X164044571Y-48146857D02*
X164187428Y-48218285D01*
X164187428Y-48218285D02*
X164258857Y-48289714D01*
X164258857Y-48289714D02*
X164330285Y-48432571D01*
X161401714Y-47575428D02*
X161116000Y-47575428D01*
X161116000Y-47575428D02*
X160973143Y-47646857D01*
X160973143Y-47646857D02*
X160830286Y-47789714D01*
X160830286Y-47789714D02*
X160758857Y-48075428D01*
X160758857Y-48075428D02*
X160758857Y-48575428D01*
X160758857Y-48575428D02*
X160830286Y-48861142D01*
X160830286Y-48861142D02*
X160973143Y-49004000D01*
X160973143Y-49004000D02*
X161116000Y-49075428D01*
X161116000Y-49075428D02*
X161401714Y-49075428D01*
X161401714Y-49075428D02*
X161544572Y-49004000D01*
X161544572Y-49004000D02*
X161687429Y-48861142D01*
X161687429Y-48861142D02*
X161758857Y-48575428D01*
X161758857Y-48575428D02*
X161758857Y-48075428D01*
X161758857Y-48075428D02*
X161687429Y-47789714D01*
X161687429Y-47789714D02*
X161544572Y-47646857D01*
X161544572Y-47646857D02*
X161401714Y-47575428D01*
X159258857Y-49075428D02*
X159758857Y-48361142D01*
X160116000Y-49075428D02*
X160116000Y-47575428D01*
X160116000Y-47575428D02*
X159544571Y-47575428D01*
X159544571Y-47575428D02*
X159401714Y-47646857D01*
X159401714Y-47646857D02*
X159330285Y-47718285D01*
X159330285Y-47718285D02*
X159258857Y-47861142D01*
X159258857Y-47861142D02*
X159258857Y-48075428D01*
X159258857Y-48075428D02*
X159330285Y-48218285D01*
X159330285Y-48218285D02*
X159401714Y-48289714D01*
X159401714Y-48289714D02*
X159544571Y-48361142D01*
X159544571Y-48361142D02*
X160116000Y-48361142D01*
X157758857Y-48932571D02*
X157830285Y-49004000D01*
X157830285Y-49004000D02*
X158044571Y-49075428D01*
X158044571Y-49075428D02*
X158187428Y-49075428D01*
X158187428Y-49075428D02*
X158401714Y-49004000D01*
X158401714Y-49004000D02*
X158544571Y-48861142D01*
X158544571Y-48861142D02*
X158616000Y-48718285D01*
X158616000Y-48718285D02*
X158687428Y-48432571D01*
X158687428Y-48432571D02*
X158687428Y-48218285D01*
X158687428Y-48218285D02*
X158616000Y-47932571D01*
X158616000Y-47932571D02*
X158544571Y-47789714D01*
X158544571Y-47789714D02*
X158401714Y-47646857D01*
X158401714Y-47646857D02*
X158187428Y-47575428D01*
X158187428Y-47575428D02*
X158044571Y-47575428D01*
X158044571Y-47575428D02*
X157830285Y-47646857D01*
X157830285Y-47646857D02*
X157758857Y-47718285D01*
X165830285Y-50505428D02*
X164758857Y-50505428D01*
X165401714Y-49862571D02*
X165830285Y-51791142D01*
X164901714Y-51148285D02*
X165973142Y-51148285D01*
X165330285Y-51791142D02*
X164901714Y-49862571D01*
X164401714Y-50005428D02*
X163401714Y-50005428D01*
X163401714Y-50005428D02*
X164044571Y-51505428D01*
X161830286Y-50005428D02*
X160830286Y-51505428D01*
X160830286Y-50005428D02*
X161830286Y-51505428D01*
X160258858Y-51505428D02*
X160258858Y-50005428D01*
X160258858Y-50005428D02*
X159401715Y-51505428D01*
X159401715Y-51505428D02*
X159401715Y-50005428D01*
X158401714Y-50005428D02*
X158116000Y-50005428D01*
X158116000Y-50005428D02*
X157973143Y-50076857D01*
X157973143Y-50076857D02*
X157830286Y-50219714D01*
X157830286Y-50219714D02*
X157758857Y-50505428D01*
X157758857Y-50505428D02*
X157758857Y-51005428D01*
X157758857Y-51005428D02*
X157830286Y-51291142D01*
X157830286Y-51291142D02*
X157973143Y-51434000D01*
X157973143Y-51434000D02*
X158116000Y-51505428D01*
X158116000Y-51505428D02*
X158401714Y-51505428D01*
X158401714Y-51505428D02*
X158544572Y-51434000D01*
X158544572Y-51434000D02*
X158687429Y-51291142D01*
X158687429Y-51291142D02*
X158758857Y-51005428D01*
X158758857Y-51005428D02*
X158758857Y-50505428D01*
X158758857Y-50505428D02*
X158687429Y-50219714D01*
X158687429Y-50219714D02*
X158544572Y-50076857D01*
X158544572Y-50076857D02*
X158401714Y-50005428D01*
X156258857Y-51505428D02*
X156758857Y-50791142D01*
X157116000Y-51505428D02*
X157116000Y-50005428D01*
X157116000Y-50005428D02*
X156544571Y-50005428D01*
X156544571Y-50005428D02*
X156401714Y-50076857D01*
X156401714Y-50076857D02*
X156330285Y-50148285D01*
X156330285Y-50148285D02*
X156258857Y-50291142D01*
X156258857Y-50291142D02*
X156258857Y-50505428D01*
X156258857Y-50505428D02*
X156330285Y-50648285D01*
X156330285Y-50648285D02*
X156401714Y-50719714D01*
X156401714Y-50719714D02*
X156544571Y-50791142D01*
X156544571Y-50791142D02*
X157116000Y-50791142D01*
X181451285Y-43215428D02*
X180379857Y-43215428D01*
X181022714Y-42572571D02*
X181451285Y-44501142D01*
X180522714Y-43858285D02*
X181594142Y-43858285D01*
X180951285Y-44501142D02*
X180522714Y-42572571D01*
X179594142Y-42715428D02*
X179451285Y-42715428D01*
X179451285Y-42715428D02*
X179308428Y-42786857D01*
X179308428Y-42786857D02*
X179237000Y-42858285D01*
X179237000Y-42858285D02*
X179165571Y-43001142D01*
X179165571Y-43001142D02*
X179094142Y-43286857D01*
X179094142Y-43286857D02*
X179094142Y-43644000D01*
X179094142Y-43644000D02*
X179165571Y-43929714D01*
X179165571Y-43929714D02*
X179237000Y-44072571D01*
X179237000Y-44072571D02*
X179308428Y-44144000D01*
X179308428Y-44144000D02*
X179451285Y-44215428D01*
X179451285Y-44215428D02*
X179594142Y-44215428D01*
X179594142Y-44215428D02*
X179737000Y-44144000D01*
X179737000Y-44144000D02*
X179808428Y-44072571D01*
X179808428Y-44072571D02*
X179879857Y-43929714D01*
X179879857Y-43929714D02*
X179951285Y-43644000D01*
X179951285Y-43644000D02*
X179951285Y-43286857D01*
X179951285Y-43286857D02*
X179879857Y-43001142D01*
X179879857Y-43001142D02*
X179808428Y-42858285D01*
X179808428Y-42858285D02*
X179737000Y-42786857D01*
X179737000Y-42786857D02*
X179594142Y-42715428D01*
X177308429Y-44215428D02*
X177308429Y-42715428D01*
X177308429Y-42715428D02*
X176451286Y-44215428D01*
X176451286Y-44215428D02*
X176451286Y-42715428D01*
X175451285Y-42715428D02*
X175165571Y-42715428D01*
X175165571Y-42715428D02*
X175022714Y-42786857D01*
X175022714Y-42786857D02*
X174879857Y-42929714D01*
X174879857Y-42929714D02*
X174808428Y-43215428D01*
X174808428Y-43215428D02*
X174808428Y-43715428D01*
X174808428Y-43715428D02*
X174879857Y-44001142D01*
X174879857Y-44001142D02*
X175022714Y-44144000D01*
X175022714Y-44144000D02*
X175165571Y-44215428D01*
X175165571Y-44215428D02*
X175451285Y-44215428D01*
X175451285Y-44215428D02*
X175594143Y-44144000D01*
X175594143Y-44144000D02*
X175737000Y-44001142D01*
X175737000Y-44001142D02*
X175808428Y-43715428D01*
X175808428Y-43715428D02*
X175808428Y-43215428D01*
X175808428Y-43215428D02*
X175737000Y-42929714D01*
X175737000Y-42929714D02*
X175594143Y-42786857D01*
X175594143Y-42786857D02*
X175451285Y-42715428D01*
X174165571Y-44215428D02*
X174165571Y-42715428D01*
X174165571Y-42715428D02*
X173594142Y-42715428D01*
X173594142Y-42715428D02*
X173451285Y-42786857D01*
X173451285Y-42786857D02*
X173379856Y-42858285D01*
X173379856Y-42858285D02*
X173308428Y-43001142D01*
X173308428Y-43001142D02*
X173308428Y-43215428D01*
X173308428Y-43215428D02*
X173379856Y-43358285D01*
X173379856Y-43358285D02*
X173451285Y-43429714D01*
X173451285Y-43429714D02*
X173594142Y-43501142D01*
X173594142Y-43501142D02*
X174165571Y-43501142D01*
X172379856Y-42715428D02*
X172094142Y-42715428D01*
X172094142Y-42715428D02*
X171951285Y-42786857D01*
X171951285Y-42786857D02*
X171808428Y-42929714D01*
X171808428Y-42929714D02*
X171736999Y-43215428D01*
X171736999Y-43215428D02*
X171736999Y-43715428D01*
X171736999Y-43715428D02*
X171808428Y-44001142D01*
X171808428Y-44001142D02*
X171951285Y-44144000D01*
X171951285Y-44144000D02*
X172094142Y-44215428D01*
X172094142Y-44215428D02*
X172379856Y-44215428D01*
X172379856Y-44215428D02*
X172522714Y-44144000D01*
X172522714Y-44144000D02*
X172665571Y-44001142D01*
X172665571Y-44001142D02*
X172736999Y-43715428D01*
X172736999Y-43715428D02*
X172736999Y-43215428D01*
X172736999Y-43215428D02*
X172665571Y-42929714D01*
X172665571Y-42929714D02*
X172522714Y-42786857D01*
X172522714Y-42786857D02*
X172379856Y-42715428D01*
X181451285Y-45645428D02*
X180379857Y-45645428D01*
X181022714Y-45002571D02*
X181451285Y-46931142D01*
X180522714Y-46288285D02*
X181594142Y-46288285D01*
X180951285Y-46931142D02*
X180522714Y-45002571D01*
X179094142Y-46645428D02*
X179951285Y-46645428D01*
X179522714Y-46645428D02*
X179522714Y-45145428D01*
X179522714Y-45145428D02*
X179665571Y-45359714D01*
X179665571Y-45359714D02*
X179808428Y-45502571D01*
X179808428Y-45502571D02*
X179951285Y-45574000D01*
X176594143Y-46645428D02*
X177308429Y-46645428D01*
X177308429Y-46645428D02*
X177308429Y-45145428D01*
X176094143Y-46645428D02*
X176094143Y-45145428D01*
X176094143Y-45145428D02*
X175737000Y-45145428D01*
X175737000Y-45145428D02*
X175522714Y-45216857D01*
X175522714Y-45216857D02*
X175379857Y-45359714D01*
X175379857Y-45359714D02*
X175308428Y-45502571D01*
X175308428Y-45502571D02*
X175237000Y-45788285D01*
X175237000Y-45788285D02*
X175237000Y-46002571D01*
X175237000Y-46002571D02*
X175308428Y-46288285D01*
X175308428Y-46288285D02*
X175379857Y-46431142D01*
X175379857Y-46431142D02*
X175522714Y-46574000D01*
X175522714Y-46574000D02*
X175737000Y-46645428D01*
X175737000Y-46645428D02*
X176094143Y-46645428D01*
X181451285Y-48075428D02*
X180379857Y-48075428D01*
X181022714Y-47432571D02*
X181451285Y-49361142D01*
X180522714Y-48718285D02*
X181594142Y-48718285D01*
X180951285Y-49361142D02*
X180522714Y-47432571D01*
X179951285Y-47718285D02*
X179879857Y-47646857D01*
X179879857Y-47646857D02*
X179737000Y-47575428D01*
X179737000Y-47575428D02*
X179379857Y-47575428D01*
X179379857Y-47575428D02*
X179237000Y-47646857D01*
X179237000Y-47646857D02*
X179165571Y-47718285D01*
X179165571Y-47718285D02*
X179094142Y-47861142D01*
X179094142Y-47861142D02*
X179094142Y-48004000D01*
X179094142Y-48004000D02*
X179165571Y-48218285D01*
X179165571Y-48218285D02*
X180022714Y-49075428D01*
X180022714Y-49075428D02*
X179094142Y-49075428D01*
X176594143Y-49075428D02*
X177308429Y-49075428D01*
X177308429Y-49075428D02*
X177308429Y-47575428D01*
X176094143Y-49075428D02*
X176094143Y-47575428D01*
X176094143Y-47575428D02*
X175737000Y-47575428D01*
X175737000Y-47575428D02*
X175522714Y-47646857D01*
X175522714Y-47646857D02*
X175379857Y-47789714D01*
X175379857Y-47789714D02*
X175308428Y-47932571D01*
X175308428Y-47932571D02*
X175237000Y-48218285D01*
X175237000Y-48218285D02*
X175237000Y-48432571D01*
X175237000Y-48432571D02*
X175308428Y-48718285D01*
X175308428Y-48718285D02*
X175379857Y-48861142D01*
X175379857Y-48861142D02*
X175522714Y-49004000D01*
X175522714Y-49004000D02*
X175737000Y-49075428D01*
X175737000Y-49075428D02*
X176094143Y-49075428D01*
X173737000Y-48932571D02*
X173808428Y-49004000D01*
X173808428Y-49004000D02*
X174022714Y-49075428D01*
X174022714Y-49075428D02*
X174165571Y-49075428D01*
X174165571Y-49075428D02*
X174379857Y-49004000D01*
X174379857Y-49004000D02*
X174522714Y-48861142D01*
X174522714Y-48861142D02*
X174594143Y-48718285D01*
X174594143Y-48718285D02*
X174665571Y-48432571D01*
X174665571Y-48432571D02*
X174665571Y-48218285D01*
X174665571Y-48218285D02*
X174594143Y-47932571D01*
X174594143Y-47932571D02*
X174522714Y-47789714D01*
X174522714Y-47789714D02*
X174379857Y-47646857D01*
X174379857Y-47646857D02*
X174165571Y-47575428D01*
X174165571Y-47575428D02*
X174022714Y-47575428D01*
X174022714Y-47575428D02*
X173808428Y-47646857D01*
X173808428Y-47646857D02*
X173737000Y-47718285D01*
X181451285Y-50505428D02*
X180379857Y-50505428D01*
X181022714Y-49862571D02*
X181451285Y-51791142D01*
X180522714Y-51148285D02*
X181594142Y-51148285D01*
X180951285Y-51791142D02*
X180522714Y-49862571D01*
X180022714Y-50005428D02*
X179094142Y-50005428D01*
X179094142Y-50005428D02*
X179594142Y-50576857D01*
X179594142Y-50576857D02*
X179379857Y-50576857D01*
X179379857Y-50576857D02*
X179237000Y-50648285D01*
X179237000Y-50648285D02*
X179165571Y-50719714D01*
X179165571Y-50719714D02*
X179094142Y-50862571D01*
X179094142Y-50862571D02*
X179094142Y-51219714D01*
X179094142Y-51219714D02*
X179165571Y-51362571D01*
X179165571Y-51362571D02*
X179237000Y-51434000D01*
X179237000Y-51434000D02*
X179379857Y-51505428D01*
X179379857Y-51505428D02*
X179808428Y-51505428D01*
X179808428Y-51505428D02*
X179951285Y-51434000D01*
X179951285Y-51434000D02*
X180022714Y-51362571D01*
X177379857Y-51076857D02*
X176665572Y-51076857D01*
X177522714Y-51505428D02*
X177022714Y-50005428D01*
X177022714Y-50005428D02*
X176522714Y-51505428D01*
X176022715Y-51505428D02*
X176022715Y-50005428D01*
X176022715Y-50005428D02*
X175165572Y-51505428D01*
X175165572Y-51505428D02*
X175165572Y-50005428D01*
X174451286Y-51505428D02*
X174451286Y-50005428D01*
X174451286Y-50005428D02*
X174094143Y-50005428D01*
X174094143Y-50005428D02*
X173879857Y-50076857D01*
X173879857Y-50076857D02*
X173737000Y-50219714D01*
X173737000Y-50219714D02*
X173665571Y-50362571D01*
X173665571Y-50362571D02*
X173594143Y-50648285D01*
X173594143Y-50648285D02*
X173594143Y-50862571D01*
X173594143Y-50862571D02*
X173665571Y-51148285D01*
X173665571Y-51148285D02*
X173737000Y-51291142D01*
X173737000Y-51291142D02*
X173879857Y-51434000D01*
X173879857Y-51434000D02*
X174094143Y-51505428D01*
X174094143Y-51505428D02*
X174451286Y-51505428D01*
X99520476Y-104587619D02*
X99853809Y-104111428D01*
X100091904Y-104587619D02*
X100091904Y-103587619D01*
X100091904Y-103587619D02*
X99710952Y-103587619D01*
X99710952Y-103587619D02*
X99615714Y-103635238D01*
X99615714Y-103635238D02*
X99568095Y-103682857D01*
X99568095Y-103682857D02*
X99520476Y-103778095D01*
X99520476Y-103778095D02*
X99520476Y-103920952D01*
X99520476Y-103920952D02*
X99568095Y-104016190D01*
X99568095Y-104016190D02*
X99615714Y-104063809D01*
X99615714Y-104063809D02*
X99710952Y-104111428D01*
X99710952Y-104111428D02*
X100091904Y-104111428D01*
X98901428Y-103587619D02*
X98710952Y-103587619D01*
X98710952Y-103587619D02*
X98615714Y-103635238D01*
X98615714Y-103635238D02*
X98520476Y-103730476D01*
X98520476Y-103730476D02*
X98472857Y-103920952D01*
X98472857Y-103920952D02*
X98472857Y-104254285D01*
X98472857Y-104254285D02*
X98520476Y-104444761D01*
X98520476Y-104444761D02*
X98615714Y-104540000D01*
X98615714Y-104540000D02*
X98710952Y-104587619D01*
X98710952Y-104587619D02*
X98901428Y-104587619D01*
X98901428Y-104587619D02*
X98996666Y-104540000D01*
X98996666Y-104540000D02*
X99091904Y-104444761D01*
X99091904Y-104444761D02*
X99139523Y-104254285D01*
X99139523Y-104254285D02*
X99139523Y-103920952D01*
X99139523Y-103920952D02*
X99091904Y-103730476D01*
X99091904Y-103730476D02*
X98996666Y-103635238D01*
X98996666Y-103635238D02*
X98901428Y-103587619D01*
X98044285Y-104587619D02*
X98044285Y-103587619D01*
X98044285Y-103587619D02*
X97710952Y-104301904D01*
X97710952Y-104301904D02*
X97377619Y-103587619D01*
X97377619Y-103587619D02*
X97377619Y-104587619D01*
X99663333Y-105540952D02*
X99663333Y-106207619D01*
X100091904Y-105540952D02*
X100091904Y-106064761D01*
X100091904Y-106064761D02*
X100044285Y-106160000D01*
X100044285Y-106160000D02*
X99949047Y-106207619D01*
X99949047Y-106207619D02*
X99806190Y-106207619D01*
X99806190Y-106207619D02*
X99710952Y-106160000D01*
X99710952Y-106160000D02*
X99663333Y-106112380D01*
X99187142Y-105540952D02*
X99187142Y-106540952D01*
X99187142Y-105588571D02*
X99091904Y-105540952D01*
X99091904Y-105540952D02*
X98901428Y-105540952D01*
X98901428Y-105540952D02*
X98806190Y-105588571D01*
X98806190Y-105588571D02*
X98758571Y-105636190D01*
X98758571Y-105636190D02*
X98710952Y-105731428D01*
X98710952Y-105731428D02*
X98710952Y-106017142D01*
X98710952Y-106017142D02*
X98758571Y-106112380D01*
X98758571Y-106112380D02*
X98806190Y-106160000D01*
X98806190Y-106160000D02*
X98901428Y-106207619D01*
X98901428Y-106207619D02*
X99091904Y-106207619D01*
X99091904Y-106207619D02*
X99187142Y-106160000D01*
X98282380Y-105540952D02*
X98282380Y-106540952D01*
X98282380Y-105588571D02*
X98187142Y-105540952D01*
X98187142Y-105540952D02*
X97996666Y-105540952D01*
X97996666Y-105540952D02*
X97901428Y-105588571D01*
X97901428Y-105588571D02*
X97853809Y-105636190D01*
X97853809Y-105636190D02*
X97806190Y-105731428D01*
X97806190Y-105731428D02*
X97806190Y-106017142D01*
X97806190Y-106017142D02*
X97853809Y-106112380D01*
X97853809Y-106112380D02*
X97901428Y-106160000D01*
X97901428Y-106160000D02*
X97996666Y-106207619D01*
X97996666Y-106207619D02*
X98187142Y-106207619D01*
X98187142Y-106207619D02*
X98282380Y-106160000D01*
X96996666Y-106160000D02*
X97091904Y-106207619D01*
X97091904Y-106207619D02*
X97282380Y-106207619D01*
X97282380Y-106207619D02*
X97377618Y-106160000D01*
X97377618Y-106160000D02*
X97425237Y-106064761D01*
X97425237Y-106064761D02*
X97425237Y-105683809D01*
X97425237Y-105683809D02*
X97377618Y-105588571D01*
X97377618Y-105588571D02*
X97282380Y-105540952D01*
X97282380Y-105540952D02*
X97091904Y-105540952D01*
X97091904Y-105540952D02*
X96996666Y-105588571D01*
X96996666Y-105588571D02*
X96949047Y-105683809D01*
X96949047Y-105683809D02*
X96949047Y-105779047D01*
X96949047Y-105779047D02*
X97425237Y-105874285D01*
X96520475Y-106207619D02*
X96520475Y-105540952D01*
X96520475Y-105731428D02*
X96472856Y-105636190D01*
X96472856Y-105636190D02*
X96425237Y-105588571D01*
X96425237Y-105588571D02*
X96329999Y-105540952D01*
X96329999Y-105540952D02*
X96234761Y-105540952D01*
X99758571Y-107303809D02*
X100091904Y-107303809D01*
X100091904Y-107827619D02*
X100091904Y-106827619D01*
X100091904Y-106827619D02*
X99615714Y-106827619D01*
X98901428Y-107303809D02*
X99234761Y-107303809D01*
X99234761Y-107827619D02*
X99234761Y-106827619D01*
X99234761Y-106827619D02*
X98758571Y-106827619D01*
X141493904Y-59787619D02*
X141493904Y-58787619D01*
X141493904Y-58787619D02*
X141160571Y-59501904D01*
X141160571Y-59501904D02*
X140827238Y-58787619D01*
X140827238Y-58787619D02*
X140827238Y-59787619D01*
X140351047Y-59263809D02*
X140017714Y-59263809D01*
X139874857Y-59787619D02*
X140351047Y-59787619D01*
X140351047Y-59787619D02*
X140351047Y-58787619D01*
X140351047Y-58787619D02*
X139874857Y-58787619D01*
X139446285Y-59787619D02*
X139446285Y-58787619D01*
X139446285Y-58787619D02*
X139112952Y-59501904D01*
X139112952Y-59501904D02*
X138779619Y-58787619D01*
X138779619Y-58787619D02*
X138779619Y-59787619D01*
X137208190Y-59263809D02*
X137541523Y-59263809D01*
X137541523Y-59787619D02*
X137541523Y-58787619D01*
X137541523Y-58787619D02*
X137065333Y-58787619D01*
X136541523Y-59787619D02*
X136636761Y-59740000D01*
X136636761Y-59740000D02*
X136684380Y-59692380D01*
X136684380Y-59692380D02*
X136731999Y-59597142D01*
X136731999Y-59597142D02*
X136731999Y-59311428D01*
X136731999Y-59311428D02*
X136684380Y-59216190D01*
X136684380Y-59216190D02*
X136636761Y-59168571D01*
X136636761Y-59168571D02*
X136541523Y-59120952D01*
X136541523Y-59120952D02*
X136398666Y-59120952D01*
X136398666Y-59120952D02*
X136303428Y-59168571D01*
X136303428Y-59168571D02*
X136255809Y-59216190D01*
X136255809Y-59216190D02*
X136208190Y-59311428D01*
X136208190Y-59311428D02*
X136208190Y-59597142D01*
X136208190Y-59597142D02*
X136255809Y-59692380D01*
X136255809Y-59692380D02*
X136303428Y-59740000D01*
X136303428Y-59740000D02*
X136398666Y-59787619D01*
X136398666Y-59787619D02*
X136541523Y-59787619D01*
X135779618Y-59787619D02*
X135779618Y-59120952D01*
X135779618Y-59311428D02*
X135731999Y-59216190D01*
X135731999Y-59216190D02*
X135684380Y-59168571D01*
X135684380Y-59168571D02*
X135589142Y-59120952D01*
X135589142Y-59120952D02*
X135493904Y-59120952D01*
X135160570Y-59787619D02*
X135160570Y-59120952D01*
X135160570Y-59216190D02*
X135112951Y-59168571D01*
X135112951Y-59168571D02*
X135017713Y-59120952D01*
X135017713Y-59120952D02*
X134874856Y-59120952D01*
X134874856Y-59120952D02*
X134779618Y-59168571D01*
X134779618Y-59168571D02*
X134731999Y-59263809D01*
X134731999Y-59263809D02*
X134731999Y-59787619D01*
X134731999Y-59263809D02*
X134684380Y-59168571D01*
X134684380Y-59168571D02*
X134589142Y-59120952D01*
X134589142Y-59120952D02*
X134446285Y-59120952D01*
X134446285Y-59120952D02*
X134351046Y-59168571D01*
X134351046Y-59168571D02*
X134303427Y-59263809D01*
X134303427Y-59263809D02*
X134303427Y-59787619D01*
X133398666Y-59787619D02*
X133398666Y-59263809D01*
X133398666Y-59263809D02*
X133446285Y-59168571D01*
X133446285Y-59168571D02*
X133541523Y-59120952D01*
X133541523Y-59120952D02*
X133731999Y-59120952D01*
X133731999Y-59120952D02*
X133827237Y-59168571D01*
X133398666Y-59740000D02*
X133493904Y-59787619D01*
X133493904Y-59787619D02*
X133731999Y-59787619D01*
X133731999Y-59787619D02*
X133827237Y-59740000D01*
X133827237Y-59740000D02*
X133874856Y-59644761D01*
X133874856Y-59644761D02*
X133874856Y-59549523D01*
X133874856Y-59549523D02*
X133827237Y-59454285D01*
X133827237Y-59454285D02*
X133731999Y-59406666D01*
X133731999Y-59406666D02*
X133493904Y-59406666D01*
X133493904Y-59406666D02*
X133398666Y-59359047D01*
X133065332Y-59120952D02*
X132684380Y-59120952D01*
X132922475Y-58787619D02*
X132922475Y-59644761D01*
X132922475Y-59644761D02*
X132874856Y-59740000D01*
X132874856Y-59740000D02*
X132779618Y-59787619D01*
X132779618Y-59787619D02*
X132684380Y-59787619D01*
X140303428Y-60740952D02*
X140303428Y-61407619D01*
X140541523Y-60360000D02*
X140779618Y-61074285D01*
X140779618Y-61074285D02*
X140160571Y-61074285D01*
X139779618Y-61407619D02*
X139779618Y-60407619D01*
X139779618Y-60788571D02*
X139684380Y-60740952D01*
X139684380Y-60740952D02*
X139493904Y-60740952D01*
X139493904Y-60740952D02*
X139398666Y-60788571D01*
X139398666Y-60788571D02*
X139351047Y-60836190D01*
X139351047Y-60836190D02*
X139303428Y-60931428D01*
X139303428Y-60931428D02*
X139303428Y-61217142D01*
X139303428Y-61217142D02*
X139351047Y-61312380D01*
X139351047Y-61312380D02*
X139398666Y-61360000D01*
X139398666Y-61360000D02*
X139493904Y-61407619D01*
X139493904Y-61407619D02*
X139684380Y-61407619D01*
X139684380Y-61407619D02*
X139779618Y-61360000D01*
X138874856Y-61407619D02*
X138874856Y-60740952D01*
X138874856Y-60407619D02*
X138922475Y-60455238D01*
X138922475Y-60455238D02*
X138874856Y-60502857D01*
X138874856Y-60502857D02*
X138827237Y-60455238D01*
X138827237Y-60455238D02*
X138874856Y-60407619D01*
X138874856Y-60407619D02*
X138874856Y-60502857D01*
X138541523Y-60740952D02*
X138160571Y-60740952D01*
X138398666Y-60407619D02*
X138398666Y-61264761D01*
X138398666Y-61264761D02*
X138351047Y-61360000D01*
X138351047Y-61360000D02*
X138255809Y-61407619D01*
X138255809Y-61407619D02*
X138160571Y-61407619D01*
X137874856Y-61360000D02*
X137779618Y-61407619D01*
X137779618Y-61407619D02*
X137589142Y-61407619D01*
X137589142Y-61407619D02*
X137493904Y-61360000D01*
X137493904Y-61360000D02*
X137446285Y-61264761D01*
X137446285Y-61264761D02*
X137446285Y-61217142D01*
X137446285Y-61217142D02*
X137493904Y-61121904D01*
X137493904Y-61121904D02*
X137589142Y-61074285D01*
X137589142Y-61074285D02*
X137731999Y-61074285D01*
X137731999Y-61074285D02*
X137827237Y-61026666D01*
X137827237Y-61026666D02*
X137874856Y-60931428D01*
X137874856Y-60931428D02*
X137874856Y-60883809D01*
X137874856Y-60883809D02*
X137827237Y-60788571D01*
X137827237Y-60788571D02*
X137731999Y-60740952D01*
X137731999Y-60740952D02*
X137589142Y-60740952D01*
X137589142Y-60740952D02*
X137493904Y-60788571D01*
X133541522Y-60740952D02*
X133541522Y-61407619D01*
X133779617Y-60360000D02*
X134017712Y-61074285D01*
X134017712Y-61074285D02*
X133398665Y-61074285D01*
X133017712Y-61407619D02*
X133017712Y-60407619D01*
X133017712Y-60788571D02*
X132922474Y-60740952D01*
X132922474Y-60740952D02*
X132731998Y-60740952D01*
X132731998Y-60740952D02*
X132636760Y-60788571D01*
X132636760Y-60788571D02*
X132589141Y-60836190D01*
X132589141Y-60836190D02*
X132541522Y-60931428D01*
X132541522Y-60931428D02*
X132541522Y-61217142D01*
X132541522Y-61217142D02*
X132589141Y-61312380D01*
X132589141Y-61312380D02*
X132636760Y-61360000D01*
X132636760Y-61360000D02*
X132731998Y-61407619D01*
X132731998Y-61407619D02*
X132922474Y-61407619D01*
X132922474Y-61407619D02*
X133017712Y-61360000D01*
X132112950Y-61407619D02*
X132112950Y-60740952D01*
X132112950Y-60407619D02*
X132160569Y-60455238D01*
X132160569Y-60455238D02*
X132112950Y-60502857D01*
X132112950Y-60502857D02*
X132065331Y-60455238D01*
X132065331Y-60455238D02*
X132112950Y-60407619D01*
X132112950Y-60407619D02*
X132112950Y-60502857D01*
X131779617Y-60740952D02*
X131398665Y-60740952D01*
X131636760Y-60407619D02*
X131636760Y-61264761D01*
X131636760Y-61264761D02*
X131589141Y-61360000D01*
X131589141Y-61360000D02*
X131493903Y-61407619D01*
X131493903Y-61407619D02*
X131398665Y-61407619D01*
X131112950Y-61360000D02*
X131017712Y-61407619D01*
X131017712Y-61407619D02*
X130827236Y-61407619D01*
X130827236Y-61407619D02*
X130731998Y-61360000D01*
X130731998Y-61360000D02*
X130684379Y-61264761D01*
X130684379Y-61264761D02*
X130684379Y-61217142D01*
X130684379Y-61217142D02*
X130731998Y-61121904D01*
X130731998Y-61121904D02*
X130827236Y-61074285D01*
X130827236Y-61074285D02*
X130970093Y-61074285D01*
X130970093Y-61074285D02*
X131065331Y-61026666D01*
X131065331Y-61026666D02*
X131112950Y-60931428D01*
X131112950Y-60931428D02*
X131112950Y-60883809D01*
X131112950Y-60883809D02*
X131065331Y-60788571D01*
X131065331Y-60788571D02*
X130970093Y-60740952D01*
X130970093Y-60740952D02*
X130827236Y-60740952D01*
X130827236Y-60740952D02*
X130731998Y-60788571D01*
X141589142Y-62027619D02*
X140922476Y-62027619D01*
X140922476Y-62027619D02*
X141351047Y-63027619D01*
X139351047Y-62027619D02*
X139541523Y-62027619D01*
X139541523Y-62027619D02*
X139636761Y-62075238D01*
X139636761Y-62075238D02*
X139684380Y-62122857D01*
X139684380Y-62122857D02*
X139779618Y-62265714D01*
X139779618Y-62265714D02*
X139827237Y-62456190D01*
X139827237Y-62456190D02*
X139827237Y-62837142D01*
X139827237Y-62837142D02*
X139779618Y-62932380D01*
X139779618Y-62932380D02*
X139731999Y-62980000D01*
X139731999Y-62980000D02*
X139636761Y-63027619D01*
X139636761Y-63027619D02*
X139446285Y-63027619D01*
X139446285Y-63027619D02*
X139351047Y-62980000D01*
X139351047Y-62980000D02*
X139303428Y-62932380D01*
X139303428Y-62932380D02*
X139255809Y-62837142D01*
X139255809Y-62837142D02*
X139255809Y-62599047D01*
X139255809Y-62599047D02*
X139303428Y-62503809D01*
X139303428Y-62503809D02*
X139351047Y-62456190D01*
X139351047Y-62456190D02*
X139446285Y-62408571D01*
X139446285Y-62408571D02*
X139636761Y-62408571D01*
X139636761Y-62408571D02*
X139731999Y-62456190D01*
X139731999Y-62456190D02*
X139779618Y-62503809D01*
X139779618Y-62503809D02*
X139827237Y-62599047D01*
X137589142Y-62027619D02*
X138065332Y-62027619D01*
X138065332Y-62027619D02*
X138112951Y-62503809D01*
X138112951Y-62503809D02*
X138065332Y-62456190D01*
X138065332Y-62456190D02*
X137970094Y-62408571D01*
X137970094Y-62408571D02*
X137731999Y-62408571D01*
X137731999Y-62408571D02*
X137636761Y-62456190D01*
X137636761Y-62456190D02*
X137589142Y-62503809D01*
X137589142Y-62503809D02*
X137541523Y-62599047D01*
X137541523Y-62599047D02*
X137541523Y-62837142D01*
X137541523Y-62837142D02*
X137589142Y-62932380D01*
X137589142Y-62932380D02*
X137636761Y-62980000D01*
X137636761Y-62980000D02*
X137731999Y-63027619D01*
X137731999Y-63027619D02*
X137970094Y-63027619D01*
X137970094Y-63027619D02*
X138065332Y-62980000D01*
X138065332Y-62980000D02*
X138112951Y-62932380D01*
X135922475Y-62360952D02*
X135922475Y-63027619D01*
X136160570Y-61980000D02*
X136398665Y-62694285D01*
X136398665Y-62694285D02*
X135779618Y-62694285D01*
X134731998Y-62027619D02*
X134112951Y-62027619D01*
X134112951Y-62027619D02*
X134446284Y-62408571D01*
X134446284Y-62408571D02*
X134303427Y-62408571D01*
X134303427Y-62408571D02*
X134208189Y-62456190D01*
X134208189Y-62456190D02*
X134160570Y-62503809D01*
X134160570Y-62503809D02*
X134112951Y-62599047D01*
X134112951Y-62599047D02*
X134112951Y-62837142D01*
X134112951Y-62837142D02*
X134160570Y-62932380D01*
X134160570Y-62932380D02*
X134208189Y-62980000D01*
X134208189Y-62980000D02*
X134303427Y-63027619D01*
X134303427Y-63027619D02*
X134589141Y-63027619D01*
X134589141Y-63027619D02*
X134684379Y-62980000D01*
X134684379Y-62980000D02*
X134731998Y-62932380D01*
X132970093Y-62122857D02*
X132922474Y-62075238D01*
X132922474Y-62075238D02*
X132827236Y-62027619D01*
X132827236Y-62027619D02*
X132589141Y-62027619D01*
X132589141Y-62027619D02*
X132493903Y-62075238D01*
X132493903Y-62075238D02*
X132446284Y-62122857D01*
X132446284Y-62122857D02*
X132398665Y-62218095D01*
X132398665Y-62218095D02*
X132398665Y-62313333D01*
X132398665Y-62313333D02*
X132446284Y-62456190D01*
X132446284Y-62456190D02*
X133017712Y-63027619D01*
X133017712Y-63027619D02*
X132398665Y-63027619D01*
X130684379Y-63027619D02*
X131255807Y-63027619D01*
X130970093Y-63027619D02*
X130970093Y-62027619D01*
X130970093Y-62027619D02*
X131065331Y-62170476D01*
X131065331Y-62170476D02*
X131160569Y-62265714D01*
X131160569Y-62265714D02*
X131255807Y-62313333D01*
X129303426Y-62027619D02*
X129208188Y-62027619D01*
X129208188Y-62027619D02*
X129112950Y-62075238D01*
X129112950Y-62075238D02*
X129065331Y-62122857D01*
X129065331Y-62122857D02*
X129017712Y-62218095D01*
X129017712Y-62218095D02*
X128970093Y-62408571D01*
X128970093Y-62408571D02*
X128970093Y-62646666D01*
X128970093Y-62646666D02*
X129017712Y-62837142D01*
X129017712Y-62837142D02*
X129065331Y-62932380D01*
X129065331Y-62932380D02*
X129112950Y-62980000D01*
X129112950Y-62980000D02*
X129208188Y-63027619D01*
X129208188Y-63027619D02*
X129303426Y-63027619D01*
X129303426Y-63027619D02*
X129398664Y-62980000D01*
X129398664Y-62980000D02*
X129446283Y-62932380D01*
X129446283Y-62932380D02*
X129493902Y-62837142D01*
X129493902Y-62837142D02*
X129541521Y-62646666D01*
X129541521Y-62646666D02*
X129541521Y-62408571D01*
X129541521Y-62408571D02*
X129493902Y-62218095D01*
X129493902Y-62218095D02*
X129446283Y-62122857D01*
X129446283Y-62122857D02*
X129398664Y-62075238D01*
X129398664Y-62075238D02*
X129303426Y-62027619D01*
X141303428Y-63647619D02*
X141112952Y-63647619D01*
X141112952Y-63647619D02*
X141017714Y-63695238D01*
X141017714Y-63695238D02*
X140922476Y-63790476D01*
X140922476Y-63790476D02*
X140874857Y-63980952D01*
X140874857Y-63980952D02*
X140874857Y-64314285D01*
X140874857Y-64314285D02*
X140922476Y-64504761D01*
X140922476Y-64504761D02*
X141017714Y-64600000D01*
X141017714Y-64600000D02*
X141112952Y-64647619D01*
X141112952Y-64647619D02*
X141303428Y-64647619D01*
X141303428Y-64647619D02*
X141398666Y-64600000D01*
X141398666Y-64600000D02*
X141493904Y-64504761D01*
X141493904Y-64504761D02*
X141541523Y-64314285D01*
X141541523Y-64314285D02*
X141541523Y-63980952D01*
X141541523Y-63980952D02*
X141493904Y-63790476D01*
X141493904Y-63790476D02*
X141398666Y-63695238D01*
X141398666Y-63695238D02*
X141303428Y-63647619D01*
X140446285Y-64647619D02*
X140446285Y-63647619D01*
X140446285Y-63647619D02*
X140065333Y-63647619D01*
X140065333Y-63647619D02*
X139970095Y-63695238D01*
X139970095Y-63695238D02*
X139922476Y-63742857D01*
X139922476Y-63742857D02*
X139874857Y-63838095D01*
X139874857Y-63838095D02*
X139874857Y-63980952D01*
X139874857Y-63980952D02*
X139922476Y-64076190D01*
X139922476Y-64076190D02*
X139970095Y-64123809D01*
X139970095Y-64123809D02*
X140065333Y-64171428D01*
X140065333Y-64171428D02*
X140446285Y-64171428D01*
X138112952Y-64552380D02*
X138160571Y-64600000D01*
X138160571Y-64600000D02*
X138303428Y-64647619D01*
X138303428Y-64647619D02*
X138398666Y-64647619D01*
X138398666Y-64647619D02*
X138541523Y-64600000D01*
X138541523Y-64600000D02*
X138636761Y-64504761D01*
X138636761Y-64504761D02*
X138684380Y-64409523D01*
X138684380Y-64409523D02*
X138731999Y-64219047D01*
X138731999Y-64219047D02*
X138731999Y-64076190D01*
X138731999Y-64076190D02*
X138684380Y-63885714D01*
X138684380Y-63885714D02*
X138636761Y-63790476D01*
X138636761Y-63790476D02*
X138541523Y-63695238D01*
X138541523Y-63695238D02*
X138398666Y-63647619D01*
X138398666Y-63647619D02*
X138303428Y-63647619D01*
X138303428Y-63647619D02*
X138160571Y-63695238D01*
X138160571Y-63695238D02*
X138112952Y-63742857D01*
X137541523Y-64647619D02*
X137636761Y-64600000D01*
X137636761Y-64600000D02*
X137684380Y-64552380D01*
X137684380Y-64552380D02*
X137731999Y-64457142D01*
X137731999Y-64457142D02*
X137731999Y-64171428D01*
X137731999Y-64171428D02*
X137684380Y-64076190D01*
X137684380Y-64076190D02*
X137636761Y-64028571D01*
X137636761Y-64028571D02*
X137541523Y-63980952D01*
X137541523Y-63980952D02*
X137398666Y-63980952D01*
X137398666Y-63980952D02*
X137303428Y-64028571D01*
X137303428Y-64028571D02*
X137255809Y-64076190D01*
X137255809Y-64076190D02*
X137208190Y-64171428D01*
X137208190Y-64171428D02*
X137208190Y-64457142D01*
X137208190Y-64457142D02*
X137255809Y-64552380D01*
X137255809Y-64552380D02*
X137303428Y-64600000D01*
X137303428Y-64600000D02*
X137398666Y-64647619D01*
X137398666Y-64647619D02*
X137541523Y-64647619D01*
X136351047Y-64647619D02*
X136351047Y-63647619D01*
X136351047Y-64600000D02*
X136446285Y-64647619D01*
X136446285Y-64647619D02*
X136636761Y-64647619D01*
X136636761Y-64647619D02*
X136731999Y-64600000D01*
X136731999Y-64600000D02*
X136779618Y-64552380D01*
X136779618Y-64552380D02*
X136827237Y-64457142D01*
X136827237Y-64457142D02*
X136827237Y-64171428D01*
X136827237Y-64171428D02*
X136779618Y-64076190D01*
X136779618Y-64076190D02*
X136731999Y-64028571D01*
X136731999Y-64028571D02*
X136636761Y-63980952D01*
X136636761Y-63980952D02*
X136446285Y-63980952D01*
X136446285Y-63980952D02*
X136351047Y-64028571D01*
X135493904Y-64600000D02*
X135589142Y-64647619D01*
X135589142Y-64647619D02*
X135779618Y-64647619D01*
X135779618Y-64647619D02*
X135874856Y-64600000D01*
X135874856Y-64600000D02*
X135922475Y-64504761D01*
X135922475Y-64504761D02*
X135922475Y-64123809D01*
X135922475Y-64123809D02*
X135874856Y-64028571D01*
X135874856Y-64028571D02*
X135779618Y-63980952D01*
X135779618Y-63980952D02*
X135589142Y-63980952D01*
X135589142Y-63980952D02*
X135493904Y-64028571D01*
X135493904Y-64028571D02*
X135446285Y-64123809D01*
X135446285Y-64123809D02*
X135446285Y-64219047D01*
X135446285Y-64219047D02*
X135922475Y-64314285D01*
X134255808Y-64647619D02*
X134255808Y-63647619D01*
X133065333Y-63600000D02*
X133922475Y-64885714D01*
X132541523Y-63647619D02*
X132351047Y-63647619D01*
X132351047Y-63647619D02*
X132255809Y-63695238D01*
X132255809Y-63695238D02*
X132160571Y-63790476D01*
X132160571Y-63790476D02*
X132112952Y-63980952D01*
X132112952Y-63980952D02*
X132112952Y-64314285D01*
X132112952Y-64314285D02*
X132160571Y-64504761D01*
X132160571Y-64504761D02*
X132255809Y-64600000D01*
X132255809Y-64600000D02*
X132351047Y-64647619D01*
X132351047Y-64647619D02*
X132541523Y-64647619D01*
X132541523Y-64647619D02*
X132636761Y-64600000D01*
X132636761Y-64600000D02*
X132731999Y-64504761D01*
X132731999Y-64504761D02*
X132779618Y-64314285D01*
X132779618Y-64314285D02*
X132779618Y-63980952D01*
X132779618Y-63980952D02*
X132731999Y-63790476D01*
X132731999Y-63790476D02*
X132636761Y-63695238D01*
X132636761Y-63695238D02*
X132541523Y-63647619D01*
X130970094Y-64361904D02*
X130493904Y-64361904D01*
X131065332Y-64647619D02*
X130731999Y-63647619D01*
X130731999Y-63647619D02*
X130398666Y-64647619D01*
X129636761Y-64647619D02*
X129636761Y-63647619D01*
X129636761Y-64600000D02*
X129731999Y-64647619D01*
X129731999Y-64647619D02*
X129922475Y-64647619D01*
X129922475Y-64647619D02*
X130017713Y-64600000D01*
X130017713Y-64600000D02*
X130065332Y-64552380D01*
X130065332Y-64552380D02*
X130112951Y-64457142D01*
X130112951Y-64457142D02*
X130112951Y-64171428D01*
X130112951Y-64171428D02*
X130065332Y-64076190D01*
X130065332Y-64076190D02*
X130017713Y-64028571D01*
X130017713Y-64028571D02*
X129922475Y-63980952D01*
X129922475Y-63980952D02*
X129731999Y-63980952D01*
X129731999Y-63980952D02*
X129636761Y-64028571D01*
X129160570Y-64647619D02*
X129160570Y-63980952D01*
X129160570Y-64171428D02*
X129112951Y-64076190D01*
X129112951Y-64076190D02*
X129065332Y-64028571D01*
X129065332Y-64028571D02*
X128970094Y-63980952D01*
X128970094Y-63980952D02*
X128874856Y-63980952D01*
X181832285Y-126654428D02*
X180760857Y-126654428D01*
X181403714Y-126011571D02*
X181832285Y-127940142D01*
X180903714Y-127297285D02*
X181975142Y-127297285D01*
X181332285Y-127940142D02*
X180903714Y-126011571D01*
X180046571Y-126797285D02*
X180189428Y-126725857D01*
X180189428Y-126725857D02*
X180260857Y-126654428D01*
X180260857Y-126654428D02*
X180332285Y-126511571D01*
X180332285Y-126511571D02*
X180332285Y-126440142D01*
X180332285Y-126440142D02*
X180260857Y-126297285D01*
X180260857Y-126297285D02*
X180189428Y-126225857D01*
X180189428Y-126225857D02*
X180046571Y-126154428D01*
X180046571Y-126154428D02*
X179760857Y-126154428D01*
X179760857Y-126154428D02*
X179618000Y-126225857D01*
X179618000Y-126225857D02*
X179546571Y-126297285D01*
X179546571Y-126297285D02*
X179475142Y-126440142D01*
X179475142Y-126440142D02*
X179475142Y-126511571D01*
X179475142Y-126511571D02*
X179546571Y-126654428D01*
X179546571Y-126654428D02*
X179618000Y-126725857D01*
X179618000Y-126725857D02*
X179760857Y-126797285D01*
X179760857Y-126797285D02*
X180046571Y-126797285D01*
X180046571Y-126797285D02*
X180189428Y-126868714D01*
X180189428Y-126868714D02*
X180260857Y-126940142D01*
X180260857Y-126940142D02*
X180332285Y-127083000D01*
X180332285Y-127083000D02*
X180332285Y-127368714D01*
X180332285Y-127368714D02*
X180260857Y-127511571D01*
X180260857Y-127511571D02*
X180189428Y-127583000D01*
X180189428Y-127583000D02*
X180046571Y-127654428D01*
X180046571Y-127654428D02*
X179760857Y-127654428D01*
X179760857Y-127654428D02*
X179618000Y-127583000D01*
X179618000Y-127583000D02*
X179546571Y-127511571D01*
X179546571Y-127511571D02*
X179475142Y-127368714D01*
X179475142Y-127368714D02*
X179475142Y-127083000D01*
X179475142Y-127083000D02*
X179546571Y-126940142D01*
X179546571Y-126940142D02*
X179618000Y-126868714D01*
X179618000Y-126868714D02*
X179760857Y-126797285D01*
X177760857Y-127583000D02*
X177546572Y-127654428D01*
X177546572Y-127654428D02*
X177189429Y-127654428D01*
X177189429Y-127654428D02*
X177046572Y-127583000D01*
X177046572Y-127583000D02*
X176975143Y-127511571D01*
X176975143Y-127511571D02*
X176903714Y-127368714D01*
X176903714Y-127368714D02*
X176903714Y-127225857D01*
X176903714Y-127225857D02*
X176975143Y-127083000D01*
X176975143Y-127083000D02*
X177046572Y-127011571D01*
X177046572Y-127011571D02*
X177189429Y-126940142D01*
X177189429Y-126940142D02*
X177475143Y-126868714D01*
X177475143Y-126868714D02*
X177618000Y-126797285D01*
X177618000Y-126797285D02*
X177689429Y-126725857D01*
X177689429Y-126725857D02*
X177760857Y-126583000D01*
X177760857Y-126583000D02*
X177760857Y-126440142D01*
X177760857Y-126440142D02*
X177689429Y-126297285D01*
X177689429Y-126297285D02*
X177618000Y-126225857D01*
X177618000Y-126225857D02*
X177475143Y-126154428D01*
X177475143Y-126154428D02*
X177118000Y-126154428D01*
X177118000Y-126154428D02*
X176903714Y-126225857D01*
X176475143Y-126154428D02*
X175618001Y-126154428D01*
X176046572Y-127654428D02*
X176046572Y-126154428D01*
X174832286Y-126154428D02*
X174546572Y-126154428D01*
X174546572Y-126154428D02*
X174403715Y-126225857D01*
X174403715Y-126225857D02*
X174260858Y-126368714D01*
X174260858Y-126368714D02*
X174189429Y-126654428D01*
X174189429Y-126654428D02*
X174189429Y-127154428D01*
X174189429Y-127154428D02*
X174260858Y-127440142D01*
X174260858Y-127440142D02*
X174403715Y-127583000D01*
X174403715Y-127583000D02*
X174546572Y-127654428D01*
X174546572Y-127654428D02*
X174832286Y-127654428D01*
X174832286Y-127654428D02*
X174975144Y-127583000D01*
X174975144Y-127583000D02*
X175118001Y-127440142D01*
X175118001Y-127440142D02*
X175189429Y-127154428D01*
X175189429Y-127154428D02*
X175189429Y-126654428D01*
X175189429Y-126654428D02*
X175118001Y-126368714D01*
X175118001Y-126368714D02*
X174975144Y-126225857D01*
X174975144Y-126225857D02*
X174832286Y-126154428D01*
X181832285Y-129084428D02*
X180760857Y-129084428D01*
X181403714Y-128441571D02*
X181832285Y-130370142D01*
X180903714Y-129727285D02*
X181975142Y-129727285D01*
X181332285Y-130370142D02*
X180903714Y-128441571D01*
X180189428Y-130084428D02*
X179903714Y-130084428D01*
X179903714Y-130084428D02*
X179760857Y-130013000D01*
X179760857Y-130013000D02*
X179689428Y-129941571D01*
X179689428Y-129941571D02*
X179546571Y-129727285D01*
X179546571Y-129727285D02*
X179475142Y-129441571D01*
X179475142Y-129441571D02*
X179475142Y-128870142D01*
X179475142Y-128870142D02*
X179546571Y-128727285D01*
X179546571Y-128727285D02*
X179618000Y-128655857D01*
X179618000Y-128655857D02*
X179760857Y-128584428D01*
X179760857Y-128584428D02*
X180046571Y-128584428D01*
X180046571Y-128584428D02*
X180189428Y-128655857D01*
X180189428Y-128655857D02*
X180260857Y-128727285D01*
X180260857Y-128727285D02*
X180332285Y-128870142D01*
X180332285Y-128870142D02*
X180332285Y-129227285D01*
X180332285Y-129227285D02*
X180260857Y-129370142D01*
X180260857Y-129370142D02*
X180189428Y-129441571D01*
X180189428Y-129441571D02*
X180046571Y-129513000D01*
X180046571Y-129513000D02*
X179760857Y-129513000D01*
X179760857Y-129513000D02*
X179618000Y-129441571D01*
X179618000Y-129441571D02*
X179546571Y-129370142D01*
X179546571Y-129370142D02*
X179475142Y-129227285D01*
X177760857Y-130013000D02*
X177546572Y-130084428D01*
X177546572Y-130084428D02*
X177189429Y-130084428D01*
X177189429Y-130084428D02*
X177046572Y-130013000D01*
X177046572Y-130013000D02*
X176975143Y-129941571D01*
X176975143Y-129941571D02*
X176903714Y-129798714D01*
X176903714Y-129798714D02*
X176903714Y-129655857D01*
X176903714Y-129655857D02*
X176975143Y-129513000D01*
X176975143Y-129513000D02*
X177046572Y-129441571D01*
X177046572Y-129441571D02*
X177189429Y-129370142D01*
X177189429Y-129370142D02*
X177475143Y-129298714D01*
X177475143Y-129298714D02*
X177618000Y-129227285D01*
X177618000Y-129227285D02*
X177689429Y-129155857D01*
X177689429Y-129155857D02*
X177760857Y-129013000D01*
X177760857Y-129013000D02*
X177760857Y-128870142D01*
X177760857Y-128870142D02*
X177689429Y-128727285D01*
X177689429Y-128727285D02*
X177618000Y-128655857D01*
X177618000Y-128655857D02*
X177475143Y-128584428D01*
X177475143Y-128584428D02*
X177118000Y-128584428D01*
X177118000Y-128584428D02*
X176903714Y-128655857D01*
X176475143Y-128584428D02*
X175618001Y-128584428D01*
X176046572Y-130084428D02*
X176046572Y-128584428D01*
X174832286Y-128584428D02*
X174546572Y-128584428D01*
X174546572Y-128584428D02*
X174403715Y-128655857D01*
X174403715Y-128655857D02*
X174260858Y-128798714D01*
X174260858Y-128798714D02*
X174189429Y-129084428D01*
X174189429Y-129084428D02*
X174189429Y-129584428D01*
X174189429Y-129584428D02*
X174260858Y-129870142D01*
X174260858Y-129870142D02*
X174403715Y-130013000D01*
X174403715Y-130013000D02*
X174546572Y-130084428D01*
X174546572Y-130084428D02*
X174832286Y-130084428D01*
X174832286Y-130084428D02*
X174975144Y-130013000D01*
X174975144Y-130013000D02*
X175118001Y-129870142D01*
X175118001Y-129870142D02*
X175189429Y-129584428D01*
X175189429Y-129584428D02*
X175189429Y-129084428D01*
X175189429Y-129084428D02*
X175118001Y-128798714D01*
X175118001Y-128798714D02*
X174975144Y-128655857D01*
X174975144Y-128655857D02*
X174832286Y-128584428D01*
X172689429Y-129941571D02*
X172760857Y-130013000D01*
X172760857Y-130013000D02*
X172975143Y-130084428D01*
X172975143Y-130084428D02*
X173118000Y-130084428D01*
X173118000Y-130084428D02*
X173332286Y-130013000D01*
X173332286Y-130013000D02*
X173475143Y-129870142D01*
X173475143Y-129870142D02*
X173546572Y-129727285D01*
X173546572Y-129727285D02*
X173618000Y-129441571D01*
X173618000Y-129441571D02*
X173618000Y-129227285D01*
X173618000Y-129227285D02*
X173546572Y-128941571D01*
X173546572Y-128941571D02*
X173475143Y-128798714D01*
X173475143Y-128798714D02*
X173332286Y-128655857D01*
X173332286Y-128655857D02*
X173118000Y-128584428D01*
X173118000Y-128584428D02*
X172975143Y-128584428D01*
X172975143Y-128584428D02*
X172760857Y-128655857D01*
X172760857Y-128655857D02*
X172689429Y-128727285D01*
X181832285Y-131514428D02*
X180760857Y-131514428D01*
X181403714Y-130871571D02*
X181832285Y-132800142D01*
X180903714Y-132157285D02*
X181975142Y-132157285D01*
X181332285Y-132800142D02*
X180903714Y-130871571D01*
X180332285Y-132085857D02*
X179618000Y-132085857D01*
X180475142Y-132514428D02*
X179975142Y-131014428D01*
X179975142Y-131014428D02*
X179475142Y-132514428D01*
X177832286Y-132514428D02*
X177832286Y-131014428D01*
X177118000Y-131728714D02*
X176618000Y-131728714D01*
X176403714Y-132514428D02*
X177118000Y-132514428D01*
X177118000Y-132514428D02*
X177118000Y-131014428D01*
X177118000Y-131014428D02*
X176403714Y-131014428D01*
X175760857Y-132514428D02*
X175760857Y-131014428D01*
X175760857Y-131014428D02*
X174903714Y-132514428D01*
X174903714Y-132514428D02*
X174903714Y-131014428D01*
X181832285Y-133944428D02*
X180760857Y-133944428D01*
X181403714Y-133301571D02*
X181832285Y-135230142D01*
X180903714Y-134587285D02*
X181975142Y-134587285D01*
X181332285Y-135230142D02*
X180903714Y-133301571D01*
X179760857Y-134158714D02*
X179546571Y-134230142D01*
X179546571Y-134230142D02*
X179475142Y-134301571D01*
X179475142Y-134301571D02*
X179403714Y-134444428D01*
X179403714Y-134444428D02*
X179403714Y-134658714D01*
X179403714Y-134658714D02*
X179475142Y-134801571D01*
X179475142Y-134801571D02*
X179546571Y-134873000D01*
X179546571Y-134873000D02*
X179689428Y-134944428D01*
X179689428Y-134944428D02*
X180260857Y-134944428D01*
X180260857Y-134944428D02*
X180260857Y-133444428D01*
X180260857Y-133444428D02*
X179760857Y-133444428D01*
X179760857Y-133444428D02*
X179618000Y-133515857D01*
X179618000Y-133515857D02*
X179546571Y-133587285D01*
X179546571Y-133587285D02*
X179475142Y-133730142D01*
X179475142Y-133730142D02*
X179475142Y-133873000D01*
X179475142Y-133873000D02*
X179546571Y-134015857D01*
X179546571Y-134015857D02*
X179618000Y-134087285D01*
X179618000Y-134087285D02*
X179760857Y-134158714D01*
X179760857Y-134158714D02*
X180260857Y-134158714D01*
X177332285Y-133444428D02*
X177046571Y-133444428D01*
X177046571Y-133444428D02*
X176903714Y-133515857D01*
X176903714Y-133515857D02*
X176760857Y-133658714D01*
X176760857Y-133658714D02*
X176689428Y-133944428D01*
X176689428Y-133944428D02*
X176689428Y-134444428D01*
X176689428Y-134444428D02*
X176760857Y-134730142D01*
X176760857Y-134730142D02*
X176903714Y-134873000D01*
X176903714Y-134873000D02*
X177046571Y-134944428D01*
X177046571Y-134944428D02*
X177332285Y-134944428D01*
X177332285Y-134944428D02*
X177475143Y-134873000D01*
X177475143Y-134873000D02*
X177618000Y-134730142D01*
X177618000Y-134730142D02*
X177689428Y-134444428D01*
X177689428Y-134444428D02*
X177689428Y-133944428D01*
X177689428Y-133944428D02*
X177618000Y-133658714D01*
X177618000Y-133658714D02*
X177475143Y-133515857D01*
X177475143Y-133515857D02*
X177332285Y-133444428D01*
X176046571Y-134158714D02*
X175546571Y-134158714D01*
X175332285Y-134944428D02*
X176046571Y-134944428D01*
X176046571Y-134944428D02*
X176046571Y-133444428D01*
X176046571Y-133444428D02*
X175332285Y-133444428D01*
X174689428Y-134944428D02*
X174689428Y-133444428D01*
X174689428Y-133444428D02*
X173832285Y-134944428D01*
X173832285Y-134944428D02*
X173832285Y-133444428D01*
X188579142Y-82059619D02*
X188341047Y-83059619D01*
X188341047Y-83059619D02*
X188150571Y-82345333D01*
X188150571Y-82345333D02*
X187960095Y-83059619D01*
X187960095Y-83059619D02*
X187722000Y-82059619D01*
X186626761Y-82773904D02*
X186150571Y-82773904D01*
X186721999Y-83059619D02*
X186388666Y-82059619D01*
X186388666Y-82059619D02*
X186055333Y-83059619D01*
X185721999Y-83059619D02*
X185721999Y-82059619D01*
X185721999Y-82059619D02*
X185483904Y-82059619D01*
X185483904Y-82059619D02*
X185341047Y-82107238D01*
X185341047Y-82107238D02*
X185245809Y-82202476D01*
X185245809Y-82202476D02*
X185198190Y-82297714D01*
X185198190Y-82297714D02*
X185150571Y-82488190D01*
X185150571Y-82488190D02*
X185150571Y-82631047D01*
X185150571Y-82631047D02*
X185198190Y-82821523D01*
X185198190Y-82821523D02*
X185245809Y-82916761D01*
X185245809Y-82916761D02*
X185341047Y-83012000D01*
X185341047Y-83012000D02*
X185483904Y-83059619D01*
X185483904Y-83059619D02*
X185721999Y-83059619D01*
X184150571Y-83059619D02*
X184483904Y-82583428D01*
X184721999Y-83059619D02*
X184721999Y-82059619D01*
X184721999Y-82059619D02*
X184341047Y-82059619D01*
X184341047Y-82059619D02*
X184245809Y-82107238D01*
X184245809Y-82107238D02*
X184198190Y-82154857D01*
X184198190Y-82154857D02*
X184150571Y-82250095D01*
X184150571Y-82250095D02*
X184150571Y-82392952D01*
X184150571Y-82392952D02*
X184198190Y-82488190D01*
X184198190Y-82488190D02*
X184245809Y-82535809D01*
X184245809Y-82535809D02*
X184341047Y-82583428D01*
X184341047Y-82583428D02*
X184721999Y-82583428D01*
X182960094Y-83059619D02*
X182960094Y-82059619D01*
X181769619Y-82012000D02*
X182626761Y-83297714D01*
X181245809Y-82059619D02*
X181055333Y-82059619D01*
X181055333Y-82059619D02*
X180960095Y-82107238D01*
X180960095Y-82107238D02*
X180864857Y-82202476D01*
X180864857Y-82202476D02*
X180817238Y-82392952D01*
X180817238Y-82392952D02*
X180817238Y-82726285D01*
X180817238Y-82726285D02*
X180864857Y-82916761D01*
X180864857Y-82916761D02*
X180960095Y-83012000D01*
X180960095Y-83012000D02*
X181055333Y-83059619D01*
X181055333Y-83059619D02*
X181245809Y-83059619D01*
X181245809Y-83059619D02*
X181341047Y-83012000D01*
X181341047Y-83012000D02*
X181436285Y-82916761D01*
X181436285Y-82916761D02*
X181483904Y-82726285D01*
X181483904Y-82726285D02*
X181483904Y-82392952D01*
X181483904Y-82392952D02*
X181436285Y-82202476D01*
X181436285Y-82202476D02*
X181341047Y-82107238D01*
X181341047Y-82107238D02*
X181245809Y-82059619D01*
X187960095Y-84679619D02*
X188531523Y-84679619D01*
X188245809Y-84679619D02*
X188245809Y-83679619D01*
X188245809Y-83679619D02*
X188341047Y-83822476D01*
X188341047Y-83822476D02*
X188436285Y-83917714D01*
X188436285Y-83917714D02*
X188531523Y-83965333D01*
X186626761Y-84108190D02*
X186721999Y-84060571D01*
X186721999Y-84060571D02*
X186769618Y-84012952D01*
X186769618Y-84012952D02*
X186817237Y-83917714D01*
X186817237Y-83917714D02*
X186817237Y-83870095D01*
X186817237Y-83870095D02*
X186769618Y-83774857D01*
X186769618Y-83774857D02*
X186721999Y-83727238D01*
X186721999Y-83727238D02*
X186626761Y-83679619D01*
X186626761Y-83679619D02*
X186436285Y-83679619D01*
X186436285Y-83679619D02*
X186341047Y-83727238D01*
X186341047Y-83727238D02*
X186293428Y-83774857D01*
X186293428Y-83774857D02*
X186245809Y-83870095D01*
X186245809Y-83870095D02*
X186245809Y-83917714D01*
X186245809Y-83917714D02*
X186293428Y-84012952D01*
X186293428Y-84012952D02*
X186341047Y-84060571D01*
X186341047Y-84060571D02*
X186436285Y-84108190D01*
X186436285Y-84108190D02*
X186626761Y-84108190D01*
X186626761Y-84108190D02*
X186721999Y-84155809D01*
X186721999Y-84155809D02*
X186769618Y-84203428D01*
X186769618Y-84203428D02*
X186817237Y-84298666D01*
X186817237Y-84298666D02*
X186817237Y-84489142D01*
X186817237Y-84489142D02*
X186769618Y-84584380D01*
X186769618Y-84584380D02*
X186721999Y-84632000D01*
X186721999Y-84632000D02*
X186626761Y-84679619D01*
X186626761Y-84679619D02*
X186436285Y-84679619D01*
X186436285Y-84679619D02*
X186341047Y-84632000D01*
X186341047Y-84632000D02*
X186293428Y-84584380D01*
X186293428Y-84584380D02*
X186245809Y-84489142D01*
X186245809Y-84489142D02*
X186245809Y-84298666D01*
X186245809Y-84298666D02*
X186293428Y-84203428D01*
X186293428Y-84203428D02*
X186341047Y-84155809D01*
X186341047Y-84155809D02*
X186436285Y-84108190D01*
X185817237Y-84298666D02*
X185055333Y-84298666D01*
X184245809Y-84155809D02*
X184579142Y-84155809D01*
X184579142Y-84679619D02*
X184579142Y-83679619D01*
X184579142Y-83679619D02*
X184102952Y-83679619D01*
X182531523Y-84012952D02*
X182531523Y-84679619D01*
X182769618Y-83632000D02*
X183007713Y-84346285D01*
X183007713Y-84346285D02*
X182388666Y-84346285D01*
X181817237Y-83679619D02*
X181721999Y-83679619D01*
X181721999Y-83679619D02*
X181626761Y-83727238D01*
X181626761Y-83727238D02*
X181579142Y-83774857D01*
X181579142Y-83774857D02*
X181531523Y-83870095D01*
X181531523Y-83870095D02*
X181483904Y-84060571D01*
X181483904Y-84060571D02*
X181483904Y-84298666D01*
X181483904Y-84298666D02*
X181531523Y-84489142D01*
X181531523Y-84489142D02*
X181579142Y-84584380D01*
X181579142Y-84584380D02*
X181626761Y-84632000D01*
X181626761Y-84632000D02*
X181721999Y-84679619D01*
X181721999Y-84679619D02*
X181817237Y-84679619D01*
X181817237Y-84679619D02*
X181912475Y-84632000D01*
X181912475Y-84632000D02*
X181960094Y-84584380D01*
X181960094Y-84584380D02*
X182007713Y-84489142D01*
X182007713Y-84489142D02*
X182055332Y-84298666D01*
X182055332Y-84298666D02*
X182055332Y-84060571D01*
X182055332Y-84060571D02*
X182007713Y-83870095D01*
X182007713Y-83870095D02*
X181960094Y-83774857D01*
X181960094Y-83774857D02*
X181912475Y-83727238D01*
X181912475Y-83727238D02*
X181817237Y-83679619D01*
X181007713Y-84679619D02*
X180817237Y-84679619D01*
X180817237Y-84679619D02*
X180721999Y-84632000D01*
X180721999Y-84632000D02*
X180674380Y-84584380D01*
X180674380Y-84584380D02*
X180579142Y-84441523D01*
X180579142Y-84441523D02*
X180531523Y-84251047D01*
X180531523Y-84251047D02*
X180531523Y-83870095D01*
X180531523Y-83870095D02*
X180579142Y-83774857D01*
X180579142Y-83774857D02*
X180626761Y-83727238D01*
X180626761Y-83727238D02*
X180721999Y-83679619D01*
X180721999Y-83679619D02*
X180912475Y-83679619D01*
X180912475Y-83679619D02*
X181007713Y-83727238D01*
X181007713Y-83727238D02*
X181055332Y-83774857D01*
X181055332Y-83774857D02*
X181102951Y-83870095D01*
X181102951Y-83870095D02*
X181102951Y-84108190D01*
X181102951Y-84108190D02*
X181055332Y-84203428D01*
X181055332Y-84203428D02*
X181007713Y-84251047D01*
X181007713Y-84251047D02*
X180912475Y-84298666D01*
X180912475Y-84298666D02*
X180721999Y-84298666D01*
X180721999Y-84298666D02*
X180626761Y-84251047D01*
X180626761Y-84251047D02*
X180579142Y-84203428D01*
X180579142Y-84203428D02*
X180531523Y-84108190D01*
X180055332Y-84679619D02*
X179864856Y-84679619D01*
X179864856Y-84679619D02*
X179769618Y-84632000D01*
X179769618Y-84632000D02*
X179721999Y-84584380D01*
X179721999Y-84584380D02*
X179626761Y-84441523D01*
X179626761Y-84441523D02*
X179579142Y-84251047D01*
X179579142Y-84251047D02*
X179579142Y-83870095D01*
X179579142Y-83870095D02*
X179626761Y-83774857D01*
X179626761Y-83774857D02*
X179674380Y-83727238D01*
X179674380Y-83727238D02*
X179769618Y-83679619D01*
X179769618Y-83679619D02*
X179960094Y-83679619D01*
X179960094Y-83679619D02*
X180055332Y-83727238D01*
X180055332Y-83727238D02*
X180102951Y-83774857D01*
X180102951Y-83774857D02*
X180150570Y-83870095D01*
X180150570Y-83870095D02*
X180150570Y-84108190D01*
X180150570Y-84108190D02*
X180102951Y-84203428D01*
X180102951Y-84203428D02*
X180055332Y-84251047D01*
X180055332Y-84251047D02*
X179960094Y-84298666D01*
X179960094Y-84298666D02*
X179769618Y-84298666D01*
X179769618Y-84298666D02*
X179674380Y-84251047D01*
X179674380Y-84251047D02*
X179626761Y-84203428D01*
X179626761Y-84203428D02*
X179579142Y-84108190D01*
X178483903Y-83679619D02*
X178245808Y-84679619D01*
X178245808Y-84679619D02*
X178055332Y-83965333D01*
X178055332Y-83965333D02*
X177864856Y-84679619D01*
X177864856Y-84679619D02*
X177626761Y-83679619D01*
X176674380Y-84679619D02*
X177007713Y-84203428D01*
X177245808Y-84679619D02*
X177245808Y-83679619D01*
X177245808Y-83679619D02*
X176864856Y-83679619D01*
X176864856Y-83679619D02*
X176769618Y-83727238D01*
X176769618Y-83727238D02*
X176721999Y-83774857D01*
X176721999Y-83774857D02*
X176674380Y-83870095D01*
X176674380Y-83870095D02*
X176674380Y-84012952D01*
X176674380Y-84012952D02*
X176721999Y-84108190D01*
X176721999Y-84108190D02*
X176769618Y-84155809D01*
X176769618Y-84155809D02*
X176864856Y-84203428D01*
X176864856Y-84203428D02*
X177245808Y-84203428D01*
X187960095Y-86299619D02*
X188531523Y-86299619D01*
X188245809Y-86299619D02*
X188245809Y-85299619D01*
X188245809Y-85299619D02*
X188341047Y-85442476D01*
X188341047Y-85442476D02*
X188436285Y-85537714D01*
X188436285Y-85537714D02*
X188531523Y-85585333D01*
X186579142Y-85299619D02*
X186483904Y-85299619D01*
X186483904Y-85299619D02*
X186388666Y-85347238D01*
X186388666Y-85347238D02*
X186341047Y-85394857D01*
X186341047Y-85394857D02*
X186293428Y-85490095D01*
X186293428Y-85490095D02*
X186245809Y-85680571D01*
X186245809Y-85680571D02*
X186245809Y-85918666D01*
X186245809Y-85918666D02*
X186293428Y-86109142D01*
X186293428Y-86109142D02*
X186341047Y-86204380D01*
X186341047Y-86204380D02*
X186388666Y-86252000D01*
X186388666Y-86252000D02*
X186483904Y-86299619D01*
X186483904Y-86299619D02*
X186579142Y-86299619D01*
X186579142Y-86299619D02*
X186674380Y-86252000D01*
X186674380Y-86252000D02*
X186721999Y-86204380D01*
X186721999Y-86204380D02*
X186769618Y-86109142D01*
X186769618Y-86109142D02*
X186817237Y-85918666D01*
X186817237Y-85918666D02*
X186817237Y-85680571D01*
X186817237Y-85680571D02*
X186769618Y-85490095D01*
X186769618Y-85490095D02*
X186721999Y-85394857D01*
X186721999Y-85394857D02*
X186674380Y-85347238D01*
X186674380Y-85347238D02*
X186579142Y-85299619D01*
X185817237Y-85918666D02*
X185055333Y-85918666D01*
X184674380Y-85299619D02*
X184007714Y-85299619D01*
X184007714Y-85299619D02*
X184436285Y-86299619D01*
X188293428Y-86919619D02*
X188198190Y-86919619D01*
X188198190Y-86919619D02*
X188102952Y-86967238D01*
X188102952Y-86967238D02*
X188055333Y-87014857D01*
X188055333Y-87014857D02*
X188007714Y-87110095D01*
X188007714Y-87110095D02*
X187960095Y-87300571D01*
X187960095Y-87300571D02*
X187960095Y-87538666D01*
X187960095Y-87538666D02*
X188007714Y-87729142D01*
X188007714Y-87729142D02*
X188055333Y-87824380D01*
X188055333Y-87824380D02*
X188102952Y-87872000D01*
X188102952Y-87872000D02*
X188198190Y-87919619D01*
X188198190Y-87919619D02*
X188293428Y-87919619D01*
X188293428Y-87919619D02*
X188388666Y-87872000D01*
X188388666Y-87872000D02*
X188436285Y-87824380D01*
X188436285Y-87824380D02*
X188483904Y-87729142D01*
X188483904Y-87729142D02*
X188531523Y-87538666D01*
X188531523Y-87538666D02*
X188531523Y-87300571D01*
X188531523Y-87300571D02*
X188483904Y-87110095D01*
X188483904Y-87110095D02*
X188436285Y-87014857D01*
X188436285Y-87014857D02*
X188388666Y-86967238D01*
X188388666Y-86967238D02*
X188293428Y-86919619D01*
X186626761Y-87348190D02*
X186721999Y-87300571D01*
X186721999Y-87300571D02*
X186769618Y-87252952D01*
X186769618Y-87252952D02*
X186817237Y-87157714D01*
X186817237Y-87157714D02*
X186817237Y-87110095D01*
X186817237Y-87110095D02*
X186769618Y-87014857D01*
X186769618Y-87014857D02*
X186721999Y-86967238D01*
X186721999Y-86967238D02*
X186626761Y-86919619D01*
X186626761Y-86919619D02*
X186436285Y-86919619D01*
X186436285Y-86919619D02*
X186341047Y-86967238D01*
X186341047Y-86967238D02*
X186293428Y-87014857D01*
X186293428Y-87014857D02*
X186245809Y-87110095D01*
X186245809Y-87110095D02*
X186245809Y-87157714D01*
X186245809Y-87157714D02*
X186293428Y-87252952D01*
X186293428Y-87252952D02*
X186341047Y-87300571D01*
X186341047Y-87300571D02*
X186436285Y-87348190D01*
X186436285Y-87348190D02*
X186626761Y-87348190D01*
X186626761Y-87348190D02*
X186721999Y-87395809D01*
X186721999Y-87395809D02*
X186769618Y-87443428D01*
X186769618Y-87443428D02*
X186817237Y-87538666D01*
X186817237Y-87538666D02*
X186817237Y-87729142D01*
X186817237Y-87729142D02*
X186769618Y-87824380D01*
X186769618Y-87824380D02*
X186721999Y-87872000D01*
X186721999Y-87872000D02*
X186626761Y-87919619D01*
X186626761Y-87919619D02*
X186436285Y-87919619D01*
X186436285Y-87919619D02*
X186341047Y-87872000D01*
X186341047Y-87872000D02*
X186293428Y-87824380D01*
X186293428Y-87824380D02*
X186245809Y-87729142D01*
X186245809Y-87729142D02*
X186245809Y-87538666D01*
X186245809Y-87538666D02*
X186293428Y-87443428D01*
X186293428Y-87443428D02*
X186341047Y-87395809D01*
X186341047Y-87395809D02*
X186436285Y-87348190D01*
X185817237Y-87538666D02*
X185055333Y-87538666D01*
X184245809Y-87395809D02*
X184579142Y-87395809D01*
X184579142Y-87919619D02*
X184579142Y-86919619D01*
X184579142Y-86919619D02*
X184102952Y-86919619D01*
X188293428Y-88539619D02*
X188198190Y-88539619D01*
X188198190Y-88539619D02*
X188102952Y-88587238D01*
X188102952Y-88587238D02*
X188055333Y-88634857D01*
X188055333Y-88634857D02*
X188007714Y-88730095D01*
X188007714Y-88730095D02*
X187960095Y-88920571D01*
X187960095Y-88920571D02*
X187960095Y-89158666D01*
X187960095Y-89158666D02*
X188007714Y-89349142D01*
X188007714Y-89349142D02*
X188055333Y-89444380D01*
X188055333Y-89444380D02*
X188102952Y-89492000D01*
X188102952Y-89492000D02*
X188198190Y-89539619D01*
X188198190Y-89539619D02*
X188293428Y-89539619D01*
X188293428Y-89539619D02*
X188388666Y-89492000D01*
X188388666Y-89492000D02*
X188436285Y-89444380D01*
X188436285Y-89444380D02*
X188483904Y-89349142D01*
X188483904Y-89349142D02*
X188531523Y-89158666D01*
X188531523Y-89158666D02*
X188531523Y-88920571D01*
X188531523Y-88920571D02*
X188483904Y-88730095D01*
X188483904Y-88730095D02*
X188436285Y-88634857D01*
X188436285Y-88634857D02*
X188388666Y-88587238D01*
X188388666Y-88587238D02*
X188293428Y-88539619D01*
X186579142Y-88539619D02*
X186483904Y-88539619D01*
X186483904Y-88539619D02*
X186388666Y-88587238D01*
X186388666Y-88587238D02*
X186341047Y-88634857D01*
X186341047Y-88634857D02*
X186293428Y-88730095D01*
X186293428Y-88730095D02*
X186245809Y-88920571D01*
X186245809Y-88920571D02*
X186245809Y-89158666D01*
X186245809Y-89158666D02*
X186293428Y-89349142D01*
X186293428Y-89349142D02*
X186341047Y-89444380D01*
X186341047Y-89444380D02*
X186388666Y-89492000D01*
X186388666Y-89492000D02*
X186483904Y-89539619D01*
X186483904Y-89539619D02*
X186579142Y-89539619D01*
X186579142Y-89539619D02*
X186674380Y-89492000D01*
X186674380Y-89492000D02*
X186721999Y-89444380D01*
X186721999Y-89444380D02*
X186769618Y-89349142D01*
X186769618Y-89349142D02*
X186817237Y-89158666D01*
X186817237Y-89158666D02*
X186817237Y-88920571D01*
X186817237Y-88920571D02*
X186769618Y-88730095D01*
X186769618Y-88730095D02*
X186721999Y-88634857D01*
X186721999Y-88634857D02*
X186674380Y-88587238D01*
X186674380Y-88587238D02*
X186579142Y-88539619D01*
X185817237Y-89158666D02*
X185055333Y-89158666D01*
X184674380Y-88539619D02*
X184007714Y-88539619D01*
X184007714Y-88539619D02*
X184436285Y-89539619D01*
X182436285Y-88872952D02*
X182436285Y-89539619D01*
X182674380Y-88492000D02*
X182912475Y-89206285D01*
X182912475Y-89206285D02*
X182293428Y-89206285D01*
X181436285Y-88539619D02*
X181912475Y-88539619D01*
X181912475Y-88539619D02*
X181960094Y-89015809D01*
X181960094Y-89015809D02*
X181912475Y-88968190D01*
X181912475Y-88968190D02*
X181817237Y-88920571D01*
X181817237Y-88920571D02*
X181579142Y-88920571D01*
X181579142Y-88920571D02*
X181483904Y-88968190D01*
X181483904Y-88968190D02*
X181436285Y-89015809D01*
X181436285Y-89015809D02*
X181388666Y-89111047D01*
X181388666Y-89111047D02*
X181388666Y-89349142D01*
X181388666Y-89349142D02*
X181436285Y-89444380D01*
X181436285Y-89444380D02*
X181483904Y-89492000D01*
X181483904Y-89492000D02*
X181579142Y-89539619D01*
X181579142Y-89539619D02*
X181817237Y-89539619D01*
X181817237Y-89539619D02*
X181912475Y-89492000D01*
X181912475Y-89492000D02*
X181960094Y-89444380D01*
X180436285Y-89539619D02*
X181007713Y-89539619D01*
X180721999Y-89539619D02*
X180721999Y-88539619D01*
X180721999Y-88539619D02*
X180817237Y-88682476D01*
X180817237Y-88682476D02*
X180912475Y-88777714D01*
X180912475Y-88777714D02*
X181007713Y-88825333D01*
X180055332Y-88634857D02*
X180007713Y-88587238D01*
X180007713Y-88587238D02*
X179912475Y-88539619D01*
X179912475Y-88539619D02*
X179674380Y-88539619D01*
X179674380Y-88539619D02*
X179579142Y-88587238D01*
X179579142Y-88587238D02*
X179531523Y-88634857D01*
X179531523Y-88634857D02*
X179483904Y-88730095D01*
X179483904Y-88730095D02*
X179483904Y-88825333D01*
X179483904Y-88825333D02*
X179531523Y-88968190D01*
X179531523Y-88968190D02*
X180102951Y-89539619D01*
X180102951Y-89539619D02*
X179483904Y-89539619D01*
X177721999Y-89539619D02*
X178055332Y-89063428D01*
X178293427Y-89539619D02*
X178293427Y-88539619D01*
X178293427Y-88539619D02*
X177912475Y-88539619D01*
X177912475Y-88539619D02*
X177817237Y-88587238D01*
X177817237Y-88587238D02*
X177769618Y-88634857D01*
X177769618Y-88634857D02*
X177721999Y-88730095D01*
X177721999Y-88730095D02*
X177721999Y-88872952D01*
X177721999Y-88872952D02*
X177769618Y-88968190D01*
X177769618Y-88968190D02*
X177817237Y-89015809D01*
X177817237Y-89015809D02*
X177912475Y-89063428D01*
X177912475Y-89063428D02*
X178293427Y-89063428D01*
X177293427Y-89539619D02*
X177293427Y-88539619D01*
X177293427Y-88539619D02*
X177055332Y-88539619D01*
X177055332Y-88539619D02*
X176912475Y-88587238D01*
X176912475Y-88587238D02*
X176817237Y-88682476D01*
X176817237Y-88682476D02*
X176769618Y-88777714D01*
X176769618Y-88777714D02*
X176721999Y-88968190D01*
X176721999Y-88968190D02*
X176721999Y-89111047D01*
X176721999Y-89111047D02*
X176769618Y-89301523D01*
X176769618Y-89301523D02*
X176817237Y-89396761D01*
X176817237Y-89396761D02*
X176912475Y-89492000D01*
X176912475Y-89492000D02*
X177055332Y-89539619D01*
X177055332Y-89539619D02*
X177293427Y-89539619D01*
X108521523Y-66344000D02*
X108378666Y-66391619D01*
X108378666Y-66391619D02*
X108140571Y-66391619D01*
X108140571Y-66391619D02*
X108045333Y-66344000D01*
X108045333Y-66344000D02*
X107997714Y-66296380D01*
X107997714Y-66296380D02*
X107950095Y-66201142D01*
X107950095Y-66201142D02*
X107950095Y-66105904D01*
X107950095Y-66105904D02*
X107997714Y-66010666D01*
X107997714Y-66010666D02*
X108045333Y-65963047D01*
X108045333Y-65963047D02*
X108140571Y-65915428D01*
X108140571Y-65915428D02*
X108331047Y-65867809D01*
X108331047Y-65867809D02*
X108426285Y-65820190D01*
X108426285Y-65820190D02*
X108473904Y-65772571D01*
X108473904Y-65772571D02*
X108521523Y-65677333D01*
X108521523Y-65677333D02*
X108521523Y-65582095D01*
X108521523Y-65582095D02*
X108473904Y-65486857D01*
X108473904Y-65486857D02*
X108426285Y-65439238D01*
X108426285Y-65439238D02*
X108331047Y-65391619D01*
X108331047Y-65391619D02*
X108092952Y-65391619D01*
X108092952Y-65391619D02*
X107950095Y-65439238D01*
X107521523Y-66010666D02*
X106759619Y-66010666D01*
X106283428Y-66391619D02*
X106283428Y-65391619D01*
X106283428Y-65391619D02*
X105902476Y-65391619D01*
X105902476Y-65391619D02*
X105807238Y-65439238D01*
X105807238Y-65439238D02*
X105759619Y-65486857D01*
X105759619Y-65486857D02*
X105712000Y-65582095D01*
X105712000Y-65582095D02*
X105712000Y-65724952D01*
X105712000Y-65724952D02*
X105759619Y-65820190D01*
X105759619Y-65820190D02*
X105807238Y-65867809D01*
X105807238Y-65867809D02*
X105902476Y-65915428D01*
X105902476Y-65915428D02*
X106283428Y-65915428D01*
X105283428Y-66391619D02*
X105283428Y-65391619D01*
X104235810Y-66296380D02*
X104283429Y-66344000D01*
X104283429Y-66344000D02*
X104426286Y-66391619D01*
X104426286Y-66391619D02*
X104521524Y-66391619D01*
X104521524Y-66391619D02*
X104664381Y-66344000D01*
X104664381Y-66344000D02*
X104759619Y-66248761D01*
X104759619Y-66248761D02*
X104807238Y-66153523D01*
X104807238Y-66153523D02*
X104854857Y-65963047D01*
X104854857Y-65963047D02*
X104854857Y-65820190D01*
X104854857Y-65820190D02*
X104807238Y-65629714D01*
X104807238Y-65629714D02*
X104759619Y-65534476D01*
X104759619Y-65534476D02*
X104664381Y-65439238D01*
X104664381Y-65439238D02*
X104521524Y-65391619D01*
X104521524Y-65391619D02*
X104426286Y-65391619D01*
X104426286Y-65391619D02*
X104283429Y-65439238D01*
X104283429Y-65439238D02*
X104235810Y-65486857D01*
X108521523Y-67725904D02*
X108045333Y-67725904D01*
X108616761Y-68011619D02*
X108283428Y-67011619D01*
X108283428Y-67011619D02*
X107950095Y-68011619D01*
X106283428Y-68011619D02*
X106616761Y-67535428D01*
X106854856Y-68011619D02*
X106854856Y-67011619D01*
X106854856Y-67011619D02*
X106473904Y-67011619D01*
X106473904Y-67011619D02*
X106378666Y-67059238D01*
X106378666Y-67059238D02*
X106331047Y-67106857D01*
X106331047Y-67106857D02*
X106283428Y-67202095D01*
X106283428Y-67202095D02*
X106283428Y-67344952D01*
X106283428Y-67344952D02*
X106331047Y-67440190D01*
X106331047Y-67440190D02*
X106378666Y-67487809D01*
X106378666Y-67487809D02*
X106473904Y-67535428D01*
X106473904Y-67535428D02*
X106854856Y-67535428D01*
X105521523Y-67487809D02*
X105378666Y-67535428D01*
X105378666Y-67535428D02*
X105331047Y-67583047D01*
X105331047Y-67583047D02*
X105283428Y-67678285D01*
X105283428Y-67678285D02*
X105283428Y-67821142D01*
X105283428Y-67821142D02*
X105331047Y-67916380D01*
X105331047Y-67916380D02*
X105378666Y-67964000D01*
X105378666Y-67964000D02*
X105473904Y-68011619D01*
X105473904Y-68011619D02*
X105854856Y-68011619D01*
X105854856Y-68011619D02*
X105854856Y-67011619D01*
X105854856Y-67011619D02*
X105521523Y-67011619D01*
X105521523Y-67011619D02*
X105426285Y-67059238D01*
X105426285Y-67059238D02*
X105378666Y-67106857D01*
X105378666Y-67106857D02*
X105331047Y-67202095D01*
X105331047Y-67202095D02*
X105331047Y-67297333D01*
X105331047Y-67297333D02*
X105378666Y-67392571D01*
X105378666Y-67392571D02*
X105426285Y-67440190D01*
X105426285Y-67440190D02*
X105521523Y-67487809D01*
X105521523Y-67487809D02*
X105854856Y-67487809D01*
X104426285Y-67011619D02*
X104616761Y-67011619D01*
X104616761Y-67011619D02*
X104711999Y-67059238D01*
X104711999Y-67059238D02*
X104759618Y-67106857D01*
X104759618Y-67106857D02*
X104854856Y-67249714D01*
X104854856Y-67249714D02*
X104902475Y-67440190D01*
X104902475Y-67440190D02*
X104902475Y-67821142D01*
X104902475Y-67821142D02*
X104854856Y-67916380D01*
X104854856Y-67916380D02*
X104807237Y-67964000D01*
X104807237Y-67964000D02*
X104711999Y-68011619D01*
X104711999Y-68011619D02*
X104521523Y-68011619D01*
X104521523Y-68011619D02*
X104426285Y-67964000D01*
X104426285Y-67964000D02*
X104378666Y-67916380D01*
X104378666Y-67916380D02*
X104331047Y-67821142D01*
X104331047Y-67821142D02*
X104331047Y-67583047D01*
X104331047Y-67583047D02*
X104378666Y-67487809D01*
X104378666Y-67487809D02*
X104426285Y-67440190D01*
X104426285Y-67440190D02*
X104521523Y-67392571D01*
X104521523Y-67392571D02*
X104711999Y-67392571D01*
X104711999Y-67392571D02*
X104807237Y-67440190D01*
X104807237Y-67440190D02*
X104854856Y-67487809D01*
X104854856Y-67487809D02*
X104902475Y-67583047D01*
X108140571Y-69107809D02*
X107997714Y-69155428D01*
X107997714Y-69155428D02*
X107950095Y-69203047D01*
X107950095Y-69203047D02*
X107902476Y-69298285D01*
X107902476Y-69298285D02*
X107902476Y-69441142D01*
X107902476Y-69441142D02*
X107950095Y-69536380D01*
X107950095Y-69536380D02*
X107997714Y-69584000D01*
X107997714Y-69584000D02*
X108092952Y-69631619D01*
X108092952Y-69631619D02*
X108473904Y-69631619D01*
X108473904Y-69631619D02*
X108473904Y-68631619D01*
X108473904Y-68631619D02*
X108140571Y-68631619D01*
X108140571Y-68631619D02*
X108045333Y-68679238D01*
X108045333Y-68679238D02*
X107997714Y-68726857D01*
X107997714Y-68726857D02*
X107950095Y-68822095D01*
X107950095Y-68822095D02*
X107950095Y-68917333D01*
X107950095Y-68917333D02*
X107997714Y-69012571D01*
X107997714Y-69012571D02*
X108045333Y-69060190D01*
X108045333Y-69060190D02*
X108140571Y-69107809D01*
X108140571Y-69107809D02*
X108473904Y-69107809D01*
X106140571Y-69631619D02*
X106473904Y-69155428D01*
X106711999Y-69631619D02*
X106711999Y-68631619D01*
X106711999Y-68631619D02*
X106331047Y-68631619D01*
X106331047Y-68631619D02*
X106235809Y-68679238D01*
X106235809Y-68679238D02*
X106188190Y-68726857D01*
X106188190Y-68726857D02*
X106140571Y-68822095D01*
X106140571Y-68822095D02*
X106140571Y-68964952D01*
X106140571Y-68964952D02*
X106188190Y-69060190D01*
X106188190Y-69060190D02*
X106235809Y-69107809D01*
X106235809Y-69107809D02*
X106331047Y-69155428D01*
X106331047Y-69155428D02*
X106711999Y-69155428D01*
X105378666Y-69107809D02*
X105235809Y-69155428D01*
X105235809Y-69155428D02*
X105188190Y-69203047D01*
X105188190Y-69203047D02*
X105140571Y-69298285D01*
X105140571Y-69298285D02*
X105140571Y-69441142D01*
X105140571Y-69441142D02*
X105188190Y-69536380D01*
X105188190Y-69536380D02*
X105235809Y-69584000D01*
X105235809Y-69584000D02*
X105331047Y-69631619D01*
X105331047Y-69631619D02*
X105711999Y-69631619D01*
X105711999Y-69631619D02*
X105711999Y-68631619D01*
X105711999Y-68631619D02*
X105378666Y-68631619D01*
X105378666Y-68631619D02*
X105283428Y-68679238D01*
X105283428Y-68679238D02*
X105235809Y-68726857D01*
X105235809Y-68726857D02*
X105188190Y-68822095D01*
X105188190Y-68822095D02*
X105188190Y-68917333D01*
X105188190Y-68917333D02*
X105235809Y-69012571D01*
X105235809Y-69012571D02*
X105283428Y-69060190D01*
X105283428Y-69060190D02*
X105378666Y-69107809D01*
X105378666Y-69107809D02*
X105711999Y-69107809D01*
X104807237Y-68631619D02*
X104140571Y-68631619D01*
X104140571Y-68631619D02*
X104569142Y-69631619D01*
X107902476Y-71156380D02*
X107950095Y-71204000D01*
X107950095Y-71204000D02*
X108092952Y-71251619D01*
X108092952Y-71251619D02*
X108188190Y-71251619D01*
X108188190Y-71251619D02*
X108331047Y-71204000D01*
X108331047Y-71204000D02*
X108426285Y-71108761D01*
X108426285Y-71108761D02*
X108473904Y-71013523D01*
X108473904Y-71013523D02*
X108521523Y-70823047D01*
X108521523Y-70823047D02*
X108521523Y-70680190D01*
X108521523Y-70680190D02*
X108473904Y-70489714D01*
X108473904Y-70489714D02*
X108426285Y-70394476D01*
X108426285Y-70394476D02*
X108331047Y-70299238D01*
X108331047Y-70299238D02*
X108188190Y-70251619D01*
X108188190Y-70251619D02*
X108092952Y-70251619D01*
X108092952Y-70251619D02*
X107950095Y-70299238D01*
X107950095Y-70299238D02*
X107902476Y-70346857D01*
X106140571Y-71251619D02*
X106473904Y-70775428D01*
X106711999Y-71251619D02*
X106711999Y-70251619D01*
X106711999Y-70251619D02*
X106331047Y-70251619D01*
X106331047Y-70251619D02*
X106235809Y-70299238D01*
X106235809Y-70299238D02*
X106188190Y-70346857D01*
X106188190Y-70346857D02*
X106140571Y-70442095D01*
X106140571Y-70442095D02*
X106140571Y-70584952D01*
X106140571Y-70584952D02*
X106188190Y-70680190D01*
X106188190Y-70680190D02*
X106235809Y-70727809D01*
X106235809Y-70727809D02*
X106331047Y-70775428D01*
X106331047Y-70775428D02*
X106711999Y-70775428D01*
X105711999Y-70727809D02*
X105378666Y-70727809D01*
X105235809Y-71251619D02*
X105711999Y-71251619D01*
X105711999Y-71251619D02*
X105711999Y-70251619D01*
X105711999Y-70251619D02*
X105235809Y-70251619D01*
X104902475Y-70251619D02*
X104283428Y-70251619D01*
X104283428Y-70251619D02*
X104616761Y-70632571D01*
X104616761Y-70632571D02*
X104473904Y-70632571D01*
X104473904Y-70632571D02*
X104378666Y-70680190D01*
X104378666Y-70680190D02*
X104331047Y-70727809D01*
X104331047Y-70727809D02*
X104283428Y-70823047D01*
X104283428Y-70823047D02*
X104283428Y-71061142D01*
X104283428Y-71061142D02*
X104331047Y-71156380D01*
X104331047Y-71156380D02*
X104378666Y-71204000D01*
X104378666Y-71204000D02*
X104473904Y-71251619D01*
X104473904Y-71251619D02*
X104759618Y-71251619D01*
X104759618Y-71251619D02*
X104854856Y-71204000D01*
X104854856Y-71204000D02*
X104902475Y-71156380D01*
X126698476Y-61853619D02*
X127031809Y-61377428D01*
X127269904Y-61853619D02*
X127269904Y-60853619D01*
X127269904Y-60853619D02*
X126888952Y-60853619D01*
X126888952Y-60853619D02*
X126793714Y-60901238D01*
X126793714Y-60901238D02*
X126746095Y-60948857D01*
X126746095Y-60948857D02*
X126698476Y-61044095D01*
X126698476Y-61044095D02*
X126698476Y-61186952D01*
X126698476Y-61186952D02*
X126746095Y-61282190D01*
X126746095Y-61282190D02*
X126793714Y-61329809D01*
X126793714Y-61329809D02*
X126888952Y-61377428D01*
X126888952Y-61377428D02*
X127269904Y-61377428D01*
X125888952Y-61806000D02*
X125984190Y-61853619D01*
X125984190Y-61853619D02*
X126174666Y-61853619D01*
X126174666Y-61853619D02*
X126269904Y-61806000D01*
X126269904Y-61806000D02*
X126317523Y-61710761D01*
X126317523Y-61710761D02*
X126317523Y-61329809D01*
X126317523Y-61329809D02*
X126269904Y-61234571D01*
X126269904Y-61234571D02*
X126174666Y-61186952D01*
X126174666Y-61186952D02*
X125984190Y-61186952D01*
X125984190Y-61186952D02*
X125888952Y-61234571D01*
X125888952Y-61234571D02*
X125841333Y-61329809D01*
X125841333Y-61329809D02*
X125841333Y-61425047D01*
X125841333Y-61425047D02*
X126317523Y-61520285D01*
X125555618Y-61186952D02*
X125174666Y-61186952D01*
X125412761Y-61853619D02*
X125412761Y-60996476D01*
X125412761Y-60996476D02*
X125365142Y-60901238D01*
X125365142Y-60901238D02*
X125269904Y-60853619D01*
X125269904Y-60853619D02*
X125174666Y-60853619D01*
X124555618Y-62234571D02*
X124603237Y-62186952D01*
X124603237Y-62186952D02*
X124698475Y-62044095D01*
X124698475Y-62044095D02*
X124746094Y-61948857D01*
X124746094Y-61948857D02*
X124793713Y-61806000D01*
X124793713Y-61806000D02*
X124841332Y-61567904D01*
X124841332Y-61567904D02*
X124841332Y-61377428D01*
X124841332Y-61377428D02*
X124793713Y-61139333D01*
X124793713Y-61139333D02*
X124746094Y-60996476D01*
X124746094Y-60996476D02*
X124698475Y-60901238D01*
X124698475Y-60901238D02*
X124603237Y-60758380D01*
X124603237Y-60758380D02*
X124555618Y-60710761D01*
X124174665Y-61853619D02*
X124174665Y-60853619D01*
X124174665Y-60853619D02*
X123603237Y-61853619D01*
X123603237Y-61853619D02*
X123603237Y-60853619D01*
X122984189Y-61853619D02*
X123079427Y-61806000D01*
X123079427Y-61806000D02*
X123127046Y-61758380D01*
X123127046Y-61758380D02*
X123174665Y-61663142D01*
X123174665Y-61663142D02*
X123174665Y-61377428D01*
X123174665Y-61377428D02*
X123127046Y-61282190D01*
X123127046Y-61282190D02*
X123079427Y-61234571D01*
X123079427Y-61234571D02*
X122984189Y-61186952D01*
X122984189Y-61186952D02*
X122841332Y-61186952D01*
X122841332Y-61186952D02*
X122746094Y-61234571D01*
X122746094Y-61234571D02*
X122698475Y-61282190D01*
X122698475Y-61282190D02*
X122650856Y-61377428D01*
X122650856Y-61377428D02*
X122650856Y-61663142D01*
X122650856Y-61663142D02*
X122698475Y-61758380D01*
X122698475Y-61758380D02*
X122746094Y-61806000D01*
X122746094Y-61806000D02*
X122841332Y-61853619D01*
X122841332Y-61853619D02*
X122984189Y-61853619D01*
X122365141Y-61186952D02*
X121984189Y-61186952D01*
X122222284Y-60853619D02*
X122222284Y-61710761D01*
X122222284Y-61710761D02*
X122174665Y-61806000D01*
X122174665Y-61806000D02*
X122079427Y-61853619D01*
X122079427Y-61853619D02*
X121984189Y-61853619D01*
X120888950Y-61853619D02*
X120888950Y-60853619D01*
X120412760Y-61853619D02*
X120412760Y-61186952D01*
X120412760Y-61282190D02*
X120365141Y-61234571D01*
X120365141Y-61234571D02*
X120269903Y-61186952D01*
X120269903Y-61186952D02*
X120127046Y-61186952D01*
X120127046Y-61186952D02*
X120031808Y-61234571D01*
X120031808Y-61234571D02*
X119984189Y-61329809D01*
X119984189Y-61329809D02*
X119984189Y-61853619D01*
X119984189Y-61329809D02*
X119936570Y-61234571D01*
X119936570Y-61234571D02*
X119841332Y-61186952D01*
X119841332Y-61186952D02*
X119698475Y-61186952D01*
X119698475Y-61186952D02*
X119603236Y-61234571D01*
X119603236Y-61234571D02*
X119555617Y-61329809D01*
X119555617Y-61329809D02*
X119555617Y-61853619D01*
X119079427Y-61186952D02*
X119079427Y-62186952D01*
X119079427Y-61234571D02*
X118984189Y-61186952D01*
X118984189Y-61186952D02*
X118793713Y-61186952D01*
X118793713Y-61186952D02*
X118698475Y-61234571D01*
X118698475Y-61234571D02*
X118650856Y-61282190D01*
X118650856Y-61282190D02*
X118603237Y-61377428D01*
X118603237Y-61377428D02*
X118603237Y-61663142D01*
X118603237Y-61663142D02*
X118650856Y-61758380D01*
X118650856Y-61758380D02*
X118698475Y-61806000D01*
X118698475Y-61806000D02*
X118793713Y-61853619D01*
X118793713Y-61853619D02*
X118984189Y-61853619D01*
X118984189Y-61853619D02*
X119079427Y-61806000D01*
X118031808Y-61853619D02*
X118127046Y-61806000D01*
X118127046Y-61806000D02*
X118174665Y-61710761D01*
X118174665Y-61710761D02*
X118174665Y-60853619D01*
X117746093Y-62234571D02*
X117698474Y-62186952D01*
X117698474Y-62186952D02*
X117603236Y-62044095D01*
X117603236Y-62044095D02*
X117555617Y-61948857D01*
X117555617Y-61948857D02*
X117507998Y-61806000D01*
X117507998Y-61806000D02*
X117460379Y-61567904D01*
X117460379Y-61567904D02*
X117460379Y-61377428D01*
X117460379Y-61377428D02*
X117507998Y-61139333D01*
X117507998Y-61139333D02*
X117555617Y-60996476D01*
X117555617Y-60996476D02*
X117603236Y-60901238D01*
X117603236Y-60901238D02*
X117698474Y-60758380D01*
X117698474Y-60758380D02*
X117746093Y-60710761D01*
X115411333Y-53086952D02*
X115411333Y-53753619D01*
X115649428Y-52706000D02*
X115887523Y-53420285D01*
X115887523Y-53420285D02*
X115268476Y-53420285D01*
X114697047Y-52753619D02*
X114601809Y-52753619D01*
X114601809Y-52753619D02*
X114506571Y-52801238D01*
X114506571Y-52801238D02*
X114458952Y-52848857D01*
X114458952Y-52848857D02*
X114411333Y-52944095D01*
X114411333Y-52944095D02*
X114363714Y-53134571D01*
X114363714Y-53134571D02*
X114363714Y-53372666D01*
X114363714Y-53372666D02*
X114411333Y-53563142D01*
X114411333Y-53563142D02*
X114458952Y-53658380D01*
X114458952Y-53658380D02*
X114506571Y-53706000D01*
X114506571Y-53706000D02*
X114601809Y-53753619D01*
X114601809Y-53753619D02*
X114697047Y-53753619D01*
X114697047Y-53753619D02*
X114792285Y-53706000D01*
X114792285Y-53706000D02*
X114839904Y-53658380D01*
X114839904Y-53658380D02*
X114887523Y-53563142D01*
X114887523Y-53563142D02*
X114935142Y-53372666D01*
X114935142Y-53372666D02*
X114935142Y-53134571D01*
X114935142Y-53134571D02*
X114887523Y-52944095D01*
X114887523Y-52944095D02*
X114839904Y-52848857D01*
X114839904Y-52848857D02*
X114792285Y-52801238D01*
X114792285Y-52801238D02*
X114697047Y-52753619D01*
X113744666Y-52753619D02*
X113649428Y-52753619D01*
X113649428Y-52753619D02*
X113554190Y-52801238D01*
X113554190Y-52801238D02*
X113506571Y-52848857D01*
X113506571Y-52848857D02*
X113458952Y-52944095D01*
X113458952Y-52944095D02*
X113411333Y-53134571D01*
X113411333Y-53134571D02*
X113411333Y-53372666D01*
X113411333Y-53372666D02*
X113458952Y-53563142D01*
X113458952Y-53563142D02*
X113506571Y-53658380D01*
X113506571Y-53658380D02*
X113554190Y-53706000D01*
X113554190Y-53706000D02*
X113649428Y-53753619D01*
X113649428Y-53753619D02*
X113744666Y-53753619D01*
X113744666Y-53753619D02*
X113839904Y-53706000D01*
X113839904Y-53706000D02*
X113887523Y-53658380D01*
X113887523Y-53658380D02*
X113935142Y-53563142D01*
X113935142Y-53563142D02*
X113982761Y-53372666D01*
X113982761Y-53372666D02*
X113982761Y-53134571D01*
X113982761Y-53134571D02*
X113935142Y-52944095D01*
X113935142Y-52944095D02*
X113887523Y-52848857D01*
X113887523Y-52848857D02*
X113839904Y-52801238D01*
X113839904Y-52801238D02*
X113744666Y-52753619D01*
X112458952Y-53753619D02*
X113030380Y-53753619D01*
X112744666Y-53753619D02*
X112744666Y-52753619D01*
X112744666Y-52753619D02*
X112839904Y-52896476D01*
X112839904Y-52896476D02*
X112935142Y-52991714D01*
X112935142Y-52991714D02*
X113030380Y-53039333D01*
X111268475Y-53753619D02*
X111268475Y-52753619D01*
X111268475Y-52753619D02*
X110697047Y-53753619D01*
X110697047Y-53753619D02*
X110697047Y-52753619D01*
X110030380Y-52753619D02*
X109839904Y-52753619D01*
X109839904Y-52753619D02*
X109744666Y-52801238D01*
X109744666Y-52801238D02*
X109649428Y-52896476D01*
X109649428Y-52896476D02*
X109601809Y-53086952D01*
X109601809Y-53086952D02*
X109601809Y-53420285D01*
X109601809Y-53420285D02*
X109649428Y-53610761D01*
X109649428Y-53610761D02*
X109744666Y-53706000D01*
X109744666Y-53706000D02*
X109839904Y-53753619D01*
X109839904Y-53753619D02*
X110030380Y-53753619D01*
X110030380Y-53753619D02*
X110125618Y-53706000D01*
X110125618Y-53706000D02*
X110220856Y-53610761D01*
X110220856Y-53610761D02*
X110268475Y-53420285D01*
X110268475Y-53420285D02*
X110268475Y-53086952D01*
X110268475Y-53086952D02*
X110220856Y-52896476D01*
X110220856Y-52896476D02*
X110125618Y-52801238D01*
X110125618Y-52801238D02*
X110030380Y-52753619D01*
X108601809Y-53753619D02*
X108935142Y-53277428D01*
X109173237Y-53753619D02*
X109173237Y-52753619D01*
X109173237Y-52753619D02*
X108792285Y-52753619D01*
X108792285Y-52753619D02*
X108697047Y-52801238D01*
X108697047Y-52801238D02*
X108649428Y-52848857D01*
X108649428Y-52848857D02*
X108601809Y-52944095D01*
X108601809Y-52944095D02*
X108601809Y-53086952D01*
X108601809Y-53086952D02*
X108649428Y-53182190D01*
X108649428Y-53182190D02*
X108697047Y-53229809D01*
X108697047Y-53229809D02*
X108792285Y-53277428D01*
X108792285Y-53277428D02*
X109173237Y-53277428D01*
X106744665Y-53753619D02*
X106220856Y-53086952D01*
X106744665Y-53086952D02*
X106220856Y-53753619D01*
X105411332Y-53086952D02*
X105411332Y-53753619D01*
X105649427Y-52706000D02*
X105887522Y-53420285D01*
X105887522Y-53420285D02*
X105268475Y-53420285D01*
X115411333Y-54706952D02*
X115411333Y-55373619D01*
X115649428Y-54326000D02*
X115887523Y-55040285D01*
X115887523Y-55040285D02*
X115268476Y-55040285D01*
X114697047Y-54373619D02*
X114601809Y-54373619D01*
X114601809Y-54373619D02*
X114506571Y-54421238D01*
X114506571Y-54421238D02*
X114458952Y-54468857D01*
X114458952Y-54468857D02*
X114411333Y-54564095D01*
X114411333Y-54564095D02*
X114363714Y-54754571D01*
X114363714Y-54754571D02*
X114363714Y-54992666D01*
X114363714Y-54992666D02*
X114411333Y-55183142D01*
X114411333Y-55183142D02*
X114458952Y-55278380D01*
X114458952Y-55278380D02*
X114506571Y-55326000D01*
X114506571Y-55326000D02*
X114601809Y-55373619D01*
X114601809Y-55373619D02*
X114697047Y-55373619D01*
X114697047Y-55373619D02*
X114792285Y-55326000D01*
X114792285Y-55326000D02*
X114839904Y-55278380D01*
X114839904Y-55278380D02*
X114887523Y-55183142D01*
X114887523Y-55183142D02*
X114935142Y-54992666D01*
X114935142Y-54992666D02*
X114935142Y-54754571D01*
X114935142Y-54754571D02*
X114887523Y-54564095D01*
X114887523Y-54564095D02*
X114839904Y-54468857D01*
X114839904Y-54468857D02*
X114792285Y-54421238D01*
X114792285Y-54421238D02*
X114697047Y-54373619D01*
X113411333Y-55373619D02*
X113982761Y-55373619D01*
X113697047Y-55373619D02*
X113697047Y-54373619D01*
X113697047Y-54373619D02*
X113792285Y-54516476D01*
X113792285Y-54516476D02*
X113887523Y-54611714D01*
X113887523Y-54611714D02*
X113982761Y-54659333D01*
X112458952Y-55373619D02*
X113030380Y-55373619D01*
X112744666Y-55373619D02*
X112744666Y-54373619D01*
X112744666Y-54373619D02*
X112839904Y-54516476D01*
X112839904Y-54516476D02*
X112935142Y-54611714D01*
X112935142Y-54611714D02*
X113030380Y-54659333D01*
X111268475Y-55373619D02*
X111268475Y-54373619D01*
X111268475Y-54373619D02*
X110697047Y-55373619D01*
X110697047Y-55373619D02*
X110697047Y-54373619D01*
X110268475Y-55087904D02*
X109792285Y-55087904D01*
X110363713Y-55373619D02*
X110030380Y-54373619D01*
X110030380Y-54373619D02*
X109697047Y-55373619D01*
X109363713Y-55373619D02*
X109363713Y-54373619D01*
X109363713Y-54373619D02*
X108792285Y-55373619D01*
X108792285Y-55373619D02*
X108792285Y-54373619D01*
X108316094Y-55373619D02*
X108316094Y-54373619D01*
X108316094Y-54373619D02*
X108077999Y-54373619D01*
X108077999Y-54373619D02*
X107935142Y-54421238D01*
X107935142Y-54421238D02*
X107839904Y-54516476D01*
X107839904Y-54516476D02*
X107792285Y-54611714D01*
X107792285Y-54611714D02*
X107744666Y-54802190D01*
X107744666Y-54802190D02*
X107744666Y-54945047D01*
X107744666Y-54945047D02*
X107792285Y-55135523D01*
X107792285Y-55135523D02*
X107839904Y-55230761D01*
X107839904Y-55230761D02*
X107935142Y-55326000D01*
X107935142Y-55326000D02*
X108077999Y-55373619D01*
X108077999Y-55373619D02*
X108316094Y-55373619D01*
X106649427Y-55373619D02*
X106125618Y-54706952D01*
X106649427Y-54706952D02*
X106125618Y-55373619D01*
X105316094Y-54706952D02*
X105316094Y-55373619D01*
X105554189Y-54326000D02*
X105792284Y-55040285D01*
X105792284Y-55040285D02*
X105173237Y-55040285D01*
X115411333Y-56326952D02*
X115411333Y-56993619D01*
X115649428Y-55946000D02*
X115887523Y-56660285D01*
X115887523Y-56660285D02*
X115268476Y-56660285D01*
X114697047Y-55993619D02*
X114601809Y-55993619D01*
X114601809Y-55993619D02*
X114506571Y-56041238D01*
X114506571Y-56041238D02*
X114458952Y-56088857D01*
X114458952Y-56088857D02*
X114411333Y-56184095D01*
X114411333Y-56184095D02*
X114363714Y-56374571D01*
X114363714Y-56374571D02*
X114363714Y-56612666D01*
X114363714Y-56612666D02*
X114411333Y-56803142D01*
X114411333Y-56803142D02*
X114458952Y-56898380D01*
X114458952Y-56898380D02*
X114506571Y-56946000D01*
X114506571Y-56946000D02*
X114601809Y-56993619D01*
X114601809Y-56993619D02*
X114697047Y-56993619D01*
X114697047Y-56993619D02*
X114792285Y-56946000D01*
X114792285Y-56946000D02*
X114839904Y-56898380D01*
X114839904Y-56898380D02*
X114887523Y-56803142D01*
X114887523Y-56803142D02*
X114935142Y-56612666D01*
X114935142Y-56612666D02*
X114935142Y-56374571D01*
X114935142Y-56374571D02*
X114887523Y-56184095D01*
X114887523Y-56184095D02*
X114839904Y-56088857D01*
X114839904Y-56088857D02*
X114792285Y-56041238D01*
X114792285Y-56041238D02*
X114697047Y-55993619D01*
X113506571Y-56326952D02*
X113506571Y-56993619D01*
X113744666Y-55946000D02*
X113982761Y-56660285D01*
X113982761Y-56660285D02*
X113363714Y-56660285D01*
X112935142Y-56993619D02*
X112744666Y-56993619D01*
X112744666Y-56993619D02*
X112649428Y-56946000D01*
X112649428Y-56946000D02*
X112601809Y-56898380D01*
X112601809Y-56898380D02*
X112506571Y-56755523D01*
X112506571Y-56755523D02*
X112458952Y-56565047D01*
X112458952Y-56565047D02*
X112458952Y-56184095D01*
X112458952Y-56184095D02*
X112506571Y-56088857D01*
X112506571Y-56088857D02*
X112554190Y-56041238D01*
X112554190Y-56041238D02*
X112649428Y-55993619D01*
X112649428Y-55993619D02*
X112839904Y-55993619D01*
X112839904Y-55993619D02*
X112935142Y-56041238D01*
X112935142Y-56041238D02*
X112982761Y-56088857D01*
X112982761Y-56088857D02*
X113030380Y-56184095D01*
X113030380Y-56184095D02*
X113030380Y-56422190D01*
X113030380Y-56422190D02*
X112982761Y-56517428D01*
X112982761Y-56517428D02*
X112935142Y-56565047D01*
X112935142Y-56565047D02*
X112839904Y-56612666D01*
X112839904Y-56612666D02*
X112649428Y-56612666D01*
X112649428Y-56612666D02*
X112554190Y-56565047D01*
X112554190Y-56565047D02*
X112506571Y-56517428D01*
X112506571Y-56517428D02*
X112458952Y-56422190D01*
X111268475Y-56993619D02*
X111268475Y-55993619D01*
X110792285Y-56993619D02*
X110792285Y-55993619D01*
X110792285Y-55993619D02*
X110220857Y-56993619D01*
X110220857Y-56993619D02*
X110220857Y-55993619D01*
X109887523Y-55993619D02*
X109554190Y-56993619D01*
X109554190Y-56993619D02*
X109220857Y-55993619D01*
X107458951Y-56993619D02*
X106935142Y-56326952D01*
X107458951Y-56326952D02*
X106935142Y-56993619D01*
X106125618Y-55993619D02*
X106316094Y-55993619D01*
X106316094Y-55993619D02*
X106411332Y-56041238D01*
X106411332Y-56041238D02*
X106458951Y-56088857D01*
X106458951Y-56088857D02*
X106554189Y-56231714D01*
X106554189Y-56231714D02*
X106601808Y-56422190D01*
X106601808Y-56422190D02*
X106601808Y-56803142D01*
X106601808Y-56803142D02*
X106554189Y-56898380D01*
X106554189Y-56898380D02*
X106506570Y-56946000D01*
X106506570Y-56946000D02*
X106411332Y-56993619D01*
X106411332Y-56993619D02*
X106220856Y-56993619D01*
X106220856Y-56993619D02*
X106125618Y-56946000D01*
X106125618Y-56946000D02*
X106077999Y-56898380D01*
X106077999Y-56898380D02*
X106030380Y-56803142D01*
X106030380Y-56803142D02*
X106030380Y-56565047D01*
X106030380Y-56565047D02*
X106077999Y-56469809D01*
X106077999Y-56469809D02*
X106125618Y-56422190D01*
X106125618Y-56422190D02*
X106220856Y-56374571D01*
X106220856Y-56374571D02*
X106411332Y-56374571D01*
X106411332Y-56374571D02*
X106506570Y-56422190D01*
X106506570Y-56422190D02*
X106554189Y-56469809D01*
X106554189Y-56469809D02*
X106601808Y-56565047D01*
X115411333Y-57946952D02*
X115411333Y-58613619D01*
X115649428Y-57566000D02*
X115887523Y-58280285D01*
X115887523Y-58280285D02*
X115268476Y-58280285D01*
X114697047Y-57613619D02*
X114601809Y-57613619D01*
X114601809Y-57613619D02*
X114506571Y-57661238D01*
X114506571Y-57661238D02*
X114458952Y-57708857D01*
X114458952Y-57708857D02*
X114411333Y-57804095D01*
X114411333Y-57804095D02*
X114363714Y-57994571D01*
X114363714Y-57994571D02*
X114363714Y-58232666D01*
X114363714Y-58232666D02*
X114411333Y-58423142D01*
X114411333Y-58423142D02*
X114458952Y-58518380D01*
X114458952Y-58518380D02*
X114506571Y-58566000D01*
X114506571Y-58566000D02*
X114601809Y-58613619D01*
X114601809Y-58613619D02*
X114697047Y-58613619D01*
X114697047Y-58613619D02*
X114792285Y-58566000D01*
X114792285Y-58566000D02*
X114839904Y-58518380D01*
X114839904Y-58518380D02*
X114887523Y-58423142D01*
X114887523Y-58423142D02*
X114935142Y-58232666D01*
X114935142Y-58232666D02*
X114935142Y-57994571D01*
X114935142Y-57994571D02*
X114887523Y-57804095D01*
X114887523Y-57804095D02*
X114839904Y-57708857D01*
X114839904Y-57708857D02*
X114792285Y-57661238D01*
X114792285Y-57661238D02*
X114697047Y-57613619D01*
X113887523Y-58613619D02*
X113697047Y-58613619D01*
X113697047Y-58613619D02*
X113601809Y-58566000D01*
X113601809Y-58566000D02*
X113554190Y-58518380D01*
X113554190Y-58518380D02*
X113458952Y-58375523D01*
X113458952Y-58375523D02*
X113411333Y-58185047D01*
X113411333Y-58185047D02*
X113411333Y-57804095D01*
X113411333Y-57804095D02*
X113458952Y-57708857D01*
X113458952Y-57708857D02*
X113506571Y-57661238D01*
X113506571Y-57661238D02*
X113601809Y-57613619D01*
X113601809Y-57613619D02*
X113792285Y-57613619D01*
X113792285Y-57613619D02*
X113887523Y-57661238D01*
X113887523Y-57661238D02*
X113935142Y-57708857D01*
X113935142Y-57708857D02*
X113982761Y-57804095D01*
X113982761Y-57804095D02*
X113982761Y-58042190D01*
X113982761Y-58042190D02*
X113935142Y-58137428D01*
X113935142Y-58137428D02*
X113887523Y-58185047D01*
X113887523Y-58185047D02*
X113792285Y-58232666D01*
X113792285Y-58232666D02*
X113601809Y-58232666D01*
X113601809Y-58232666D02*
X113506571Y-58185047D01*
X113506571Y-58185047D02*
X113458952Y-58137428D01*
X113458952Y-58137428D02*
X113411333Y-58042190D01*
X112935142Y-58613619D02*
X112744666Y-58613619D01*
X112744666Y-58613619D02*
X112649428Y-58566000D01*
X112649428Y-58566000D02*
X112601809Y-58518380D01*
X112601809Y-58518380D02*
X112506571Y-58375523D01*
X112506571Y-58375523D02*
X112458952Y-58185047D01*
X112458952Y-58185047D02*
X112458952Y-57804095D01*
X112458952Y-57804095D02*
X112506571Y-57708857D01*
X112506571Y-57708857D02*
X112554190Y-57661238D01*
X112554190Y-57661238D02*
X112649428Y-57613619D01*
X112649428Y-57613619D02*
X112839904Y-57613619D01*
X112839904Y-57613619D02*
X112935142Y-57661238D01*
X112935142Y-57661238D02*
X112982761Y-57708857D01*
X112982761Y-57708857D02*
X113030380Y-57804095D01*
X113030380Y-57804095D02*
X113030380Y-58042190D01*
X113030380Y-58042190D02*
X112982761Y-58137428D01*
X112982761Y-58137428D02*
X112935142Y-58185047D01*
X112935142Y-58185047D02*
X112839904Y-58232666D01*
X112839904Y-58232666D02*
X112649428Y-58232666D01*
X112649428Y-58232666D02*
X112554190Y-58185047D01*
X112554190Y-58185047D02*
X112506571Y-58137428D01*
X112506571Y-58137428D02*
X112458952Y-58042190D01*
X111316094Y-58327904D02*
X110839904Y-58327904D01*
X111411332Y-58613619D02*
X111077999Y-57613619D01*
X111077999Y-57613619D02*
X110744666Y-58613619D01*
X109982761Y-58613619D02*
X109982761Y-57613619D01*
X109982761Y-58566000D02*
X110077999Y-58613619D01*
X110077999Y-58613619D02*
X110268475Y-58613619D01*
X110268475Y-58613619D02*
X110363713Y-58566000D01*
X110363713Y-58566000D02*
X110411332Y-58518380D01*
X110411332Y-58518380D02*
X110458951Y-58423142D01*
X110458951Y-58423142D02*
X110458951Y-58137428D01*
X110458951Y-58137428D02*
X110411332Y-58042190D01*
X110411332Y-58042190D02*
X110363713Y-57994571D01*
X110363713Y-57994571D02*
X110268475Y-57946952D01*
X110268475Y-57946952D02*
X110077999Y-57946952D01*
X110077999Y-57946952D02*
X109982761Y-57994571D01*
X109506570Y-58613619D02*
X109506570Y-57946952D01*
X109506570Y-58137428D02*
X109458951Y-58042190D01*
X109458951Y-58042190D02*
X109411332Y-57994571D01*
X109411332Y-57994571D02*
X109316094Y-57946952D01*
X109316094Y-57946952D02*
X109220856Y-57946952D01*
X107649427Y-58613619D02*
X108125617Y-58613619D01*
X108125617Y-58613619D02*
X108125617Y-57613619D01*
X106887522Y-58613619D02*
X106887522Y-58089809D01*
X106887522Y-58089809D02*
X106935141Y-57994571D01*
X106935141Y-57994571D02*
X107030379Y-57946952D01*
X107030379Y-57946952D02*
X107220855Y-57946952D01*
X107220855Y-57946952D02*
X107316093Y-57994571D01*
X106887522Y-58566000D02*
X106982760Y-58613619D01*
X106982760Y-58613619D02*
X107220855Y-58613619D01*
X107220855Y-58613619D02*
X107316093Y-58566000D01*
X107316093Y-58566000D02*
X107363712Y-58470761D01*
X107363712Y-58470761D02*
X107363712Y-58375523D01*
X107363712Y-58375523D02*
X107316093Y-58280285D01*
X107316093Y-58280285D02*
X107220855Y-58232666D01*
X107220855Y-58232666D02*
X106982760Y-58232666D01*
X106982760Y-58232666D02*
X106887522Y-58185047D01*
X106554188Y-57946952D02*
X106173236Y-57946952D01*
X106411331Y-57613619D02*
X106411331Y-58470761D01*
X106411331Y-58470761D02*
X106363712Y-58566000D01*
X106363712Y-58566000D02*
X106268474Y-58613619D01*
X106268474Y-58613619D02*
X106173236Y-58613619D01*
X115411333Y-59566952D02*
X115411333Y-60233619D01*
X115649428Y-59186000D02*
X115887523Y-59900285D01*
X115887523Y-59900285D02*
X115268476Y-59900285D01*
X114411333Y-59233619D02*
X114887523Y-59233619D01*
X114887523Y-59233619D02*
X114935142Y-59709809D01*
X114935142Y-59709809D02*
X114887523Y-59662190D01*
X114887523Y-59662190D02*
X114792285Y-59614571D01*
X114792285Y-59614571D02*
X114554190Y-59614571D01*
X114554190Y-59614571D02*
X114458952Y-59662190D01*
X114458952Y-59662190D02*
X114411333Y-59709809D01*
X114411333Y-59709809D02*
X114363714Y-59805047D01*
X114363714Y-59805047D02*
X114363714Y-60043142D01*
X114363714Y-60043142D02*
X114411333Y-60138380D01*
X114411333Y-60138380D02*
X114458952Y-60186000D01*
X114458952Y-60186000D02*
X114554190Y-60233619D01*
X114554190Y-60233619D02*
X114792285Y-60233619D01*
X114792285Y-60233619D02*
X114887523Y-60186000D01*
X114887523Y-60186000D02*
X114935142Y-60138380D01*
X113411333Y-60233619D02*
X113982761Y-60233619D01*
X113697047Y-60233619D02*
X113697047Y-59233619D01*
X113697047Y-59233619D02*
X113792285Y-59376476D01*
X113792285Y-59376476D02*
X113887523Y-59471714D01*
X113887523Y-59471714D02*
X113982761Y-59519333D01*
X113030380Y-59328857D02*
X112982761Y-59281238D01*
X112982761Y-59281238D02*
X112887523Y-59233619D01*
X112887523Y-59233619D02*
X112649428Y-59233619D01*
X112649428Y-59233619D02*
X112554190Y-59281238D01*
X112554190Y-59281238D02*
X112506571Y-59328857D01*
X112506571Y-59328857D02*
X112458952Y-59424095D01*
X112458952Y-59424095D02*
X112458952Y-59519333D01*
X112458952Y-59519333D02*
X112506571Y-59662190D01*
X112506571Y-59662190D02*
X113077999Y-60233619D01*
X113077999Y-60233619D02*
X112458952Y-60233619D01*
X111268475Y-60233619D02*
X111268475Y-59233619D01*
X111268475Y-59233619D02*
X111030380Y-59233619D01*
X111030380Y-59233619D02*
X110887523Y-59281238D01*
X110887523Y-59281238D02*
X110792285Y-59376476D01*
X110792285Y-59376476D02*
X110744666Y-59471714D01*
X110744666Y-59471714D02*
X110697047Y-59662190D01*
X110697047Y-59662190D02*
X110697047Y-59805047D01*
X110697047Y-59805047D02*
X110744666Y-59995523D01*
X110744666Y-59995523D02*
X110792285Y-60090761D01*
X110792285Y-60090761D02*
X110887523Y-60186000D01*
X110887523Y-60186000D02*
X111030380Y-60233619D01*
X111030380Y-60233619D02*
X111268475Y-60233619D01*
X109839904Y-60233619D02*
X109839904Y-59709809D01*
X109839904Y-59709809D02*
X109887523Y-59614571D01*
X109887523Y-59614571D02*
X109982761Y-59566952D01*
X109982761Y-59566952D02*
X110173237Y-59566952D01*
X110173237Y-59566952D02*
X110268475Y-59614571D01*
X109839904Y-60186000D02*
X109935142Y-60233619D01*
X109935142Y-60233619D02*
X110173237Y-60233619D01*
X110173237Y-60233619D02*
X110268475Y-60186000D01*
X110268475Y-60186000D02*
X110316094Y-60090761D01*
X110316094Y-60090761D02*
X110316094Y-59995523D01*
X110316094Y-59995523D02*
X110268475Y-59900285D01*
X110268475Y-59900285D02*
X110173237Y-59852666D01*
X110173237Y-59852666D02*
X109935142Y-59852666D01*
X109935142Y-59852666D02*
X109839904Y-59805047D01*
X109506570Y-59566952D02*
X109125618Y-59566952D01*
X109363713Y-59233619D02*
X109363713Y-60090761D01*
X109363713Y-60090761D02*
X109316094Y-60186000D01*
X109316094Y-60186000D02*
X109220856Y-60233619D01*
X109220856Y-60233619D02*
X109125618Y-60233619D01*
X108077998Y-60186000D02*
X107935141Y-60233619D01*
X107935141Y-60233619D02*
X107697046Y-60233619D01*
X107697046Y-60233619D02*
X107601808Y-60186000D01*
X107601808Y-60186000D02*
X107554189Y-60138380D01*
X107554189Y-60138380D02*
X107506570Y-60043142D01*
X107506570Y-60043142D02*
X107506570Y-59947904D01*
X107506570Y-59947904D02*
X107554189Y-59852666D01*
X107554189Y-59852666D02*
X107601808Y-59805047D01*
X107601808Y-59805047D02*
X107697046Y-59757428D01*
X107697046Y-59757428D02*
X107887522Y-59709809D01*
X107887522Y-59709809D02*
X107982760Y-59662190D01*
X107982760Y-59662190D02*
X108030379Y-59614571D01*
X108030379Y-59614571D02*
X108077998Y-59519333D01*
X108077998Y-59519333D02*
X108077998Y-59424095D01*
X108077998Y-59424095D02*
X108030379Y-59328857D01*
X108030379Y-59328857D02*
X107982760Y-59281238D01*
X107982760Y-59281238D02*
X107887522Y-59233619D01*
X107887522Y-59233619D02*
X107649427Y-59233619D01*
X107649427Y-59233619D02*
X107506570Y-59281238D01*
X106697046Y-60186000D02*
X106792284Y-60233619D01*
X106792284Y-60233619D02*
X106982760Y-60233619D01*
X106982760Y-60233619D02*
X107077998Y-60186000D01*
X107077998Y-60186000D02*
X107125617Y-60090761D01*
X107125617Y-60090761D02*
X107125617Y-59709809D01*
X107125617Y-59709809D02*
X107077998Y-59614571D01*
X107077998Y-59614571D02*
X106982760Y-59566952D01*
X106982760Y-59566952D02*
X106792284Y-59566952D01*
X106792284Y-59566952D02*
X106697046Y-59614571D01*
X106697046Y-59614571D02*
X106649427Y-59709809D01*
X106649427Y-59709809D02*
X106649427Y-59805047D01*
X106649427Y-59805047D02*
X107125617Y-59900285D01*
X106077998Y-60233619D02*
X106173236Y-60186000D01*
X106173236Y-60186000D02*
X106220855Y-60090761D01*
X106220855Y-60090761D02*
X106220855Y-59233619D01*
X115411333Y-61186952D02*
X115411333Y-61853619D01*
X115649428Y-60806000D02*
X115887523Y-61520285D01*
X115887523Y-61520285D02*
X115268476Y-61520285D01*
X114411333Y-60853619D02*
X114887523Y-60853619D01*
X114887523Y-60853619D02*
X114935142Y-61329809D01*
X114935142Y-61329809D02*
X114887523Y-61282190D01*
X114887523Y-61282190D02*
X114792285Y-61234571D01*
X114792285Y-61234571D02*
X114554190Y-61234571D01*
X114554190Y-61234571D02*
X114458952Y-61282190D01*
X114458952Y-61282190D02*
X114411333Y-61329809D01*
X114411333Y-61329809D02*
X114363714Y-61425047D01*
X114363714Y-61425047D02*
X114363714Y-61663142D01*
X114363714Y-61663142D02*
X114411333Y-61758380D01*
X114411333Y-61758380D02*
X114458952Y-61806000D01*
X114458952Y-61806000D02*
X114554190Y-61853619D01*
X114554190Y-61853619D02*
X114792285Y-61853619D01*
X114792285Y-61853619D02*
X114887523Y-61806000D01*
X114887523Y-61806000D02*
X114935142Y-61758380D01*
X113982761Y-60948857D02*
X113935142Y-60901238D01*
X113935142Y-60901238D02*
X113839904Y-60853619D01*
X113839904Y-60853619D02*
X113601809Y-60853619D01*
X113601809Y-60853619D02*
X113506571Y-60901238D01*
X113506571Y-60901238D02*
X113458952Y-60948857D01*
X113458952Y-60948857D02*
X113411333Y-61044095D01*
X113411333Y-61044095D02*
X113411333Y-61139333D01*
X113411333Y-61139333D02*
X113458952Y-61282190D01*
X113458952Y-61282190D02*
X114030380Y-61853619D01*
X114030380Y-61853619D02*
X113411333Y-61853619D01*
X112792285Y-60853619D02*
X112697047Y-60853619D01*
X112697047Y-60853619D02*
X112601809Y-60901238D01*
X112601809Y-60901238D02*
X112554190Y-60948857D01*
X112554190Y-60948857D02*
X112506571Y-61044095D01*
X112506571Y-61044095D02*
X112458952Y-61234571D01*
X112458952Y-61234571D02*
X112458952Y-61472666D01*
X112458952Y-61472666D02*
X112506571Y-61663142D01*
X112506571Y-61663142D02*
X112554190Y-61758380D01*
X112554190Y-61758380D02*
X112601809Y-61806000D01*
X112601809Y-61806000D02*
X112697047Y-61853619D01*
X112697047Y-61853619D02*
X112792285Y-61853619D01*
X112792285Y-61853619D02*
X112887523Y-61806000D01*
X112887523Y-61806000D02*
X112935142Y-61758380D01*
X112935142Y-61758380D02*
X112982761Y-61663142D01*
X112982761Y-61663142D02*
X113030380Y-61472666D01*
X113030380Y-61472666D02*
X113030380Y-61234571D01*
X113030380Y-61234571D02*
X112982761Y-61044095D01*
X112982761Y-61044095D02*
X112935142Y-60948857D01*
X112935142Y-60948857D02*
X112887523Y-60901238D01*
X112887523Y-60901238D02*
X112792285Y-60853619D01*
X110935142Y-61329809D02*
X110792285Y-61377428D01*
X110792285Y-61377428D02*
X110744666Y-61425047D01*
X110744666Y-61425047D02*
X110697047Y-61520285D01*
X110697047Y-61520285D02*
X110697047Y-61663142D01*
X110697047Y-61663142D02*
X110744666Y-61758380D01*
X110744666Y-61758380D02*
X110792285Y-61806000D01*
X110792285Y-61806000D02*
X110887523Y-61853619D01*
X110887523Y-61853619D02*
X111268475Y-61853619D01*
X111268475Y-61853619D02*
X111268475Y-60853619D01*
X111268475Y-60853619D02*
X110935142Y-60853619D01*
X110935142Y-60853619D02*
X110839904Y-60901238D01*
X110839904Y-60901238D02*
X110792285Y-60948857D01*
X110792285Y-60948857D02*
X110744666Y-61044095D01*
X110744666Y-61044095D02*
X110744666Y-61139333D01*
X110744666Y-61139333D02*
X110792285Y-61234571D01*
X110792285Y-61234571D02*
X110839904Y-61282190D01*
X110839904Y-61282190D02*
X110935142Y-61329809D01*
X110935142Y-61329809D02*
X111268475Y-61329809D01*
X110268475Y-61853619D02*
X110268475Y-61186952D01*
X110268475Y-60853619D02*
X110316094Y-60901238D01*
X110316094Y-60901238D02*
X110268475Y-60948857D01*
X110268475Y-60948857D02*
X110220856Y-60901238D01*
X110220856Y-60901238D02*
X110268475Y-60853619D01*
X110268475Y-60853619D02*
X110268475Y-60948857D01*
X109792285Y-61186952D02*
X109792285Y-61853619D01*
X109792285Y-61282190D02*
X109744666Y-61234571D01*
X109744666Y-61234571D02*
X109649428Y-61186952D01*
X109649428Y-61186952D02*
X109506571Y-61186952D01*
X109506571Y-61186952D02*
X109411333Y-61234571D01*
X109411333Y-61234571D02*
X109363714Y-61329809D01*
X109363714Y-61329809D02*
X109363714Y-61853619D01*
X107554190Y-61758380D02*
X107601809Y-61806000D01*
X107601809Y-61806000D02*
X107744666Y-61853619D01*
X107744666Y-61853619D02*
X107839904Y-61853619D01*
X107839904Y-61853619D02*
X107982761Y-61806000D01*
X107982761Y-61806000D02*
X108077999Y-61710761D01*
X108077999Y-61710761D02*
X108125618Y-61615523D01*
X108125618Y-61615523D02*
X108173237Y-61425047D01*
X108173237Y-61425047D02*
X108173237Y-61282190D01*
X108173237Y-61282190D02*
X108125618Y-61091714D01*
X108125618Y-61091714D02*
X108077999Y-60996476D01*
X108077999Y-60996476D02*
X107982761Y-60901238D01*
X107982761Y-60901238D02*
X107839904Y-60853619D01*
X107839904Y-60853619D02*
X107744666Y-60853619D01*
X107744666Y-60853619D02*
X107601809Y-60901238D01*
X107601809Y-60901238D02*
X107554190Y-60948857D01*
X107125618Y-61186952D02*
X107125618Y-61853619D01*
X107125618Y-61282190D02*
X107077999Y-61234571D01*
X107077999Y-61234571D02*
X106982761Y-61186952D01*
X106982761Y-61186952D02*
X106839904Y-61186952D01*
X106839904Y-61186952D02*
X106744666Y-61234571D01*
X106744666Y-61234571D02*
X106697047Y-61329809D01*
X106697047Y-61329809D02*
X106697047Y-61853619D01*
X106363713Y-61186952D02*
X105982761Y-61186952D01*
X106220856Y-60853619D02*
X106220856Y-61710761D01*
X106220856Y-61710761D02*
X106173237Y-61806000D01*
X106173237Y-61806000D02*
X106077999Y-61853619D01*
X106077999Y-61853619D02*
X105982761Y-61853619D01*
X110505904Y-129129619D02*
X110505904Y-128129619D01*
X110505904Y-128129619D02*
X110124952Y-128129619D01*
X110124952Y-128129619D02*
X110029714Y-128177238D01*
X110029714Y-128177238D02*
X109982095Y-128224857D01*
X109982095Y-128224857D02*
X109934476Y-128320095D01*
X109934476Y-128320095D02*
X109934476Y-128462952D01*
X109934476Y-128462952D02*
X109982095Y-128558190D01*
X109982095Y-128558190D02*
X110029714Y-128605809D01*
X110029714Y-128605809D02*
X110124952Y-128653428D01*
X110124952Y-128653428D02*
X110505904Y-128653428D01*
X109363047Y-129129619D02*
X109458285Y-129082000D01*
X109458285Y-129082000D02*
X109505904Y-129034380D01*
X109505904Y-129034380D02*
X109553523Y-128939142D01*
X109553523Y-128939142D02*
X109553523Y-128653428D01*
X109553523Y-128653428D02*
X109505904Y-128558190D01*
X109505904Y-128558190D02*
X109458285Y-128510571D01*
X109458285Y-128510571D02*
X109363047Y-128462952D01*
X109363047Y-128462952D02*
X109220190Y-128462952D01*
X109220190Y-128462952D02*
X109124952Y-128510571D01*
X109124952Y-128510571D02*
X109077333Y-128558190D01*
X109077333Y-128558190D02*
X109029714Y-128653428D01*
X109029714Y-128653428D02*
X109029714Y-128939142D01*
X109029714Y-128939142D02*
X109077333Y-129034380D01*
X109077333Y-129034380D02*
X109124952Y-129082000D01*
X109124952Y-129082000D02*
X109220190Y-129129619D01*
X109220190Y-129129619D02*
X109363047Y-129129619D01*
X108696380Y-128462952D02*
X108505904Y-129129619D01*
X108505904Y-129129619D02*
X108315428Y-128653428D01*
X108315428Y-128653428D02*
X108124952Y-129129619D01*
X108124952Y-129129619D02*
X107934476Y-128462952D01*
X107172571Y-129082000D02*
X107267809Y-129129619D01*
X107267809Y-129129619D02*
X107458285Y-129129619D01*
X107458285Y-129129619D02*
X107553523Y-129082000D01*
X107553523Y-129082000D02*
X107601142Y-128986761D01*
X107601142Y-128986761D02*
X107601142Y-128605809D01*
X107601142Y-128605809D02*
X107553523Y-128510571D01*
X107553523Y-128510571D02*
X107458285Y-128462952D01*
X107458285Y-128462952D02*
X107267809Y-128462952D01*
X107267809Y-128462952D02*
X107172571Y-128510571D01*
X107172571Y-128510571D02*
X107124952Y-128605809D01*
X107124952Y-128605809D02*
X107124952Y-128701047D01*
X107124952Y-128701047D02*
X107601142Y-128796285D01*
X106696380Y-129129619D02*
X106696380Y-128462952D01*
X106696380Y-128653428D02*
X106648761Y-128558190D01*
X106648761Y-128558190D02*
X106601142Y-128510571D01*
X106601142Y-128510571D02*
X106505904Y-128462952D01*
X106505904Y-128462952D02*
X106410666Y-128462952D01*
X109934476Y-130654380D02*
X109982095Y-130702000D01*
X109982095Y-130702000D02*
X110124952Y-130749619D01*
X110124952Y-130749619D02*
X110220190Y-130749619D01*
X110220190Y-130749619D02*
X110363047Y-130702000D01*
X110363047Y-130702000D02*
X110458285Y-130606761D01*
X110458285Y-130606761D02*
X110505904Y-130511523D01*
X110505904Y-130511523D02*
X110553523Y-130321047D01*
X110553523Y-130321047D02*
X110553523Y-130178190D01*
X110553523Y-130178190D02*
X110505904Y-129987714D01*
X110505904Y-129987714D02*
X110458285Y-129892476D01*
X110458285Y-129892476D02*
X110363047Y-129797238D01*
X110363047Y-129797238D02*
X110220190Y-129749619D01*
X110220190Y-129749619D02*
X110124952Y-129749619D01*
X110124952Y-129749619D02*
X109982095Y-129797238D01*
X109982095Y-129797238D02*
X109934476Y-129844857D01*
X109505904Y-130749619D02*
X109505904Y-129749619D01*
X109505904Y-129749619D02*
X109124952Y-129749619D01*
X109124952Y-129749619D02*
X109029714Y-129797238D01*
X109029714Y-129797238D02*
X108982095Y-129844857D01*
X108982095Y-129844857D02*
X108934476Y-129940095D01*
X108934476Y-129940095D02*
X108934476Y-130082952D01*
X108934476Y-130082952D02*
X108982095Y-130178190D01*
X108982095Y-130178190D02*
X109029714Y-130225809D01*
X109029714Y-130225809D02*
X109124952Y-130273428D01*
X109124952Y-130273428D02*
X109505904Y-130273428D01*
X108505904Y-129749619D02*
X108505904Y-130559142D01*
X108505904Y-130559142D02*
X108458285Y-130654380D01*
X108458285Y-130654380D02*
X108410666Y-130702000D01*
X108410666Y-130702000D02*
X108315428Y-130749619D01*
X108315428Y-130749619D02*
X108124952Y-130749619D01*
X108124952Y-130749619D02*
X108029714Y-130702000D01*
X108029714Y-130702000D02*
X107982095Y-130654380D01*
X107982095Y-130654380D02*
X107934476Y-130559142D01*
X107934476Y-130559142D02*
X107934476Y-129749619D01*
X106791618Y-129749619D02*
X106172571Y-129749619D01*
X106172571Y-129749619D02*
X106505904Y-130130571D01*
X106505904Y-130130571D02*
X106363047Y-130130571D01*
X106363047Y-130130571D02*
X106267809Y-130178190D01*
X106267809Y-130178190D02*
X106220190Y-130225809D01*
X106220190Y-130225809D02*
X106172571Y-130321047D01*
X106172571Y-130321047D02*
X106172571Y-130559142D01*
X106172571Y-130559142D02*
X106220190Y-130654380D01*
X106220190Y-130654380D02*
X106267809Y-130702000D01*
X106267809Y-130702000D02*
X106363047Y-130749619D01*
X106363047Y-130749619D02*
X106648761Y-130749619D01*
X106648761Y-130749619D02*
X106743999Y-130702000D01*
X106743999Y-130702000D02*
X106791618Y-130654380D01*
X105743999Y-130368666D02*
X104982095Y-130368666D01*
X103982095Y-130749619D02*
X104553523Y-130749619D01*
X104267809Y-130749619D02*
X104267809Y-129749619D01*
X104267809Y-129749619D02*
X104363047Y-129892476D01*
X104363047Y-129892476D02*
X104458285Y-129987714D01*
X104458285Y-129987714D02*
X104553523Y-130035333D01*
X103077333Y-129749619D02*
X103553523Y-129749619D01*
X103553523Y-129749619D02*
X103601142Y-130225809D01*
X103601142Y-130225809D02*
X103553523Y-130178190D01*
X103553523Y-130178190D02*
X103458285Y-130130571D01*
X103458285Y-130130571D02*
X103220190Y-130130571D01*
X103220190Y-130130571D02*
X103124952Y-130178190D01*
X103124952Y-130178190D02*
X103077333Y-130225809D01*
X103077333Y-130225809D02*
X103029714Y-130321047D01*
X103029714Y-130321047D02*
X103029714Y-130559142D01*
X103029714Y-130559142D02*
X103077333Y-130654380D01*
X103077333Y-130654380D02*
X103124952Y-130702000D01*
X103124952Y-130702000D02*
X103220190Y-130749619D01*
X103220190Y-130749619D02*
X103458285Y-130749619D01*
X103458285Y-130749619D02*
X103553523Y-130702000D01*
X103553523Y-130702000D02*
X103601142Y-130654380D01*
X102743999Y-129749619D02*
X102410666Y-130749619D01*
X102410666Y-130749619D02*
X102077333Y-129749619D01*
X110505904Y-131845809D02*
X110172571Y-131845809D01*
X110029714Y-132369619D02*
X110505904Y-132369619D01*
X110505904Y-132369619D02*
X110505904Y-131369619D01*
X110505904Y-131369619D02*
X110029714Y-131369619D01*
X109601142Y-132369619D02*
X109601142Y-131369619D01*
X109601142Y-131369619D02*
X109220190Y-131369619D01*
X109220190Y-131369619D02*
X109124952Y-131417238D01*
X109124952Y-131417238D02*
X109077333Y-131464857D01*
X109077333Y-131464857D02*
X109029714Y-131560095D01*
X109029714Y-131560095D02*
X109029714Y-131702952D01*
X109029714Y-131702952D02*
X109077333Y-131798190D01*
X109077333Y-131798190D02*
X109124952Y-131845809D01*
X109124952Y-131845809D02*
X109220190Y-131893428D01*
X109220190Y-131893428D02*
X109601142Y-131893428D01*
X108029714Y-132369619D02*
X108363047Y-131893428D01*
X108601142Y-132369619D02*
X108601142Y-131369619D01*
X108601142Y-131369619D02*
X108220190Y-131369619D01*
X108220190Y-131369619D02*
X108124952Y-131417238D01*
X108124952Y-131417238D02*
X108077333Y-131464857D01*
X108077333Y-131464857D02*
X108029714Y-131560095D01*
X108029714Y-131560095D02*
X108029714Y-131702952D01*
X108029714Y-131702952D02*
X108077333Y-131798190D01*
X108077333Y-131798190D02*
X108124952Y-131845809D01*
X108124952Y-131845809D02*
X108220190Y-131893428D01*
X108220190Y-131893428D02*
X108601142Y-131893428D01*
X107410666Y-131369619D02*
X107220190Y-131369619D01*
X107220190Y-131369619D02*
X107124952Y-131417238D01*
X107124952Y-131417238D02*
X107029714Y-131512476D01*
X107029714Y-131512476D02*
X106982095Y-131702952D01*
X106982095Y-131702952D02*
X106982095Y-132036285D01*
X106982095Y-132036285D02*
X107029714Y-132226761D01*
X107029714Y-132226761D02*
X107124952Y-132322000D01*
X107124952Y-132322000D02*
X107220190Y-132369619D01*
X107220190Y-132369619D02*
X107410666Y-132369619D01*
X107410666Y-132369619D02*
X107505904Y-132322000D01*
X107505904Y-132322000D02*
X107601142Y-132226761D01*
X107601142Y-132226761D02*
X107648761Y-132036285D01*
X107648761Y-132036285D02*
X107648761Y-131702952D01*
X107648761Y-131702952D02*
X107601142Y-131512476D01*
X107601142Y-131512476D02*
X107505904Y-131417238D01*
X107505904Y-131417238D02*
X107410666Y-131369619D01*
X106553523Y-132369619D02*
X106553523Y-131369619D01*
X106553523Y-131369619D02*
X106220190Y-132083904D01*
X106220190Y-132083904D02*
X105886857Y-131369619D01*
X105886857Y-131369619D02*
X105886857Y-132369619D01*
X104172571Y-131369619D02*
X104648761Y-131369619D01*
X104648761Y-131369619D02*
X104696380Y-131845809D01*
X104696380Y-131845809D02*
X104648761Y-131798190D01*
X104648761Y-131798190D02*
X104553523Y-131750571D01*
X104553523Y-131750571D02*
X104315428Y-131750571D01*
X104315428Y-131750571D02*
X104220190Y-131798190D01*
X104220190Y-131798190D02*
X104172571Y-131845809D01*
X104172571Y-131845809D02*
X104124952Y-131941047D01*
X104124952Y-131941047D02*
X104124952Y-132179142D01*
X104124952Y-132179142D02*
X104172571Y-132274380D01*
X104172571Y-132274380D02*
X104220190Y-132322000D01*
X104220190Y-132322000D02*
X104315428Y-132369619D01*
X104315428Y-132369619D02*
X104553523Y-132369619D01*
X104553523Y-132369619D02*
X104648761Y-132322000D01*
X104648761Y-132322000D02*
X104696380Y-132274380D01*
X103839237Y-131369619D02*
X103505904Y-132369619D01*
X103505904Y-132369619D02*
X103172571Y-131369619D01*
X110505904Y-133989619D02*
X110505904Y-132989619D01*
X110505904Y-132989619D02*
X110124952Y-132989619D01*
X110124952Y-132989619D02*
X110029714Y-133037238D01*
X110029714Y-133037238D02*
X109982095Y-133084857D01*
X109982095Y-133084857D02*
X109934476Y-133180095D01*
X109934476Y-133180095D02*
X109934476Y-133322952D01*
X109934476Y-133322952D02*
X109982095Y-133418190D01*
X109982095Y-133418190D02*
X110029714Y-133465809D01*
X110029714Y-133465809D02*
X110124952Y-133513428D01*
X110124952Y-133513428D02*
X110505904Y-133513428D01*
X109505904Y-133989619D02*
X109505904Y-132989619D01*
X108458286Y-133894380D02*
X108505905Y-133942000D01*
X108505905Y-133942000D02*
X108648762Y-133989619D01*
X108648762Y-133989619D02*
X108744000Y-133989619D01*
X108744000Y-133989619D02*
X108886857Y-133942000D01*
X108886857Y-133942000D02*
X108982095Y-133846761D01*
X108982095Y-133846761D02*
X109029714Y-133751523D01*
X109029714Y-133751523D02*
X109077333Y-133561047D01*
X109077333Y-133561047D02*
X109077333Y-133418190D01*
X109077333Y-133418190D02*
X109029714Y-133227714D01*
X109029714Y-133227714D02*
X108982095Y-133132476D01*
X108982095Y-133132476D02*
X108886857Y-133037238D01*
X108886857Y-133037238D02*
X108744000Y-132989619D01*
X108744000Y-132989619D02*
X108648762Y-132989619D01*
X108648762Y-132989619D02*
X108505905Y-133037238D01*
X108505905Y-133037238D02*
X108458286Y-133084857D01*
X107363047Y-132989619D02*
X106744000Y-132989619D01*
X106744000Y-132989619D02*
X107077333Y-133370571D01*
X107077333Y-133370571D02*
X106934476Y-133370571D01*
X106934476Y-133370571D02*
X106839238Y-133418190D01*
X106839238Y-133418190D02*
X106791619Y-133465809D01*
X106791619Y-133465809D02*
X106744000Y-133561047D01*
X106744000Y-133561047D02*
X106744000Y-133799142D01*
X106744000Y-133799142D02*
X106791619Y-133894380D01*
X106791619Y-133894380D02*
X106839238Y-133942000D01*
X106839238Y-133942000D02*
X106934476Y-133989619D01*
X106934476Y-133989619D02*
X107220190Y-133989619D01*
X107220190Y-133989619D02*
X107315428Y-133942000D01*
X107315428Y-133942000D02*
X107363047Y-133894380D01*
X106315428Y-133608666D02*
X105553524Y-133608666D01*
X104601143Y-132989619D02*
X105077333Y-132989619D01*
X105077333Y-132989619D02*
X105124952Y-133465809D01*
X105124952Y-133465809D02*
X105077333Y-133418190D01*
X105077333Y-133418190D02*
X104982095Y-133370571D01*
X104982095Y-133370571D02*
X104744000Y-133370571D01*
X104744000Y-133370571D02*
X104648762Y-133418190D01*
X104648762Y-133418190D02*
X104601143Y-133465809D01*
X104601143Y-133465809D02*
X104553524Y-133561047D01*
X104553524Y-133561047D02*
X104553524Y-133799142D01*
X104553524Y-133799142D02*
X104601143Y-133894380D01*
X104601143Y-133894380D02*
X104648762Y-133942000D01*
X104648762Y-133942000D02*
X104744000Y-133989619D01*
X104744000Y-133989619D02*
X104982095Y-133989619D01*
X104982095Y-133989619D02*
X105077333Y-133942000D01*
X105077333Y-133942000D02*
X105124952Y-133894380D01*
X104267809Y-132989619D02*
X103934476Y-133989619D01*
X103934476Y-133989619D02*
X103601143Y-132989619D01*
X169513285Y-126654428D02*
X168441857Y-126654428D01*
X169084714Y-126011571D02*
X169513285Y-127940142D01*
X168584714Y-127297285D02*
X169656142Y-127297285D01*
X169013285Y-127940142D02*
X168584714Y-126011571D01*
X167084714Y-127511571D02*
X167156142Y-127583000D01*
X167156142Y-127583000D02*
X167370428Y-127654428D01*
X167370428Y-127654428D02*
X167513285Y-127654428D01*
X167513285Y-127654428D02*
X167727571Y-127583000D01*
X167727571Y-127583000D02*
X167870428Y-127440142D01*
X167870428Y-127440142D02*
X167941857Y-127297285D01*
X167941857Y-127297285D02*
X168013285Y-127011571D01*
X168013285Y-127011571D02*
X168013285Y-126797285D01*
X168013285Y-126797285D02*
X167941857Y-126511571D01*
X167941857Y-126511571D02*
X167870428Y-126368714D01*
X167870428Y-126368714D02*
X167727571Y-126225857D01*
X167727571Y-126225857D02*
X167513285Y-126154428D01*
X167513285Y-126154428D02*
X167370428Y-126154428D01*
X167370428Y-126154428D02*
X167156142Y-126225857D01*
X167156142Y-126225857D02*
X167084714Y-126297285D01*
X164870428Y-126154428D02*
X164870428Y-127225857D01*
X164870428Y-127225857D02*
X164941857Y-127440142D01*
X164941857Y-127440142D02*
X165084714Y-127583000D01*
X165084714Y-127583000D02*
X165299000Y-127654428D01*
X165299000Y-127654428D02*
X165441857Y-127654428D01*
X164156143Y-127654428D02*
X164156143Y-126154428D01*
X164156143Y-126154428D02*
X163656143Y-127225857D01*
X163656143Y-127225857D02*
X163156143Y-126154428D01*
X163156143Y-126154428D02*
X163156143Y-127654428D01*
X162441857Y-127654428D02*
X162441857Y-126154428D01*
X162441857Y-126154428D02*
X161870428Y-126154428D01*
X161870428Y-126154428D02*
X161727571Y-126225857D01*
X161727571Y-126225857D02*
X161656142Y-126297285D01*
X161656142Y-126297285D02*
X161584714Y-126440142D01*
X161584714Y-126440142D02*
X161584714Y-126654428D01*
X161584714Y-126654428D02*
X161656142Y-126797285D01*
X161656142Y-126797285D02*
X161727571Y-126868714D01*
X161727571Y-126868714D02*
X161870428Y-126940142D01*
X161870428Y-126940142D02*
X162441857Y-126940142D01*
X169513285Y-129084428D02*
X168441857Y-129084428D01*
X169084714Y-128441571D02*
X169513285Y-130370142D01*
X168584714Y-129727285D02*
X169656142Y-129727285D01*
X169013285Y-130370142D02*
X168584714Y-128441571D01*
X167941857Y-130084428D02*
X167941857Y-128584428D01*
X167941857Y-128584428D02*
X167584714Y-128584428D01*
X167584714Y-128584428D02*
X167370428Y-128655857D01*
X167370428Y-128655857D02*
X167227571Y-128798714D01*
X167227571Y-128798714D02*
X167156142Y-128941571D01*
X167156142Y-128941571D02*
X167084714Y-129227285D01*
X167084714Y-129227285D02*
X167084714Y-129441571D01*
X167084714Y-129441571D02*
X167156142Y-129727285D01*
X167156142Y-129727285D02*
X167227571Y-129870142D01*
X167227571Y-129870142D02*
X167370428Y-130013000D01*
X167370428Y-130013000D02*
X167584714Y-130084428D01*
X167584714Y-130084428D02*
X167941857Y-130084428D01*
X164441857Y-130084428D02*
X164941857Y-129370142D01*
X165299000Y-130084428D02*
X165299000Y-128584428D01*
X165299000Y-128584428D02*
X164727571Y-128584428D01*
X164727571Y-128584428D02*
X164584714Y-128655857D01*
X164584714Y-128655857D02*
X164513285Y-128727285D01*
X164513285Y-128727285D02*
X164441857Y-128870142D01*
X164441857Y-128870142D02*
X164441857Y-129084428D01*
X164441857Y-129084428D02*
X164513285Y-129227285D01*
X164513285Y-129227285D02*
X164584714Y-129298714D01*
X164584714Y-129298714D02*
X164727571Y-129370142D01*
X164727571Y-129370142D02*
X165299000Y-129370142D01*
X164013285Y-128584428D02*
X163156143Y-128584428D01*
X163584714Y-130084428D02*
X163584714Y-128584428D01*
X162656143Y-130084428D02*
X162656143Y-128584428D01*
X162656143Y-128584428D02*
X161799000Y-130084428D01*
X161799000Y-130084428D02*
X161799000Y-128584428D01*
X169513285Y-131514428D02*
X168441857Y-131514428D01*
X169084714Y-130871571D02*
X169513285Y-132800142D01*
X168584714Y-132157285D02*
X169656142Y-132157285D01*
X169013285Y-132800142D02*
X168584714Y-130871571D01*
X167941857Y-131728714D02*
X167441857Y-131728714D01*
X167227571Y-132514428D02*
X167941857Y-132514428D01*
X167941857Y-132514428D02*
X167941857Y-131014428D01*
X167941857Y-131014428D02*
X167227571Y-131014428D01*
X165513285Y-132443000D02*
X165299000Y-132514428D01*
X165299000Y-132514428D02*
X164941857Y-132514428D01*
X164941857Y-132514428D02*
X164799000Y-132443000D01*
X164799000Y-132443000D02*
X164727571Y-132371571D01*
X164727571Y-132371571D02*
X164656142Y-132228714D01*
X164656142Y-132228714D02*
X164656142Y-132085857D01*
X164656142Y-132085857D02*
X164727571Y-131943000D01*
X164727571Y-131943000D02*
X164799000Y-131871571D01*
X164799000Y-131871571D02*
X164941857Y-131800142D01*
X164941857Y-131800142D02*
X165227571Y-131728714D01*
X165227571Y-131728714D02*
X165370428Y-131657285D01*
X165370428Y-131657285D02*
X165441857Y-131585857D01*
X165441857Y-131585857D02*
X165513285Y-131443000D01*
X165513285Y-131443000D02*
X165513285Y-131300142D01*
X165513285Y-131300142D02*
X165441857Y-131157285D01*
X165441857Y-131157285D02*
X165370428Y-131085857D01*
X165370428Y-131085857D02*
X165227571Y-131014428D01*
X165227571Y-131014428D02*
X164870428Y-131014428D01*
X164870428Y-131014428D02*
X164656142Y-131085857D01*
X164013286Y-132514428D02*
X164013286Y-131014428D01*
X163156143Y-132514428D02*
X163799000Y-131657285D01*
X163156143Y-131014428D02*
X164013286Y-131871571D01*
X162656143Y-131014428D02*
X161656143Y-131014428D01*
X161656143Y-131014428D02*
X162656143Y-132514428D01*
X162656143Y-132514428D02*
X161656143Y-132514428D01*
X169513285Y-133944428D02*
X168441857Y-133944428D01*
X169084714Y-133301571D02*
X169513285Y-135230142D01*
X168584714Y-134587285D02*
X169656142Y-134587285D01*
X169013285Y-135230142D02*
X168584714Y-133301571D01*
X167441857Y-134158714D02*
X167941857Y-134158714D01*
X167941857Y-134944428D02*
X167941857Y-133444428D01*
X167941857Y-133444428D02*
X167227571Y-133444428D01*
X165513286Y-134944428D02*
X165513286Y-133444428D01*
X165513286Y-133444428D02*
X164656143Y-134944428D01*
X164656143Y-134944428D02*
X164656143Y-133444428D01*
X163656142Y-133444428D02*
X163370428Y-133444428D01*
X163370428Y-133444428D02*
X163227571Y-133515857D01*
X163227571Y-133515857D02*
X163084714Y-133658714D01*
X163084714Y-133658714D02*
X163013285Y-133944428D01*
X163013285Y-133944428D02*
X163013285Y-134444428D01*
X163013285Y-134444428D02*
X163084714Y-134730142D01*
X163084714Y-134730142D02*
X163227571Y-134873000D01*
X163227571Y-134873000D02*
X163370428Y-134944428D01*
X163370428Y-134944428D02*
X163656142Y-134944428D01*
X163656142Y-134944428D02*
X163799000Y-134873000D01*
X163799000Y-134873000D02*
X163941857Y-134730142D01*
X163941857Y-134730142D02*
X164013285Y-134444428D01*
X164013285Y-134444428D02*
X164013285Y-133944428D01*
X164013285Y-133944428D02*
X163941857Y-133658714D01*
X163941857Y-133658714D02*
X163799000Y-133515857D01*
X163799000Y-133515857D02*
X163656142Y-133444428D01*
X162370428Y-134944428D02*
X162370428Y-133444428D01*
X162370428Y-133444428D02*
X161798999Y-133444428D01*
X161798999Y-133444428D02*
X161656142Y-133515857D01*
X161656142Y-133515857D02*
X161584713Y-133587285D01*
X161584713Y-133587285D02*
X161513285Y-133730142D01*
X161513285Y-133730142D02*
X161513285Y-133944428D01*
X161513285Y-133944428D02*
X161584713Y-134087285D01*
X161584713Y-134087285D02*
X161656142Y-134158714D01*
X161656142Y-134158714D02*
X161798999Y-134230142D01*
X161798999Y-134230142D02*
X162370428Y-134230142D01*
X160370428Y-134158714D02*
X160870428Y-134158714D01*
X160870428Y-134944428D02*
X160870428Y-133444428D01*
X160870428Y-133444428D02*
X160156142Y-133444428D01*
X126698476Y-63598380D02*
X126746095Y-63646000D01*
X126746095Y-63646000D02*
X126888952Y-63693619D01*
X126888952Y-63693619D02*
X126984190Y-63693619D01*
X126984190Y-63693619D02*
X127127047Y-63646000D01*
X127127047Y-63646000D02*
X127222285Y-63550761D01*
X127222285Y-63550761D02*
X127269904Y-63455523D01*
X127269904Y-63455523D02*
X127317523Y-63265047D01*
X127317523Y-63265047D02*
X127317523Y-63122190D01*
X127317523Y-63122190D02*
X127269904Y-62931714D01*
X127269904Y-62931714D02*
X127222285Y-62836476D01*
X127222285Y-62836476D02*
X127127047Y-62741238D01*
X127127047Y-62741238D02*
X126984190Y-62693619D01*
X126984190Y-62693619D02*
X126888952Y-62693619D01*
X126888952Y-62693619D02*
X126746095Y-62741238D01*
X126746095Y-62741238D02*
X126698476Y-62788857D01*
X125793714Y-63693619D02*
X126269904Y-63693619D01*
X126269904Y-63693619D02*
X126269904Y-62693619D01*
X125460380Y-63693619D02*
X125460380Y-62693619D01*
X124888952Y-63693619D02*
X125317523Y-63122190D01*
X124888952Y-62693619D02*
X125460380Y-63265047D01*
X122412761Y-63693619D02*
X122984189Y-63693619D01*
X122698475Y-63693619D02*
X122698475Y-62693619D01*
X122698475Y-62693619D02*
X122793713Y-62836476D01*
X122793713Y-62836476D02*
X122888951Y-62931714D01*
X122888951Y-62931714D02*
X122984189Y-62979333D01*
X122031808Y-62788857D02*
X121984189Y-62741238D01*
X121984189Y-62741238D02*
X121888951Y-62693619D01*
X121888951Y-62693619D02*
X121650856Y-62693619D01*
X121650856Y-62693619D02*
X121555618Y-62741238D01*
X121555618Y-62741238D02*
X121507999Y-62788857D01*
X121507999Y-62788857D02*
X121460380Y-62884095D01*
X121460380Y-62884095D02*
X121460380Y-62979333D01*
X121460380Y-62979333D02*
X121507999Y-63122190D01*
X121507999Y-63122190D02*
X122079427Y-63693619D01*
X122079427Y-63693619D02*
X121460380Y-63693619D01*
X121031808Y-63693619D02*
X121031808Y-62693619D01*
X121031808Y-63074571D02*
X120936570Y-63026952D01*
X120936570Y-63026952D02*
X120746094Y-63026952D01*
X120746094Y-63026952D02*
X120650856Y-63074571D01*
X120650856Y-63074571D02*
X120603237Y-63122190D01*
X120603237Y-63122190D02*
X120555618Y-63217428D01*
X120555618Y-63217428D02*
X120555618Y-63503142D01*
X120555618Y-63503142D02*
X120603237Y-63598380D01*
X120603237Y-63598380D02*
X120650856Y-63646000D01*
X120650856Y-63646000D02*
X120746094Y-63693619D01*
X120746094Y-63693619D02*
X120936570Y-63693619D01*
X120936570Y-63693619D02*
X121031808Y-63646000D01*
X120127046Y-63693619D02*
X120127046Y-63026952D01*
X120127046Y-62693619D02*
X120174665Y-62741238D01*
X120174665Y-62741238D02*
X120127046Y-62788857D01*
X120127046Y-62788857D02*
X120079427Y-62741238D01*
X120079427Y-62741238D02*
X120127046Y-62693619D01*
X120127046Y-62693619D02*
X120127046Y-62788857D01*
X119793713Y-63026952D02*
X119412761Y-63026952D01*
X119650856Y-62693619D02*
X119650856Y-63550761D01*
X119650856Y-63550761D02*
X119603237Y-63646000D01*
X119603237Y-63646000D02*
X119507999Y-63693619D01*
X119507999Y-63693619D02*
X119412761Y-63693619D01*
X119127046Y-63646000D02*
X119031808Y-63693619D01*
X119031808Y-63693619D02*
X118841332Y-63693619D01*
X118841332Y-63693619D02*
X118746094Y-63646000D01*
X118746094Y-63646000D02*
X118698475Y-63550761D01*
X118698475Y-63550761D02*
X118698475Y-63503142D01*
X118698475Y-63503142D02*
X118746094Y-63407904D01*
X118746094Y-63407904D02*
X118841332Y-63360285D01*
X118841332Y-63360285D02*
X118984189Y-63360285D01*
X118984189Y-63360285D02*
X119079427Y-63312666D01*
X119079427Y-63312666D02*
X119127046Y-63217428D01*
X119127046Y-63217428D02*
X119127046Y-63169809D01*
X119127046Y-63169809D02*
X119079427Y-63074571D01*
X119079427Y-63074571D02*
X118984189Y-63026952D01*
X118984189Y-63026952D02*
X118841332Y-63026952D01*
X118841332Y-63026952D02*
X118746094Y-63074571D01*
X125984190Y-65313619D02*
X126555618Y-65313619D01*
X126269904Y-65313619D02*
X126269904Y-64313619D01*
X126269904Y-64313619D02*
X126365142Y-64456476D01*
X126365142Y-64456476D02*
X126460380Y-64551714D01*
X126460380Y-64551714D02*
X126555618Y-64599333D01*
X124222285Y-65218380D02*
X124269904Y-65266000D01*
X124269904Y-65266000D02*
X124412761Y-65313619D01*
X124412761Y-65313619D02*
X124507999Y-65313619D01*
X124507999Y-65313619D02*
X124650856Y-65266000D01*
X124650856Y-65266000D02*
X124746094Y-65170761D01*
X124746094Y-65170761D02*
X124793713Y-65075523D01*
X124793713Y-65075523D02*
X124841332Y-64885047D01*
X124841332Y-64885047D02*
X124841332Y-64742190D01*
X124841332Y-64742190D02*
X124793713Y-64551714D01*
X124793713Y-64551714D02*
X124746094Y-64456476D01*
X124746094Y-64456476D02*
X124650856Y-64361238D01*
X124650856Y-64361238D02*
X124507999Y-64313619D01*
X124507999Y-64313619D02*
X124412761Y-64313619D01*
X124412761Y-64313619D02*
X124269904Y-64361238D01*
X124269904Y-64361238D02*
X124222285Y-64408857D01*
X123650856Y-65313619D02*
X123746094Y-65266000D01*
X123746094Y-65266000D02*
X123793713Y-65218380D01*
X123793713Y-65218380D02*
X123841332Y-65123142D01*
X123841332Y-65123142D02*
X123841332Y-64837428D01*
X123841332Y-64837428D02*
X123793713Y-64742190D01*
X123793713Y-64742190D02*
X123746094Y-64694571D01*
X123746094Y-64694571D02*
X123650856Y-64646952D01*
X123650856Y-64646952D02*
X123507999Y-64646952D01*
X123507999Y-64646952D02*
X123412761Y-64694571D01*
X123412761Y-64694571D02*
X123365142Y-64742190D01*
X123365142Y-64742190D02*
X123317523Y-64837428D01*
X123317523Y-64837428D02*
X123317523Y-65123142D01*
X123317523Y-65123142D02*
X123365142Y-65218380D01*
X123365142Y-65218380D02*
X123412761Y-65266000D01*
X123412761Y-65266000D02*
X123507999Y-65313619D01*
X123507999Y-65313619D02*
X123650856Y-65313619D01*
X122460380Y-65313619D02*
X122460380Y-64313619D01*
X122460380Y-65266000D02*
X122555618Y-65313619D01*
X122555618Y-65313619D02*
X122746094Y-65313619D01*
X122746094Y-65313619D02*
X122841332Y-65266000D01*
X122841332Y-65266000D02*
X122888951Y-65218380D01*
X122888951Y-65218380D02*
X122936570Y-65123142D01*
X122936570Y-65123142D02*
X122936570Y-64837428D01*
X122936570Y-64837428D02*
X122888951Y-64742190D01*
X122888951Y-64742190D02*
X122841332Y-64694571D01*
X122841332Y-64694571D02*
X122746094Y-64646952D01*
X122746094Y-64646952D02*
X122555618Y-64646952D01*
X122555618Y-64646952D02*
X122460380Y-64694571D01*
X121603237Y-65266000D02*
X121698475Y-65313619D01*
X121698475Y-65313619D02*
X121888951Y-65313619D01*
X121888951Y-65313619D02*
X121984189Y-65266000D01*
X121984189Y-65266000D02*
X122031808Y-65170761D01*
X122031808Y-65170761D02*
X122031808Y-64789809D01*
X122031808Y-64789809D02*
X121984189Y-64694571D01*
X121984189Y-64694571D02*
X121888951Y-64646952D01*
X121888951Y-64646952D02*
X121698475Y-64646952D01*
X121698475Y-64646952D02*
X121603237Y-64694571D01*
X121603237Y-64694571D02*
X121555618Y-64789809D01*
X121555618Y-64789809D02*
X121555618Y-64885047D01*
X121555618Y-64885047D02*
X122031808Y-64980285D01*
X120412760Y-65027904D02*
X119936570Y-65027904D01*
X120507998Y-65313619D02*
X120174665Y-64313619D01*
X120174665Y-64313619D02*
X119841332Y-65313619D01*
X119079427Y-65313619D02*
X119079427Y-64313619D01*
X119079427Y-65266000D02*
X119174665Y-65313619D01*
X119174665Y-65313619D02*
X119365141Y-65313619D01*
X119365141Y-65313619D02*
X119460379Y-65266000D01*
X119460379Y-65266000D02*
X119507998Y-65218380D01*
X119507998Y-65218380D02*
X119555617Y-65123142D01*
X119555617Y-65123142D02*
X119555617Y-64837428D01*
X119555617Y-64837428D02*
X119507998Y-64742190D01*
X119507998Y-64742190D02*
X119460379Y-64694571D01*
X119460379Y-64694571D02*
X119365141Y-64646952D01*
X119365141Y-64646952D02*
X119174665Y-64646952D01*
X119174665Y-64646952D02*
X119079427Y-64694571D01*
X118603236Y-65313619D02*
X118603236Y-64646952D01*
X118603236Y-64837428D02*
X118555617Y-64742190D01*
X118555617Y-64742190D02*
X118507998Y-64694571D01*
X118507998Y-64694571D02*
X118412760Y-64646952D01*
X118412760Y-64646952D02*
X118317522Y-64646952D01*
X118079426Y-64313619D02*
X117460379Y-64313619D01*
X117460379Y-64313619D02*
X117793712Y-64694571D01*
X117793712Y-64694571D02*
X117650855Y-64694571D01*
X117650855Y-64694571D02*
X117555617Y-64742190D01*
X117555617Y-64742190D02*
X117507998Y-64789809D01*
X117507998Y-64789809D02*
X117460379Y-64885047D01*
X117460379Y-64885047D02*
X117460379Y-65123142D01*
X117460379Y-65123142D02*
X117507998Y-65218380D01*
X117507998Y-65218380D02*
X117555617Y-65266000D01*
X117555617Y-65266000D02*
X117650855Y-65313619D01*
X117650855Y-65313619D02*
X117936569Y-65313619D01*
X117936569Y-65313619D02*
X118031807Y-65266000D01*
X118031807Y-65266000D02*
X118079426Y-65218380D01*
X126317523Y-65933619D02*
X126222285Y-65933619D01*
X126222285Y-65933619D02*
X126127047Y-65981238D01*
X126127047Y-65981238D02*
X126079428Y-66028857D01*
X126079428Y-66028857D02*
X126031809Y-66124095D01*
X126031809Y-66124095D02*
X125984190Y-66314571D01*
X125984190Y-66314571D02*
X125984190Y-66552666D01*
X125984190Y-66552666D02*
X126031809Y-66743142D01*
X126031809Y-66743142D02*
X126079428Y-66838380D01*
X126079428Y-66838380D02*
X126127047Y-66886000D01*
X126127047Y-66886000D02*
X126222285Y-66933619D01*
X126222285Y-66933619D02*
X126317523Y-66933619D01*
X126317523Y-66933619D02*
X126412761Y-66886000D01*
X126412761Y-66886000D02*
X126460380Y-66838380D01*
X126460380Y-66838380D02*
X126507999Y-66743142D01*
X126507999Y-66743142D02*
X126555618Y-66552666D01*
X126555618Y-66552666D02*
X126555618Y-66314571D01*
X126555618Y-66314571D02*
X126507999Y-66124095D01*
X126507999Y-66124095D02*
X126460380Y-66028857D01*
X126460380Y-66028857D02*
X126412761Y-65981238D01*
X126412761Y-65981238D02*
X126317523Y-65933619D01*
X124841332Y-66647904D02*
X124365142Y-66647904D01*
X124936570Y-66933619D02*
X124603237Y-65933619D01*
X124603237Y-65933619D02*
X124269904Y-66933619D01*
X123507999Y-66933619D02*
X123507999Y-65933619D01*
X123507999Y-66886000D02*
X123603237Y-66933619D01*
X123603237Y-66933619D02*
X123793713Y-66933619D01*
X123793713Y-66933619D02*
X123888951Y-66886000D01*
X123888951Y-66886000D02*
X123936570Y-66838380D01*
X123936570Y-66838380D02*
X123984189Y-66743142D01*
X123984189Y-66743142D02*
X123984189Y-66457428D01*
X123984189Y-66457428D02*
X123936570Y-66362190D01*
X123936570Y-66362190D02*
X123888951Y-66314571D01*
X123888951Y-66314571D02*
X123793713Y-66266952D01*
X123793713Y-66266952D02*
X123603237Y-66266952D01*
X123603237Y-66266952D02*
X123507999Y-66314571D01*
X123031808Y-66933619D02*
X123031808Y-66266952D01*
X123031808Y-66457428D02*
X122984189Y-66362190D01*
X122984189Y-66362190D02*
X122936570Y-66314571D01*
X122936570Y-66314571D02*
X122841332Y-66266952D01*
X122841332Y-66266952D02*
X122746094Y-66266952D01*
X122460379Y-66028857D02*
X122412760Y-65981238D01*
X122412760Y-65981238D02*
X122317522Y-65933619D01*
X122317522Y-65933619D02*
X122079427Y-65933619D01*
X122079427Y-65933619D02*
X121984189Y-65981238D01*
X121984189Y-65981238D02*
X121936570Y-66028857D01*
X121936570Y-66028857D02*
X121888951Y-66124095D01*
X121888951Y-66124095D02*
X121888951Y-66219333D01*
X121888951Y-66219333D02*
X121936570Y-66362190D01*
X121936570Y-66362190D02*
X122507998Y-66933619D01*
X122507998Y-66933619D02*
X121888951Y-66933619D01*
X120746093Y-66647904D02*
X120269903Y-66647904D01*
X120841331Y-66933619D02*
X120507998Y-65933619D01*
X120507998Y-65933619D02*
X120174665Y-66933619D01*
X119412760Y-66933619D02*
X119412760Y-65933619D01*
X119412760Y-66886000D02*
X119507998Y-66933619D01*
X119507998Y-66933619D02*
X119698474Y-66933619D01*
X119698474Y-66933619D02*
X119793712Y-66886000D01*
X119793712Y-66886000D02*
X119841331Y-66838380D01*
X119841331Y-66838380D02*
X119888950Y-66743142D01*
X119888950Y-66743142D02*
X119888950Y-66457428D01*
X119888950Y-66457428D02*
X119841331Y-66362190D01*
X119841331Y-66362190D02*
X119793712Y-66314571D01*
X119793712Y-66314571D02*
X119698474Y-66266952D01*
X119698474Y-66266952D02*
X119507998Y-66266952D01*
X119507998Y-66266952D02*
X119412760Y-66314571D01*
X118936569Y-66933619D02*
X118936569Y-66266952D01*
X118936569Y-66457428D02*
X118888950Y-66362190D01*
X118888950Y-66362190D02*
X118841331Y-66314571D01*
X118841331Y-66314571D02*
X118746093Y-66266952D01*
X118746093Y-66266952D02*
X118650855Y-66266952D01*
X117793712Y-66933619D02*
X118365140Y-66933619D01*
X118079426Y-66933619D02*
X118079426Y-65933619D01*
X118079426Y-65933619D02*
X118174664Y-66076476D01*
X118174664Y-66076476D02*
X118269902Y-66171714D01*
X118269902Y-66171714D02*
X118365140Y-66219333D01*
M02*
