%TF.GenerationSoftware,KiCad,Pcbnew,7.0.2-0*%
%TF.CreationDate,2024-01-28T22:05:15+09:00*%
%TF.ProjectId,cpu-bd,6370752d-6264-42e6-9b69-6361645f7063,rev?*%
%TF.SameCoordinates,Original*%
%TF.FileFunction,Soldermask,Bot*%
%TF.FilePolarity,Negative*%
%FSLAX46Y46*%
G04 Gerber Fmt 4.6, Leading zero omitted, Abs format (unit mm)*
G04 Created by KiCad (PCBNEW 7.0.2-0) date 2024-01-28 22:05:15*
%MOMM*%
%LPD*%
G01*
G04 APERTURE LIST*
G04 Aperture macros list*
%AMRoundRect*
0 Rectangle with rounded corners*
0 $1 Rounding radius*
0 $2 $3 $4 $5 $6 $7 $8 $9 X,Y pos of 4 corners*
0 Add a 4 corners polygon primitive as box body*
4,1,4,$2,$3,$4,$5,$6,$7,$8,$9,$2,$3,0*
0 Add four circle primitives for the rounded corners*
1,1,$1+$1,$2,$3*
1,1,$1+$1,$4,$5*
1,1,$1+$1,$6,$7*
1,1,$1+$1,$8,$9*
0 Add four rect primitives between the rounded corners*
20,1,$1+$1,$2,$3,$4,$5,0*
20,1,$1+$1,$4,$5,$6,$7,0*
20,1,$1+$1,$6,$7,$8,$9,0*
20,1,$1+$1,$8,$9,$2,$3,0*%
G04 Aperture macros list end*
%ADD10C,1.600000*%
%ADD11O,1.600000X1.600000*%
%ADD12C,1.400000*%
%ADD13C,2.000000*%
%ADD14RoundRect,0.350000X-0.350000X-0.350000X0.350000X-0.350000X0.350000X0.350000X-0.350000X0.350000X0*%
%ADD15RoundRect,0.350000X0.350000X0.350000X-0.350000X0.350000X-0.350000X-0.350000X0.350000X-0.350000X0*%
%ADD16R,1.600000X1.600000*%
%ADD17C,4.800000*%
%ADD18R,1.700000X1.700000*%
%ADD19O,1.700000X1.700000*%
G04 APERTURE END LIST*
D10*
%TO.C,C1*%
X167640000Y-50800000D03*
X170180000Y-50800000D03*
%TD*%
%TO.C,R22*%
X167640000Y-93980000D03*
D11*
X165100000Y-93980000D03*
%TD*%
D12*
%TO.C,TP6*%
X119380000Y-121920000D03*
X121920000Y-121920000D03*
%TD*%
D13*
%TO.C,SW3*%
X142240000Y-48260000D03*
X142240000Y-43180000D03*
%TD*%
D14*
%TO.C,IC3*%
X102870000Y-73660000D03*
D12*
X102870000Y-76200000D03*
X102870000Y-78740000D03*
X102870000Y-81280000D03*
X102870000Y-83820000D03*
X102870000Y-86360000D03*
X102870000Y-88900000D03*
X102870000Y-91440000D03*
X102870000Y-93980000D03*
X102870000Y-96520000D03*
X102870000Y-99060000D03*
X102870000Y-101600000D03*
X102870000Y-104140000D03*
X102870000Y-106680000D03*
X110490000Y-106680000D03*
X110490000Y-104140000D03*
X110490000Y-101600000D03*
X110490000Y-99060000D03*
X110490000Y-96520000D03*
X110490000Y-93980000D03*
X110490000Y-91440000D03*
X110490000Y-88900000D03*
X110490000Y-86360000D03*
X110490000Y-83820000D03*
X110490000Y-81280000D03*
X110490000Y-78740000D03*
X110490000Y-76200000D03*
X110490000Y-73660000D03*
%TD*%
D15*
%TO.C,IC5*%
X137160000Y-93980000D03*
D12*
X137160000Y-91440000D03*
X137160000Y-88900000D03*
X137160000Y-86360000D03*
X137160000Y-83820000D03*
X137160000Y-81280000D03*
X137160000Y-78740000D03*
X137160000Y-76200000D03*
X129540000Y-76200000D03*
X129540000Y-78740000D03*
X129540000Y-81280000D03*
X129540000Y-83820000D03*
X129540000Y-86360000D03*
X129540000Y-88900000D03*
X129540000Y-91440000D03*
X129540000Y-93980000D03*
%TD*%
D10*
%TO.C,R44*%
X177771000Y-124460000D03*
D11*
X180311000Y-124460000D03*
%TD*%
D10*
%TO.C,C6*%
X144780000Y-88900000D03*
X147320000Y-88900000D03*
%TD*%
D16*
%TO.C,C12*%
X106680000Y-124460000D03*
D10*
X106680000Y-127000000D03*
%TD*%
D16*
%TO.C,D5*%
X144780000Y-83820000D03*
D10*
X147320000Y-83820000D03*
%TD*%
D13*
%TO.C,SW2*%
X132080000Y-48260000D03*
X132080000Y-43180000D03*
%TD*%
D10*
%TO.C,R41*%
X114300000Y-124460000D03*
D11*
X116840000Y-124460000D03*
%TD*%
D10*
%TO.C,R37*%
X170180000Y-119380000D03*
D11*
X172720000Y-119380000D03*
%TD*%
D10*
%TO.C,R19*%
X144780000Y-86360000D03*
D11*
X147320000Y-86360000D03*
%TD*%
D10*
%TO.C,R12*%
X175231000Y-68580000D03*
D11*
X177771000Y-68580000D03*
%TD*%
D17*
%TO.C,TP2*%
X187960000Y-43180000D03*
%TD*%
D16*
%TO.C,D6*%
X165100000Y-83820000D03*
D10*
X167640000Y-83820000D03*
%TD*%
%TO.C,C7*%
X132080000Y-99060000D03*
X129540000Y-99060000D03*
%TD*%
%TO.C,R18*%
X124460000Y-88900000D03*
D11*
X124460000Y-86360000D03*
%TD*%
D10*
%TO.C,R13*%
X175231000Y-66040000D03*
D11*
X177771000Y-66040000D03*
%TD*%
D10*
%TO.C,R42*%
X170180000Y-121920000D03*
D11*
X172720000Y-121920000D03*
%TD*%
D10*
%TO.C,R14*%
X175231000Y-71120000D03*
D11*
X177771000Y-71120000D03*
%TD*%
D16*
%TO.C,D3*%
X182880000Y-78740000D03*
D10*
X180340000Y-78740000D03*
%TD*%
D18*
%TO.C,J3*%
X124460000Y-71120000D03*
D19*
X121920000Y-71120000D03*
X119380000Y-71120000D03*
%TD*%
D18*
%TO.C,J7*%
X99060000Y-116840000D03*
D19*
X101600000Y-116840000D03*
X104140000Y-116840000D03*
%TD*%
D18*
%TO.C,J4*%
X185420000Y-73660000D03*
D19*
X185420000Y-71120000D03*
X185420000Y-68580000D03*
X185420000Y-66040000D03*
X185420000Y-63500000D03*
X185420000Y-60960000D03*
X185420000Y-58420000D03*
X185420000Y-55880000D03*
%TD*%
D10*
%TO.C,R11*%
X175231000Y-63500000D03*
D11*
X177771000Y-63500000D03*
%TD*%
D10*
%TO.C,C15*%
X160020000Y-129540000D03*
X157480000Y-129540000D03*
%TD*%
D14*
%TO.C,IC7*%
X142494000Y-109220000D03*
D12*
X142494000Y-111760000D03*
X142494000Y-114300000D03*
X142494000Y-116840000D03*
X142494000Y-119380000D03*
X142494000Y-121920000D03*
X142494000Y-124460000D03*
X150114000Y-124460000D03*
X150114000Y-121920000D03*
X150114000Y-119380000D03*
X150114000Y-116840000D03*
X150114000Y-114300000D03*
X150114000Y-111760000D03*
X150114000Y-109220000D03*
%TD*%
D10*
%TO.C,R28*%
X170180000Y-106680000D03*
D11*
X172720000Y-106680000D03*
%TD*%
D16*
%TO.C,SW5*%
X185430000Y-99050000D03*
D10*
X185430000Y-96510000D03*
X185430000Y-93970000D03*
X185430000Y-91430000D03*
X177810000Y-91430000D03*
X177810000Y-93970000D03*
X177810000Y-96510000D03*
X177810000Y-99050000D03*
%TD*%
%TO.C,R36*%
X177800000Y-111760000D03*
D11*
X180340000Y-111760000D03*
%TD*%
D10*
%TO.C,R8*%
X175260000Y-55880000D03*
D11*
X177800000Y-55880000D03*
%TD*%
D10*
%TO.C,C2*%
X101600000Y-55880000D03*
X104140000Y-55880000D03*
%TD*%
%TO.C,R38*%
X170209000Y-116840000D03*
D11*
X172749000Y-116840000D03*
%TD*%
D10*
%TO.C,R29*%
X177771000Y-109220000D03*
D11*
X180311000Y-109220000D03*
%TD*%
D14*
%TO.C,IC1*%
X147320000Y-58420000D03*
D12*
X147320000Y-60960000D03*
X147320000Y-63500000D03*
X147320000Y-66040000D03*
X147320000Y-68580000D03*
X147320000Y-71120000D03*
X147320000Y-73660000D03*
X154940000Y-73660000D03*
X154940000Y-71120000D03*
X154940000Y-68580000D03*
X154940000Y-66040000D03*
X154940000Y-63500000D03*
X154940000Y-60960000D03*
X154940000Y-58420000D03*
%TD*%
D10*
%TO.C,R9*%
X175260000Y-58420000D03*
D11*
X177800000Y-58420000D03*
%TD*%
D14*
%TO.C,IC4*%
X152400000Y-83820000D03*
D12*
X152400000Y-86360000D03*
X152400000Y-88900000D03*
X152400000Y-91440000D03*
X152400000Y-93980000D03*
X152400000Y-96520000D03*
X152400000Y-99060000D03*
X152400000Y-101600000D03*
X160020000Y-101600000D03*
X160020000Y-99060000D03*
X160020000Y-96520000D03*
X160020000Y-93980000D03*
X160020000Y-91440000D03*
X160020000Y-88900000D03*
X160020000Y-86360000D03*
X160020000Y-83820000D03*
%TD*%
D10*
%TO.C,C14*%
X144780000Y-129540000D03*
X142240000Y-129540000D03*
%TD*%
%TO.C,C9*%
X165100000Y-99060000D03*
X165100000Y-96520000D03*
%TD*%
D18*
%TO.C,J10*%
X185420000Y-124460000D03*
D19*
X185420000Y-121920000D03*
X185420000Y-119380000D03*
X185420000Y-116840000D03*
X185420000Y-114300000D03*
X185420000Y-111760000D03*
X185420000Y-109220000D03*
X185420000Y-106680000D03*
%TD*%
D18*
%TO.C,J1*%
X99060000Y-50800000D03*
D19*
X101600000Y-50800000D03*
X104140000Y-50800000D03*
X106680000Y-50800000D03*
X109220000Y-50800000D03*
X111760000Y-50800000D03*
%TD*%
D16*
%TO.C,D4*%
X187960000Y-78740000D03*
D10*
X185420000Y-78740000D03*
%TD*%
%TO.C,R25*%
X144780000Y-104140000D03*
D11*
X147320000Y-104140000D03*
%TD*%
D10*
%TO.C,R26*%
X165100000Y-101600000D03*
D11*
X167640000Y-101600000D03*
%TD*%
D10*
%TO.C,C4*%
X114300000Y-63500000D03*
X111760000Y-63500000D03*
%TD*%
%TO.C,C5*%
X154940000Y-78740000D03*
X152400000Y-78740000D03*
%TD*%
%TO.C,R5*%
X149860000Y-53340000D03*
D11*
X152400000Y-53340000D03*
%TD*%
D10*
%TO.C,R33*%
X170180000Y-111760000D03*
D11*
X172720000Y-111760000D03*
%TD*%
D18*
%TO.C,J5*%
X187960000Y-73660000D03*
D19*
X187960000Y-71120000D03*
X187960000Y-68580000D03*
X187960000Y-66040000D03*
X187960000Y-63500000D03*
X187960000Y-60960000D03*
X187960000Y-58420000D03*
X187960000Y-55880000D03*
%TD*%
D12*
%TO.C,TP5*%
X109220000Y-43180000D03*
X111760000Y-43180000D03*
%TD*%
D10*
%TO.C,R35*%
X177800000Y-114300000D03*
D11*
X180340000Y-114300000D03*
%TD*%
D10*
%TO.C,C10*%
X114300000Y-106680000D03*
X116840000Y-106680000D03*
%TD*%
%TO.C,C3*%
X129540000Y-58420000D03*
X127000000Y-58420000D03*
%TD*%
D13*
%TO.C,SW4*%
X152400000Y-48260000D03*
X152400000Y-43180000D03*
%TD*%
D10*
%TO.C,R6*%
X154940000Y-53340000D03*
D11*
X157480000Y-53340000D03*
%TD*%
D14*
%TO.C,IC2*%
X162560000Y-55880000D03*
D12*
X162560000Y-58420000D03*
X162560000Y-60960000D03*
X162560000Y-63500000D03*
X162560000Y-66040000D03*
X162560000Y-68580000D03*
X162560000Y-71120000D03*
X162560000Y-73660000D03*
X170180000Y-73660000D03*
X170180000Y-71120000D03*
X170180000Y-68580000D03*
X170180000Y-66040000D03*
X170180000Y-63500000D03*
X170180000Y-60960000D03*
X170180000Y-58420000D03*
X170180000Y-55880000D03*
%TD*%
D10*
%TO.C,R40*%
X177771000Y-119380000D03*
D11*
X180311000Y-119380000D03*
%TD*%
D15*
%TO.C,IC6*%
X114300000Y-101600000D03*
D12*
X114300000Y-99060000D03*
X114300000Y-96520000D03*
X114300000Y-93980000D03*
X114300000Y-91440000D03*
X114300000Y-88900000D03*
X114300000Y-86360000D03*
X114300000Y-83820000D03*
X114300000Y-81280000D03*
X114300000Y-78740000D03*
X114300000Y-76200000D03*
X114300000Y-73660000D03*
X114300000Y-71120000D03*
X114300000Y-68580000D03*
X99060000Y-68580000D03*
X99060000Y-71120000D03*
X99060000Y-73660000D03*
X99060000Y-76200000D03*
X99060000Y-78740000D03*
X99060000Y-81280000D03*
X99060000Y-83820000D03*
X99060000Y-86360000D03*
X99060000Y-88900000D03*
X99060000Y-91440000D03*
X99060000Y-93980000D03*
D11*
X99060000Y-96520000D03*
D12*
X99060000Y-99060000D03*
X99060000Y-101600000D03*
%TD*%
D10*
%TO.C,R1*%
X119380000Y-53340000D03*
D11*
X121920000Y-53340000D03*
%TD*%
D10*
%TO.C,R2*%
X129540000Y-53340000D03*
D11*
X132080000Y-53340000D03*
%TD*%
D17*
%TO.C,TP3*%
X99060000Y-132080000D03*
%TD*%
D18*
%TO.C,J2*%
X99060000Y-63500000D03*
D19*
X101600000Y-63500000D03*
X104140000Y-63500000D03*
%TD*%
D18*
%TO.C,J11*%
X187960000Y-124460000D03*
D19*
X187960000Y-121920000D03*
X187960000Y-119380000D03*
X187960000Y-116840000D03*
X187960000Y-114300000D03*
X187960000Y-111760000D03*
X187960000Y-109220000D03*
X187960000Y-106680000D03*
%TD*%
D10*
%TO.C,R4*%
X144780000Y-53340000D03*
D11*
X147320000Y-53340000D03*
%TD*%
D10*
%TO.C,R45*%
X177771000Y-121920000D03*
D11*
X180311000Y-121920000D03*
%TD*%
D18*
%TO.C,J8*%
X109220000Y-116840000D03*
D19*
X111760000Y-116840000D03*
X114300000Y-116840000D03*
%TD*%
D10*
%TO.C,R30*%
X177800000Y-106680000D03*
D11*
X180340000Y-106680000D03*
%TD*%
D10*
%TO.C,R31*%
X106680000Y-111760000D03*
D11*
X104140000Y-111760000D03*
%TD*%
D16*
%TO.C,D7*%
X165100000Y-88900000D03*
D10*
X167640000Y-88900000D03*
%TD*%
%TO.C,R39*%
X177800000Y-116840000D03*
D11*
X180340000Y-116840000D03*
%TD*%
D10*
%TO.C,R43*%
X170180000Y-124460000D03*
D11*
X172720000Y-124460000D03*
%TD*%
D10*
%TO.C,R3*%
X139700000Y-53340000D03*
D11*
X142240000Y-53340000D03*
%TD*%
D10*
%TO.C,C11*%
X101600000Y-111760000D03*
X99060000Y-111760000D03*
%TD*%
D13*
%TO.C,SW1*%
X121920000Y-48260000D03*
X121920000Y-43180000D03*
%TD*%
D17*
%TO.C,TP4*%
X187960000Y-132080000D03*
%TD*%
%TO.C,TP1*%
X99060000Y-43180000D03*
%TD*%
D10*
%TO.C,R23*%
X167640000Y-99060000D03*
D11*
X170180000Y-99060000D03*
%TD*%
D18*
%TO.C,J9*%
X99060000Y-124460000D03*
D19*
X99060000Y-127000000D03*
%TD*%
D10*
%TO.C,R10*%
X175231000Y-60960000D03*
D11*
X177771000Y-60960000D03*
%TD*%
D16*
%TO.C,D8*%
X114300000Y-129540000D03*
D10*
X116840000Y-129540000D03*
%TD*%
%TO.C,R34*%
X170180000Y-114300000D03*
D11*
X172720000Y-114300000D03*
%TD*%
D10*
%TO.C,R20*%
X124460000Y-91440000D03*
D11*
X124460000Y-93980000D03*
%TD*%
D10*
%TO.C,C13*%
X129540000Y-129540000D03*
X127000000Y-129540000D03*
%TD*%
D16*
%TO.C,D1*%
X172720000Y-78740000D03*
D10*
X170180000Y-78740000D03*
%TD*%
D15*
%TO.C,IC9*%
X165100000Y-124460000D03*
D12*
X165100000Y-121920000D03*
X165100000Y-119380000D03*
X165100000Y-116840000D03*
X165100000Y-114300000D03*
X165100000Y-111760000D03*
X165100000Y-109220000D03*
X165100000Y-106680000D03*
X157480000Y-106680000D03*
X157480000Y-109220000D03*
X157480000Y-111760000D03*
X157480000Y-114300000D03*
X157480000Y-116840000D03*
X157480000Y-119380000D03*
X157480000Y-121920000D03*
X157480000Y-124460000D03*
%TD*%
D10*
%TO.C,R24*%
X167640000Y-96520000D03*
D11*
X170180000Y-96520000D03*
%TD*%
D10*
%TO.C,R27*%
X170180000Y-109220000D03*
D11*
X172720000Y-109220000D03*
%TD*%
D10*
%TO.C,C8*%
X147320000Y-99060000D03*
X144780000Y-99060000D03*
%TD*%
D15*
%TO.C,IC8*%
X134593950Y-124460000D03*
D12*
X134593950Y-121920000D03*
X134593950Y-119380000D03*
X134593950Y-116840000D03*
X134593950Y-114300000D03*
X134593950Y-111760000D03*
X134593950Y-109220000D03*
X134593950Y-106680000D03*
X126973950Y-106680000D03*
X126973950Y-109220000D03*
X126973950Y-111760000D03*
X126973950Y-114300000D03*
X126973950Y-116840000D03*
X126973950Y-119380000D03*
X126973950Y-121920000D03*
X126973950Y-124460000D03*
%TD*%
D18*
%TO.C,J6*%
X172720000Y-93980000D03*
D19*
X172720000Y-91440000D03*
X172720000Y-88900000D03*
X172720000Y-86360000D03*
X172720000Y-83820000D03*
%TD*%
D10*
%TO.C,R16*%
X124460000Y-76200000D03*
D11*
X124460000Y-78740000D03*
%TD*%
D10*
%TO.C,R15*%
X175231000Y-73660000D03*
D11*
X177771000Y-73660000D03*
%TD*%
D10*
%TO.C,R17*%
X121920000Y-76200000D03*
D11*
X121920000Y-78740000D03*
%TD*%
D16*
%TO.C,D2*%
X177800000Y-78740000D03*
D10*
X175260000Y-78740000D03*
%TD*%
%TO.C,R21*%
X144780000Y-93980000D03*
D11*
X147320000Y-93980000D03*
%TD*%
D10*
%TO.C,R7*%
X101600000Y-58420000D03*
D11*
X99060000Y-58420000D03*
%TD*%
D10*
%TO.C,R32*%
X114300000Y-111760000D03*
D11*
X111760000Y-111760000D03*
%TD*%
M02*
