M48
; DRILL file {KiCad 7.0.2-0} date 2024 February 04, Sunday 18:50:35
; FORMAT={-:-/ absolute / metric / decimal}
; #@! TF.CreationDate,2024-02-04T18:50:35+09:00
; #@! TF.GenerationSoftware,Kicad,Pcbnew,7.0.2-0
; #@! TF.FileFunction,MixedPlating,1,2
FMAT,2
METRIC
; #@! TA.AperFunction,Plated,PTH,ViaDrill
T1C0.400
; #@! TA.AperFunction,Plated,PTH,ComponentDrill
T2C0.800
; #@! TA.AperFunction,Plated,PTH,ComponentDrill
T3C1.000
; #@! TA.AperFunction,Plated,PTH,ComponentDrill
T4C3.000
%
G90
G05
T1
X96.52Y-58.42
X96.52Y-80.01
X96.52Y-97.79
X96.52Y-115.57
X96.52Y-124.46
X101.6Y-49.53
X101.6Y-80.01
X101.6Y-87.63
X101.6Y-91.44
X101.6Y-95.25
X102.87Y-43.18
X104.14Y-101.6
X104.14Y-106.68
X106.68Y-66.04
X109.22Y-101.6
X109.22Y-106.68
X110.49Y-132.08
X111.633Y-69.088
X111.76Y-66.04
X111.76Y-76.2
X111.76Y-86.36
X111.76Y-93.98
X115.57Y-107.95
X116.84Y-77.47
X116.84Y-95.25
X119.38Y-85.09
X119.38Y-87.63
X119.38Y-90.17
X121.92Y-66.04
X121.92Y-69.85
X123.19Y-43.18
X123.19Y-77.47
X125.73Y-87.63
X125.73Y-92.71
X125.73Y-100.33
X125.73Y-107.95
X127.0Y-85.09
X127.0Y-92.71
X129.286Y-104.648
X130.302Y-102.362
X130.81Y-69.85
X130.81Y-132.08
X132.334Y-88.646
X132.715Y-85.09
X133.35Y-67.31
X133.35Y-74.93
X134.62Y-82.296
X135.128Y-88.138
X135.89Y-107.95
X137.16Y-74.93
X137.16Y-80.01
X137.16Y-85.09
X137.16Y-87.63
X139.607Y-84.557
X139.7Y-67.31
X139.7Y-80.01
X139.7Y-83.185
X139.7Y-91.44
X140.208Y-87.63
X140.97Y-104.648
X142.24Y-72.39
X143.51Y-43.18
X143.51Y-67.31
X143.51Y-74.93
X144.78Y-107.95
X146.05Y-71.12
X147.32Y-80.01
X147.32Y-92.71
X147.828Y-109.474
X148.59Y-85.09
X148.59Y-88.9
X149.86Y-99.06
X149.86Y-102.87
X151.13Y-67.31
X151.13Y-132.08
X153.416Y-86.36
X153.416Y-90.17
X153.416Y-92.71
X153.416Y-95.25
X153.416Y-99.06
X154.305Y-102.87
X156.21Y-74.93
X156.21Y-80.01
X156.21Y-83.82
X156.21Y-85.09
X156.21Y-102.87
X156.21Y-107.95
X156.718Y-90.17
X156.718Y-92.71
X156.718Y-95.25
X156.718Y-99.06
X157.48Y-87.63
X157.48Y-102.87
X158.75Y-67.31
X159.258Y-86.36
X159.258Y-90.17
X159.258Y-92.71
X159.258Y-95.25
X160.02Y-101.6
X160.02Y-104.14
X161.29Y-74.93
X162.56Y-102.87
X163.83Y-43.18
X163.83Y-67.31
X163.83Y-92.71
X165.1Y-80.01
X165.1Y-95.25
X165.1Y-97.79
X165.1Y-101.6
X166.37Y-85.09
X166.37Y-87.63
X166.37Y-90.17
X166.37Y-104.14
X166.37Y-107.95
X167.64Y-69.85
X167.64Y-102.87
X168.91Y-101.6
X171.45Y-72.39
X171.45Y-81.28
X171.45Y-88.9
X171.45Y-97.79
X171.45Y-132.08
X172.72Y-100.33
X173.99Y-68.58
X173.99Y-106.68
X175.26Y-74.93
X179.07Y-99.06
X181.61Y-66.04
X181.61Y-68.58
X184.15Y-49.53
X184.15Y-59.69
X184.15Y-80.01
X184.15Y-82.55
X185.42Y-85.09
X185.42Y-87.63
X186.69Y-90.17
X186.69Y-92.71
X186.69Y-95.25
X187.96Y-97.79
X190.5Y-77.47
X190.5Y-93.98
X190.5Y-109.22
X190.5Y-124.46
T2
X99.06Y-68.58
X99.06Y-71.12
X99.06Y-73.66
X99.06Y-76.2
X99.06Y-78.74
X99.06Y-81.28
X99.06Y-83.82
X99.06Y-86.36
X99.06Y-88.9
X99.06Y-91.44
X99.06Y-93.98
X99.06Y-96.52
X99.06Y-99.06
X99.06Y-101.6
X99.06Y-106.7
X99.06Y-109.24
X110.49Y-43.18
X110.49Y-45.72
X110.49Y-48.26
X110.49Y-50.8
X110.49Y-53.34
X110.49Y-55.88
X110.49Y-58.42
X110.49Y-60.96
X110.49Y-63.5
X110.49Y-109.22
X110.49Y-111.76
X110.49Y-114.3
X110.49Y-116.84
X110.49Y-119.38
X110.49Y-121.92
X110.49Y-124.46
X110.49Y-127.0
X110.49Y-129.54
X114.3Y-68.58
X114.3Y-71.12
X114.3Y-73.66
X114.3Y-76.2
X114.3Y-78.74
X114.3Y-81.28
X114.3Y-83.82
X114.3Y-86.36
X114.3Y-88.9
X114.3Y-91.44
X114.3Y-93.98
X114.3Y-96.52
X114.3Y-99.06
X114.3Y-101.6
X120.65Y-43.18
X120.65Y-45.72
X120.65Y-48.26
X120.65Y-50.8
X120.65Y-53.34
X120.65Y-55.88
X120.65Y-58.42
X120.65Y-60.96
X120.65Y-63.5
X120.65Y-72.39
X120.65Y-74.93
X120.65Y-101.6
X120.65Y-104.14
X120.65Y-109.22
X120.65Y-111.76
X120.65Y-114.3
X120.65Y-116.84
X120.65Y-119.38
X120.65Y-121.92
X120.65Y-124.46
X120.65Y-127.0
X120.65Y-129.54
X123.19Y-72.39
X123.19Y-74.93
X123.19Y-80.01
X123.19Y-82.55
X123.19Y-85.09
X123.19Y-87.63
X123.19Y-90.17
X123.19Y-92.71
X123.19Y-95.25
X123.19Y-97.79
X125.73Y-72.39
X125.73Y-74.93
X128.27Y-74.93
X130.81Y-43.18
X130.81Y-45.72
X130.81Y-48.26
X130.81Y-50.8
X130.81Y-53.34
X130.81Y-55.88
X130.81Y-58.42
X130.81Y-60.96
X130.81Y-63.5
X130.81Y-74.93
X130.81Y-80.01
X130.81Y-82.55
X130.81Y-85.09
X130.81Y-87.63
X130.81Y-90.17
X130.81Y-92.71
X130.81Y-95.25
X130.81Y-97.79
X130.81Y-109.22
X130.81Y-111.76
X130.81Y-114.3
X130.81Y-116.84
X130.81Y-119.38
X130.81Y-121.92
X130.81Y-124.46
X130.81Y-127.0
X130.81Y-129.54
X134.62Y-90.17
X134.62Y-92.71
X134.62Y-95.25
X134.62Y-97.79
X134.62Y-100.33
X137.16Y-90.17
X137.16Y-92.71
X137.16Y-95.25
X137.16Y-97.79
X137.16Y-100.33
X140.97Y-43.18
X140.97Y-45.72
X140.97Y-48.26
X140.97Y-50.8
X140.97Y-53.34
X140.97Y-55.88
X140.97Y-58.42
X140.97Y-60.96
X140.97Y-63.5
X140.97Y-109.22
X140.97Y-111.76
X140.97Y-114.3
X140.97Y-116.84
X140.97Y-119.38
X140.97Y-121.92
X140.97Y-124.46
X140.97Y-127.0
X140.97Y-129.54
X143.51Y-80.01
X143.51Y-82.55
X143.51Y-85.09
X143.51Y-87.63
X143.51Y-90.17
X143.51Y-92.71
X143.51Y-95.25
X143.51Y-97.79
X148.59Y-74.93
X151.13Y-43.18
X151.13Y-45.72
X151.13Y-48.26
X151.13Y-50.8
X151.13Y-53.34
X151.13Y-55.88
X151.13Y-58.42
X151.13Y-60.96
X151.13Y-63.5
X151.13Y-74.93
X151.13Y-80.01
X151.13Y-82.55
X151.13Y-85.09
X151.13Y-87.63
X151.13Y-90.17
X151.13Y-92.71
X151.13Y-95.25
X151.13Y-97.79
X151.13Y-109.22
X151.13Y-111.76
X151.13Y-114.3
X151.13Y-116.84
X151.13Y-119.38
X151.13Y-121.92
X151.13Y-124.46
X151.13Y-127.0
X151.13Y-129.54
X161.29Y-43.18
X161.29Y-45.72
X161.29Y-48.26
X161.29Y-50.8
X161.29Y-53.34
X161.29Y-55.88
X161.29Y-58.42
X161.29Y-60.96
X161.29Y-63.5
X161.29Y-80.01
X161.29Y-82.55
X161.29Y-85.09
X161.29Y-87.63
X161.29Y-90.17
X161.29Y-92.71
X161.29Y-95.25
X161.29Y-97.79
X161.29Y-109.22
X161.29Y-111.76
X161.29Y-114.3
X161.29Y-116.84
X161.29Y-119.38
X161.29Y-121.92
X161.29Y-124.46
X161.29Y-127.0
X161.29Y-129.54
X166.37Y-74.93
X168.91Y-74.93
X168.91Y-80.01
X168.91Y-82.55
X168.91Y-85.09
X168.91Y-87.63
X168.91Y-90.17
X168.91Y-92.71
X168.91Y-95.25
X168.91Y-97.79
X171.45Y-43.18
X171.45Y-45.72
X171.45Y-48.26
X171.45Y-50.8
X171.45Y-53.34
X171.45Y-55.88
X171.45Y-58.42
X171.45Y-60.96
X171.45Y-63.5
X171.45Y-109.22
X171.45Y-111.76
X171.45Y-114.3
X171.45Y-116.84
X171.45Y-119.38
X171.45Y-121.92
X171.45Y-124.46
X171.45Y-127.0
X171.45Y-129.54
X175.26Y-77.47
X175.26Y-80.01
X175.26Y-82.55
X175.26Y-85.09
X175.26Y-87.63
X175.26Y-90.17
X175.26Y-92.71
X175.26Y-95.25
X175.26Y-97.79
X181.61Y-43.165
X181.61Y-45.705
X181.61Y-48.245
X181.61Y-50.785
X181.61Y-53.325
X181.61Y-55.865
X181.61Y-58.405
X181.61Y-60.945
X181.61Y-63.485
X181.61Y-77.47
X181.61Y-80.01
X181.61Y-82.55
X181.61Y-85.09
X181.61Y-87.63
X181.61Y-90.17
X181.61Y-92.71
X181.61Y-95.25
X181.61Y-97.79
X181.61Y-109.22
X181.61Y-111.76
X181.61Y-114.3
X181.61Y-116.84
X181.61Y-119.38
X181.61Y-121.92
X181.61Y-124.46
X181.61Y-127.0
X181.61Y-129.54
X187.96Y-69.85
X187.96Y-72.39
T3
X104.14Y-45.72
X104.14Y-48.26
X104.14Y-50.8
X104.14Y-53.34
X104.14Y-55.88
X104.14Y-58.42
X104.14Y-60.96
X104.14Y-63.5
X104.14Y-88.9
X104.14Y-91.44
X104.14Y-111.76
X104.14Y-114.3
X104.14Y-116.84
X104.14Y-119.38
X104.14Y-121.92
X104.14Y-124.46
X104.14Y-127.0
X104.14Y-129.54
X106.68Y-45.72
X106.68Y-48.26
X106.68Y-50.8
X106.68Y-53.34
X106.68Y-55.88
X106.68Y-58.42
X106.68Y-60.96
X106.68Y-63.5
X106.68Y-88.9
X106.68Y-91.44
X106.68Y-111.76
X106.68Y-114.3
X106.68Y-116.84
X106.68Y-119.38
X106.68Y-121.92
X106.68Y-124.46
X106.68Y-127.0
X106.68Y-129.54
X109.22Y-88.9
X109.22Y-91.44
X114.3Y-45.72
X114.3Y-48.26
X114.3Y-50.8
X114.3Y-53.34
X114.3Y-55.88
X114.3Y-58.42
X114.3Y-60.96
X114.3Y-63.5
X114.3Y-111.76
X114.3Y-114.3
X114.3Y-116.84
X114.3Y-119.38
X114.3Y-121.92
X114.3Y-124.46
X114.3Y-127.0
X114.3Y-129.54
X116.84Y-45.72
X116.84Y-48.26
X116.84Y-50.8
X116.84Y-53.34
X116.84Y-55.88
X116.84Y-58.42
X116.84Y-60.96
X116.84Y-63.5
X116.84Y-111.76
X116.84Y-114.3
X116.84Y-116.84
X116.84Y-119.38
X116.84Y-121.92
X116.84Y-124.46
X116.84Y-127.0
X116.84Y-129.54
X124.46Y-45.72
X124.46Y-48.26
X124.46Y-50.8
X124.46Y-53.34
X124.46Y-55.88
X124.46Y-58.42
X124.46Y-60.96
X124.46Y-63.5
X124.46Y-111.76
X124.46Y-114.3
X124.46Y-116.84
X124.46Y-119.38
X124.46Y-121.92
X124.46Y-124.46
X124.46Y-127.0
X124.46Y-129.54
X127.0Y-45.72
X127.0Y-48.26
X127.0Y-50.8
X127.0Y-53.34
X127.0Y-55.88
X127.0Y-58.42
X127.0Y-60.96
X127.0Y-63.5
X127.0Y-111.76
X127.0Y-114.3
X127.0Y-116.84
X127.0Y-119.38
X127.0Y-121.92
X127.0Y-124.46
X127.0Y-127.0
X127.0Y-129.54
X134.62Y-45.72
X134.62Y-48.26
X134.62Y-50.8
X134.62Y-53.34
X134.62Y-55.88
X134.62Y-58.42
X134.62Y-60.96
X134.62Y-63.5
X134.62Y-111.76
X134.62Y-114.3
X134.62Y-116.84
X134.62Y-119.38
X134.62Y-121.92
X134.62Y-124.46
X134.62Y-127.0
X134.62Y-129.54
X137.16Y-45.72
X137.16Y-48.26
X137.16Y-50.8
X137.16Y-53.34
X137.16Y-55.88
X137.16Y-58.42
X137.16Y-60.96
X137.16Y-63.5
X137.16Y-111.76
X137.16Y-114.3
X137.16Y-116.84
X137.16Y-119.38
X137.16Y-121.92
X137.16Y-124.46
X137.16Y-127.0
X137.16Y-129.54
X144.78Y-45.72
X144.78Y-48.26
X144.78Y-50.8
X144.78Y-53.34
X144.78Y-55.88
X144.78Y-58.42
X144.78Y-60.96
X144.78Y-63.5
X144.78Y-111.76
X144.78Y-114.3
X144.78Y-116.84
X144.78Y-119.38
X144.78Y-121.92
X144.78Y-124.46
X144.78Y-127.0
X144.78Y-129.54
X147.32Y-45.72
X147.32Y-48.26
X147.32Y-50.8
X147.32Y-53.34
X147.32Y-55.88
X147.32Y-58.42
X147.32Y-60.96
X147.32Y-63.5
X147.32Y-111.76
X147.32Y-114.3
X147.32Y-116.84
X147.32Y-119.38
X147.32Y-121.92
X147.32Y-124.46
X147.32Y-127.0
X147.32Y-129.54
X154.94Y-45.72
X154.94Y-48.26
X154.94Y-50.8
X154.94Y-53.34
X154.94Y-55.88
X154.94Y-58.42
X154.94Y-60.96
X154.94Y-63.5
X154.94Y-111.76
X154.94Y-114.3
X154.94Y-116.84
X154.94Y-119.38
X154.94Y-121.92
X154.94Y-124.46
X154.94Y-127.0
X154.94Y-129.54
X157.48Y-45.72
X157.48Y-48.26
X157.48Y-50.8
X157.48Y-53.34
X157.48Y-55.88
X157.48Y-58.42
X157.48Y-60.96
X157.48Y-63.5
X157.48Y-111.76
X157.48Y-114.3
X157.48Y-116.84
X157.48Y-119.38
X157.48Y-121.92
X157.48Y-124.46
X157.48Y-127.0
X157.48Y-129.54
X165.1Y-45.72
X165.1Y-48.26
X165.1Y-50.8
X165.1Y-53.34
X165.1Y-55.88
X165.1Y-58.42
X165.1Y-60.96
X165.1Y-63.5
X165.1Y-111.76
X165.1Y-114.3
X165.1Y-116.84
X165.1Y-119.38
X165.1Y-121.92
X165.1Y-124.46
X165.1Y-127.0
X165.1Y-129.54
X167.64Y-45.72
X167.64Y-48.26
X167.64Y-50.8
X167.64Y-53.34
X167.64Y-55.88
X167.64Y-58.42
X167.64Y-60.96
X167.64Y-63.5
X167.64Y-111.76
X167.64Y-114.3
X167.64Y-116.84
X167.64Y-119.38
X167.64Y-121.92
X167.64Y-124.46
X167.64Y-127.0
X167.64Y-129.54
X175.26Y-45.72
X175.26Y-48.26
X175.26Y-50.8
X175.26Y-53.34
X175.26Y-55.88
X175.26Y-58.42
X175.26Y-60.96
X175.26Y-63.5
X175.26Y-111.76
X175.26Y-114.3
X175.26Y-116.84
X175.26Y-119.38
X175.26Y-121.92
X175.26Y-124.46
X175.26Y-127.0
X175.26Y-129.54
X177.8Y-45.72
X177.8Y-48.26
X177.8Y-50.8
X177.8Y-53.34
X177.8Y-55.88
X177.8Y-58.42
X177.8Y-60.96
X177.8Y-63.5
X177.8Y-111.76
X177.8Y-114.3
X177.8Y-116.84
X177.8Y-119.38
X177.8Y-121.92
X177.8Y-124.46
X177.8Y-127.0
X177.8Y-129.54
T4
X99.06Y-43.18
X99.06Y-132.08
X187.96Y-43.18
X187.96Y-132.08
T0
M30
