M48
; DRILL file {KiCad 7.0.2-0} date 2024 January 16, Tuesday 20:44:18
; FORMAT={-:-/ absolute / metric / decimal}
; #@! TF.CreationDate,2024-01-16T20:44:18+09:00
; #@! TF.GenerationSoftware,Kicad,Pcbnew,7.0.2-0
; #@! TF.FileFunction,MixedPlating,1,2
FMAT,2
METRIC
; #@! TA.AperFunction,Plated,PTH,ViaDrill
T1C0.400
; #@! TA.AperFunction,Plated,PTH,ComponentDrill
T2C0.800
; #@! TA.AperFunction,Plated,PTH,ComponentDrill
T3C1.000
; #@! TA.AperFunction,Plated,PTH,ComponentDrill
T4C2.800
%
G90
G05
T1
X96.52Y-66.04
X100.33Y-97.79
X101.6Y-109.22
X104.14Y-75.184
X104.14Y-82.55
X104.14Y-87.63
X104.14Y-121.92
X105.156Y-77.728
X105.156Y-79.756
X105.156Y-84.836
X105.41Y-73.66
X105.664Y-96.52
X105.664Y-106.68
X106.172Y-83.82
X106.68Y-82.296
X109.22Y-121.92
X109.22Y-134.62
X110.49Y-67.818
X111.76Y-66.04
X112.268Y-72.136
X112.268Y-92.71
X113.03Y-80.01
X115.824Y-87.884
X116.332Y-103.632
X116.84Y-99.06
X118.36Y-83.824
X118.364Y-76.2
X118.364Y-78.74
X119.38Y-88.9
X119.38Y-91.44
X119.38Y-129.54
X119.384Y-86.364
X119.888Y-97.536
X120.396Y-82.296
X120.9Y-95.0
X120.904Y-90.932
X120.904Y-99.568
X120.904Y-103.632
X121.92Y-68.58
X121.92Y-86.36
X121.92Y-87.884
X121.92Y-97.536
X121.92Y-111.76
X122.428Y-98.552
X122.428Y-103.632
X124.46Y-55.88
X124.46Y-81.28
X124.46Y-121.92
X124.46Y-128.27
X125.476Y-95.504
X125.984Y-81.28
X125.984Y-86.36
X126.492Y-97.028
X126.492Y-101.092
X127.0Y-76.2
X127.508Y-96.012
X128.036Y-103.612
X128.524Y-113.284
X129.54Y-120.65
X130.048Y-114.808
X130.048Y-116.332
X130.81Y-68.58
X132.08Y-58.42
X134.62Y-55.88
X134.62Y-80.01
X134.62Y-85.09
X134.62Y-91.44
X134.62Y-104.14
X136.144Y-98.044
X136.652Y-100.584
X136.652Y-120.904
X137.16Y-109.22
X137.668Y-70.104
X138.176Y-98.044
X138.176Y-101.092
X138.43Y-80.01
X138.43Y-85.09
X138.43Y-90.17
X138.43Y-96.012
X138.43Y-123.19
X138.684Y-69.088
X138.684Y-118.11
X139.7Y-64.77
X139.7Y-68.072
X139.7Y-71.12
X139.7Y-85.344
X139.7Y-106.172
X140.716Y-86.36
X140.716Y-92.964
X140.716Y-118.11
X141.224Y-94.488
X141.224Y-104.14
X141.732Y-70.104
X141.732Y-87.875
X142.24Y-77.724
X142.24Y-134.62
X142.748Y-69.088
X142.748Y-71.12
X142.748Y-86.36
X142.748Y-91.44
X142.748Y-96.012
X143.764Y-68.072
X144.78Y-59.69
X144.78Y-96.012
X144.78Y-114.3
X144.78Y-118.11
X144.78Y-123.19
X146.05Y-107.95
X147.828Y-106.68
X148.59Y-129.54
X149.86Y-58.42
X149.86Y-62.23
X149.86Y-64.77
X149.86Y-81.28
X149.86Y-87.884
X150.368Y-74.676
X150.368Y-76.708
X150.368Y-92.71
X151.888Y-114.812
X152.4Y-107.95
X152.4Y-110.49
X152.4Y-121.92
X152.4Y-127.0
X153.67Y-90.17
X153.67Y-114.3
X153.67Y-118.11
X153.67Y-129.54
X155.448Y-75.692
X155.956Y-103.632
X155.956Y-104.648
X155.956Y-110.744
X156.421Y-101.6
X156.464Y-102.616
X157.48Y-64.77
X157.48Y-68.58
X157.988Y-75.692
X160.02Y-58.42
X160.02Y-64.77
X160.02Y-72.39
X162.56Y-83.82
X162.56Y-88.9
X162.56Y-96.52
X162.56Y-121.92
X165.1Y-60.96
X165.1Y-91.44
X165.1Y-104.14
X166.37Y-77.47
X167.64Y-86.36
X167.64Y-107.95
X167.64Y-111.76
X167.64Y-114.3
X167.64Y-116.84
X167.64Y-119.38
X167.64Y-121.92
X167.64Y-124.46
X170.18Y-43.18
X170.18Y-83.82
X170.18Y-134.62
X172.72Y-50.8
X172.72Y-57.15
X172.72Y-59.69
X172.72Y-62.23
X172.72Y-64.77
X172.72Y-67.31
X172.72Y-69.85
X172.72Y-72.39
X172.72Y-99.06
X175.26Y-93.98
X175.26Y-105.41
X175.26Y-107.95
X175.26Y-110.49
X175.26Y-113.03
X175.26Y-115.57
X175.26Y-118.11
X175.26Y-120.65
X175.26Y-123.19
X179.07Y-127.0
X180.34Y-93.98
X180.34Y-104.14
X181.61Y-57.15
X181.61Y-59.69
X181.61Y-62.23
X181.61Y-64.77
X181.61Y-67.31
X181.61Y-69.85
X181.61Y-72.39
X181.61Y-99.06
X182.88Y-113.03
X182.88Y-115.57
X182.88Y-118.11
X182.88Y-120.65
X182.88Y-123.19
X185.42Y-104.14
X190.5Y-88.9
T2
X99.06Y-58.42
X99.06Y-68.58
X99.06Y-71.12
X99.06Y-73.66
X99.06Y-76.2
X99.06Y-78.74
X99.06Y-81.28
X99.06Y-83.82
X99.06Y-86.36
X99.06Y-88.9
X99.06Y-91.44
X99.06Y-93.98
X99.06Y-96.52
X99.06Y-99.06
X99.06Y-101.6
X99.06Y-111.76
X101.6Y-55.88
X101.6Y-58.42
X101.6Y-111.76
X102.87Y-73.66
X102.87Y-76.2
X102.87Y-78.74
X102.87Y-81.28
X102.87Y-83.82
X102.87Y-86.36
X102.87Y-88.9
X102.87Y-91.44
X102.87Y-93.98
X102.87Y-96.52
X102.87Y-99.06
X102.87Y-101.6
X102.87Y-104.14
X102.87Y-106.68
X104.14Y-55.88
X104.14Y-111.76
X106.68Y-111.76
X106.68Y-124.46
X106.68Y-127.0
X109.22Y-43.18
X110.49Y-73.66
X110.49Y-76.2
X110.49Y-78.74
X110.49Y-81.28
X110.49Y-83.82
X110.49Y-86.36
X110.49Y-88.9
X110.49Y-91.44
X110.49Y-93.98
X110.49Y-96.52
X110.49Y-99.06
X110.49Y-101.6
X110.49Y-104.14
X110.49Y-106.68
X111.76Y-43.18
X111.76Y-63.5
X111.76Y-111.76
X114.3Y-63.5
X114.3Y-68.58
X114.3Y-71.12
X114.3Y-73.66
X114.3Y-76.2
X114.3Y-78.74
X114.3Y-81.28
X114.3Y-83.82
X114.3Y-86.36
X114.3Y-88.9
X114.3Y-91.44
X114.3Y-93.98
X114.3Y-96.52
X114.3Y-99.06
X114.3Y-101.6
X114.3Y-106.68
X114.3Y-111.76
X114.3Y-124.46
X114.3Y-129.54
X116.84Y-106.68
X116.84Y-124.46
X116.84Y-129.54
X119.38Y-53.34
X119.38Y-121.92
X121.92Y-53.34
X121.92Y-76.2
X121.92Y-78.74
X121.92Y-121.92
X124.46Y-76.2
X124.46Y-78.74
X124.46Y-86.36
X124.46Y-88.9
X124.46Y-91.44
X124.46Y-93.98
X126.974Y-106.68
X126.974Y-109.22
X126.974Y-111.76
X126.974Y-114.3
X126.974Y-116.84
X126.974Y-119.38
X126.974Y-121.92
X126.974Y-124.46
X127.0Y-58.42
X127.0Y-129.54
X129.54Y-53.34
X129.54Y-58.42
X129.54Y-76.2
X129.54Y-78.74
X129.54Y-81.28
X129.54Y-83.82
X129.54Y-86.36
X129.54Y-88.9
X129.54Y-91.44
X129.54Y-93.98
X129.54Y-99.06
X129.54Y-129.54
X132.08Y-53.34
X132.08Y-99.06
X134.594Y-106.68
X134.594Y-109.22
X134.594Y-111.76
X134.594Y-114.3
X134.594Y-116.84
X134.594Y-119.38
X134.594Y-121.92
X134.594Y-124.46
X137.16Y-76.2
X137.16Y-78.74
X137.16Y-81.28
X137.16Y-83.82
X137.16Y-86.36
X137.16Y-88.9
X137.16Y-91.44
X137.16Y-93.98
X139.7Y-53.34
X142.24Y-53.34
X142.24Y-129.54
X142.494Y-109.22
X142.494Y-111.76
X142.494Y-114.3
X142.494Y-116.84
X142.494Y-119.38
X142.494Y-121.92
X142.494Y-124.46
X144.78Y-53.34
X144.78Y-83.82
X144.78Y-86.36
X144.78Y-88.9
X144.78Y-93.98
X144.78Y-99.06
X144.78Y-104.14
X144.78Y-129.54
X147.32Y-53.34
X147.32Y-58.42
X147.32Y-60.96
X147.32Y-63.5
X147.32Y-66.04
X147.32Y-68.58
X147.32Y-71.12
X147.32Y-73.66
X147.32Y-83.82
X147.32Y-86.36
X147.32Y-88.9
X147.32Y-93.98
X147.32Y-99.06
X147.32Y-104.14
X149.86Y-53.34
X150.114Y-109.22
X150.114Y-111.76
X150.114Y-114.3
X150.114Y-116.84
X150.114Y-119.38
X150.114Y-121.92
X150.114Y-124.46
X152.4Y-53.34
X152.4Y-78.74
X152.4Y-83.82
X152.4Y-86.36
X152.4Y-88.9
X152.4Y-91.44
X152.4Y-93.98
X152.4Y-96.52
X152.4Y-99.06
X152.4Y-101.6
X154.94Y-53.34
X154.94Y-58.42
X154.94Y-60.96
X154.94Y-63.5
X154.94Y-66.04
X154.94Y-68.58
X154.94Y-71.12
X154.94Y-73.66
X154.94Y-78.74
X157.48Y-53.34
X157.48Y-106.68
X157.48Y-109.22
X157.48Y-111.76
X157.48Y-114.3
X157.48Y-116.84
X157.48Y-119.38
X157.48Y-121.92
X157.48Y-124.46
X157.48Y-129.54
X160.02Y-83.82
X160.02Y-86.36
X160.02Y-88.9
X160.02Y-91.44
X160.02Y-93.98
X160.02Y-96.52
X160.02Y-99.06
X160.02Y-101.6
X160.02Y-129.54
X162.56Y-55.88
X162.56Y-58.42
X162.56Y-60.96
X162.56Y-63.5
X162.56Y-66.04
X162.56Y-68.58
X162.56Y-71.12
X162.56Y-73.66
X165.1Y-83.82
X165.1Y-88.9
X165.1Y-93.98
X165.1Y-96.52
X165.1Y-99.06
X165.1Y-101.6
X165.1Y-106.68
X165.1Y-109.22
X165.1Y-111.76
X165.1Y-114.3
X165.1Y-116.84
X165.1Y-119.38
X165.1Y-121.92
X165.1Y-124.46
X167.64Y-50.8
X167.64Y-83.82
X167.64Y-88.9
X167.64Y-93.98
X167.64Y-96.52
X167.64Y-99.06
X167.64Y-101.6
X170.18Y-50.8
X170.18Y-55.88
X170.18Y-58.42
X170.18Y-60.96
X170.18Y-63.5
X170.18Y-66.04
X170.18Y-68.58
X170.18Y-71.12
X170.18Y-73.66
X170.18Y-78.74
X170.18Y-96.52
X170.18Y-99.06
X170.18Y-106.68
X170.18Y-109.22
X170.18Y-111.76
X170.18Y-114.3
X170.18Y-119.38
X170.18Y-121.92
X170.18Y-124.46
X170.209Y-116.84
X172.72Y-78.74
X172.72Y-106.68
X172.72Y-109.22
X172.72Y-111.76
X172.72Y-114.3
X172.72Y-119.38
X172.72Y-121.92
X172.72Y-124.46
X172.749Y-116.84
X175.231Y-60.96
X175.231Y-63.5
X175.231Y-66.04
X175.231Y-68.58
X175.231Y-71.12
X175.231Y-73.66
X175.26Y-55.88
X175.26Y-58.42
X175.26Y-78.74
X177.771Y-60.96
X177.771Y-63.5
X177.771Y-66.04
X177.771Y-68.58
X177.771Y-71.12
X177.771Y-73.66
X177.771Y-109.22
X177.771Y-119.38
X177.771Y-121.92
X177.771Y-124.46
X177.8Y-55.88
X177.8Y-58.42
X177.8Y-78.74
X177.8Y-106.68
X177.8Y-111.76
X177.8Y-114.3
X177.8Y-116.84
X180.311Y-109.22
X180.311Y-119.38
X180.311Y-121.92
X180.311Y-124.46
X180.34Y-78.74
X180.34Y-106.68
X180.34Y-111.76
X180.34Y-114.3
X180.34Y-116.84
X182.88Y-78.74
X185.42Y-78.74
X187.96Y-78.74
T3
X99.06Y-50.8
X99.06Y-63.5
X99.06Y-116.84
X99.06Y-124.46
X99.06Y-127.0
X101.6Y-50.8
X101.6Y-63.5
X101.6Y-116.84
X104.14Y-50.8
X104.14Y-63.5
X104.14Y-116.84
X106.68Y-50.8
X109.22Y-50.8
X109.22Y-116.84
X111.76Y-50.8
X111.76Y-116.84
X114.3Y-116.84
X119.38Y-71.12
X121.92Y-43.18
X121.92Y-48.26
X121.92Y-71.12
X124.46Y-71.12
X132.08Y-43.18
X132.08Y-48.26
X142.24Y-43.18
X142.24Y-48.26
X152.4Y-43.18
X152.4Y-48.26
X172.72Y-83.82
X172.72Y-86.36
X172.72Y-88.9
X172.72Y-91.44
X172.72Y-93.98
X177.81Y-91.43
X177.81Y-93.97
X177.81Y-96.51
X177.81Y-99.05
X185.42Y-55.88
X185.42Y-58.42
X185.42Y-60.96
X185.42Y-63.5
X185.42Y-66.04
X185.42Y-68.58
X185.42Y-71.12
X185.42Y-73.66
X185.42Y-106.68
X185.42Y-109.22
X185.42Y-111.76
X185.42Y-114.3
X185.42Y-116.84
X185.42Y-119.38
X185.42Y-121.92
X185.42Y-124.46
X185.43Y-91.43
X185.43Y-93.97
X185.43Y-96.51
X185.43Y-99.05
X187.96Y-55.88
X187.96Y-58.42
X187.96Y-60.96
X187.96Y-63.5
X187.96Y-66.04
X187.96Y-68.58
X187.96Y-71.12
X187.96Y-73.66
X187.96Y-106.68
X187.96Y-109.22
X187.96Y-111.76
X187.96Y-114.3
X187.96Y-116.84
X187.96Y-119.38
X187.96Y-121.92
X187.96Y-124.46
T4
X99.06Y-43.18
X99.06Y-132.08
X187.96Y-43.18
X187.96Y-132.08
T0
M30
